<?xml version="1.0" standalone="no"?>
<!DOCTYPE svg PUBLIC "-//W3C//DTD SVG 1.1//EN" "http://www.w3.org/Graphics/SVG/1.1/DTD/svg11.dtd" >
<svg xmlns="http://www.w3.org/2000/svg" xmlns:xlink="http://www.w3.org/1999/xlink" version="1.1">
<metadata>
Created by FontForge 20190801 at Wed Nov 20 00:00:00 2019
 By root
2019 Klim Type Foundry. All Rights Reserved.
</metadata>
<defs>
<font id="SohneBreit-Halbfett" horiz-adv-x="600" >
  <font-face 
    font-family="Shne Breit Halbfett"
    font-weight="600"
    font-stretch="expanded"
    units-per-em="1000"
    panose-1="2 11 7 5 3 2 2 6 2 3"
    ascent="780"
    descent="-220"
    x-height="526"
    cap-height="718"
    bbox="-270 -207 1388 1014"
    underline-thickness="110"
    underline-position="-191"
    unicode-range="U+0020-FB04"
  />
<missing-glyph 
d="M0 0v718h600v-718h-600zM132 242l51 -51l117 117l118 -117l50 51l-116 118l116 117l-50 51l-118 -117l-117 117l-51 -51l117 -117z" />
    <glyph glyph-name="ff" unicode="ff" horiz-adv-x="867" 
d="M363 729c24 0 47 -1 69 -4c21 -3 39 -8 53 -13l-20 -115c-17 5 -33 8 -47 10c-15 1 -31 2 -50 2c-37 0 -64 -6 -81 -18c-17 -13 -26 -33 -26 -60v-5h257v9c0 63 20 112 61 145s100 49 178 49c23 0 47 -2 70 -5s41 -8 56 -13l-21 -115c-18 5 -34 8 -49 10s-32 3 -51 3
c-37 0 -64 -6 -81 -18c-17 -13 -26 -33 -26 -60v-5h201v-117h-200v-409h-138v409h-256v-409h-138v409h-126v117h126v9c0 63 20 112 61 145s100 49 178 49z" />
    <glyph glyph-name="fi" unicode="fi" horiz-adv-x="728" 
d="M363 729c21 0 41 -1 61 -3c20 -3 37 -6 51 -11l-24 -115c-13 3 -26 6 -38 7c-13 1 -28 2 -45 2c-37 0 -64 -6 -81 -18c-17 -13 -26 -33 -26 -60v-5h189v-117h-188v-409h-138v409h-126v117h126v9c0 63 20 112 61 145s100 49 178 49zM659 588h-143v130h143v-130zM518 526
h140v-526h-140v526z" />
    <glyph glyph-name="fl" unicode="fl" horiz-adv-x="728" 
d="M363 729c21 0 41 -1 61 -3c20 -3 37 -6 51 -11l-24 -115c-13 3 -26 6 -38 7c-13 1 -28 2 -45 2c-37 0 -64 -6 -81 -18c-17 -13 -26 -33 -26 -60v-5h189v-117h-188v-409h-138v409h-126v117h126v9c0 63 20 112 61 145s100 49 178 49zM518 718h140v-718h-140v718z" />
    <glyph glyph-name="ffi" unicode="ffi" horiz-adv-x="1105" 
d="M363 729c24 0 47 -1 69 -4c21 -3 39 -8 53 -13l-20 -115c-17 5 -33 8 -47 10c-15 1 -31 2 -50 2c-37 0 -64 -6 -81 -18c-17 -13 -26 -33 -26 -60v-5h257v9c0 63 20 112 61 145s100 49 178 49c21 0 41 -1 61 -3c20 -3 37 -6 51 -11l-24 -115c-13 3 -26 6 -38 7
c-13 1 -28 2 -45 2c-37 0 -64 -6 -81 -18c-17 -13 -26 -33 -26 -60v-5h189v-117h-188v-409h-138v409h-256v-409h-138v409h-126v117h126v9c0 63 20 112 61 145s100 49 178 49zM1053 588h-143v130h143v-130zM912 526h140v-526h-140v526z" />
    <glyph glyph-name="ffl" unicode="ffl" horiz-adv-x="1105" 
d="M363 729c24 0 47 -1 69 -4c21 -3 39 -8 53 -13l-20 -115c-17 5 -33 8 -47 10c-15 1 -31 2 -50 2c-37 0 -64 -6 -81 -18c-17 -13 -26 -33 -26 -60v-5h257v9c0 63 20 112 61 145s100 49 178 49c21 0 41 -1 61 -3c20 -3 37 -6 51 -11l-24 -115c-13 3 -26 6 -38 7
c-13 1 -28 2 -45 2c-37 0 -64 -6 -81 -18c-17 -13 -26 -33 -26 -60v-5h189v-117h-188v-409h-138v409h-256v-409h-138v409h-126v117h126v9c0 63 20 112 61 145s100 49 178 49zM912 718h140v-718h-140v718z" />
    <glyph glyph-name="f_b" unicode="fb" horiz-adv-x="1165" 
d="M363 729c21 0 41 -1 61 -3c20 -3 37 -6 51 -11l-24 -115c-13 3 -26 6 -38 7c-13 1 -28 2 -45 2c-37 0 -64 -6 -81 -18c-17 -13 -26 -33 -26 -60v-5h189v-117h-188v-409h-138v409h-126v117h126v9c0 63 20 112 61 145s100 49 178 49zM855 -11c-41 0 -79 7 -114 20
s-62 31 -83 54v-63h-140v718h140v-256c21 23 48 41 83 54s73 20 114 20c85 0 154 -26 207 -77s79 -117 79 -196c0 -80 -26 -146 -79 -197s-122 -77 -207 -77zM830 422c-51 0 -93 -15 -127 -44c-34 -30 -51 -67 -51 -112v-7c0 -44 17 -81 52 -111c34 -30 76 -45 126 -45
c51 0 94 15 127 44s50 68 50 116c0 47 -17 86 -50 115s-76 44 -127 44z" />
    <glyph glyph-name="f_h" unicode="fh" horiz-adv-x="1130" 
d="M363 729c21 0 41 -1 61 -3c20 -3 37 -6 51 -11l-24 -115c-13 3 -26 6 -38 7c-13 1 -28 2 -45 2c-37 0 -64 -6 -81 -18c-17 -13 -26 -33 -26 -60v-5h189v-117h-188v-409h-138v409h-126v117h126v9c0 63 20 112 61 145s100 49 178 49zM658 0h-140v718h140v-258
c21 24 49 43 82 56s70 20 110 20c70 0 126 -22 167 -66s62 -103 62 -177v-293h-140v260c0 47 -12 84 -35 111c-24 26 -57 39 -100 39c-46 0 -82 -13 -107 -40c-26 -27 -39 -64 -39 -112v-258z" />
    <glyph glyph-name="f_idieresis" unicode="f&#xef;" horiz-adv-x="714" 
d="M363 729c23 0 47 -2 70 -5s41 -8 56 -13l-21 -115c-18 5 -34 8 -49 10s-32 3 -51 3c-37 0 -64 -6 -81 -18c-17 -13 -26 -33 -26 -60v-5h201v-117h-200v-409h-138v409h-126v117h126v9c0 63 20 112 61 145s100 49 178 49zM786 588h-145v130h145v-130zM521 526h140v-526
h-140v526z" />
    <glyph glyph-name="f_j" unicode="fj" horiz-adv-x="712" 
d="M363 729c21 0 41 -1 61 -3c20 -3 37 -6 51 -11l-24 -115c-13 3 -26 6 -38 7c-13 1 -28 2 -45 2c-37 0 -64 -6 -81 -18c-17 -13 -26 -33 -26 -60v-5h189v-117h-188v-409h-138v409h-126v117h126v9c0 63 20 112 61 145s100 49 178 49zM659 588h-143v130h143v-130zM658 526
v-508c0 -67 -19 -118 -56 -153c-38 -35 -94 -52 -167 -52c-18 0 -38 2 -59 5c-22 3 -40 8 -54 13l21 109c17 -5 32 -8 44 -10c11 -2 24 -3 38 -3c33 0 57 7 72 21c14 14 21 36 21 67v511h140z" />
    <glyph glyph-name="f_k" unicode="fk" horiz-adv-x="1129" 
d="M363 729c21 0 41 -1 61 -3c20 -3 37 -6 51 -11l-24 -115c-13 3 -26 6 -38 7c-13 1 -28 2 -45 2c-37 0 -64 -6 -81 -18c-17 -13 -26 -33 -26 -60v-5h189v-117h-188v-409h-138v409h-126v117h126v9c0 63 20 112 61 145s100 49 178 49zM518 718h140v-435l284 243h193
l-272 -226l280 -300h-176l-204 216l-105 -87v-129h-140v718z" />
    <glyph glyph-name=".notdef" 
d="M0 0v718h600v-718h-600zM132 242l51 -51l117 117l118 -117l50 51l-116 118l116 117l-50 51l-118 -117l-117 117l-51 -51l117 -117z" />
    <glyph glyph-name="NULL" horiz-adv-x="0" 
 />
    <glyph glyph-name="NULL" horiz-adv-x="0" 
 />
    <glyph glyph-name="CR" horiz-adv-x="268" 
 />
    <glyph glyph-name="space" unicode=" " horiz-adv-x="268" 
 />
    <glyph glyph-name="exclam" unicode="!" horiz-adv-x="306" 
d="M206 223h-107l-36 495h179zM236 0h-166v159h166v-159z" />
    <glyph glyph-name="quotedbl" unicode="&#x22;" horiz-adv-x="394" 
d="M148 421h-97l-32 297h162zM342 421h-97l-32 297h162z" />
    <glyph glyph-name="numbersign" unicode="#" horiz-adv-x="750" 
d="M210 0h-122l46 185h-107v106h134l33 136h-137v106h164l46 185h122l-46 -185h167l46 185h122l-46 -185h91v-106h-117l-33 -136h121v-106h-147l-46 -185h-124l46 185h-167zM316 427l-33 -136h167l33 136h-167z" />
    <glyph glyph-name="dollar" unicode="$" horiz-adv-x="805" 
d="M-10 164l100 96c29 -37 67 -67 112 -90s94 -39 148 -46v185c-121 13 -203 34 -246 63s-65 71 -65 128c0 61 28 112 84 151s132 61 227 66v103h119v-106c67 -7 128 -23 181 -47s93 -54 121 -89l-99 -91c-21 26 -48 48 -83 66s-75 31 -120 38v-169c124 -13 208 -35 252 -64
s66 -73 66 -131c0 -65 -27 -117 -82 -156s-134 -62 -236 -69v-106h-119v106c-79 7 -150 25 -215 54s-114 65 -145 108zM179 511c0 -23 12 -40 35 -50s68 -19 136 -27v164c-57 -2 -100 -10 -128 -24c-29 -15 -43 -36 -43 -63zM643 214c0 26 -11 44 -32 55
c-22 11 -69 20 -142 27v-174c56 3 99 13 129 29s45 37 45 63z" />
    <glyph glyph-name="percent" unicode="%" horiz-adv-x="972" 
d="M233 350c-60 0 -110 18 -149 54c-40 36 -60 81 -60 136s20 100 60 136c39 35 89 53 149 53s110 -18 149 -53c39 -36 59 -81 59 -136s-20 -100 -59 -136s-89 -54 -149 -54zM708 718h126l-569 -718h-126zM233 635c-29 0 -52 -9 -70 -26s-27 -40 -27 -69s9 -52 27 -69
c17 -17 41 -26 70 -26s52 9 70 26c17 17 26 40 26 69s-9 52 -26 69c-18 17 -41 26 -70 26zM740 368c60 0 110 -18 149 -54s59 -81 59 -136s-20 -100 -59 -135c-39 -36 -89 -54 -149 -54s-110 18 -149 54c-40 35 -60 80 -60 135s20 100 60 136c39 36 89 54 149 54zM740 273
c-29 0 -52 -9 -69 -26c-18 -17 -27 -40 -27 -69s9 -52 27 -69c17 -17 40 -26 69 -26s52 9 70 26c17 17 26 40 26 69s-9 52 -26 69c-18 17 -41 26 -70 26z" />
    <glyph glyph-name="ampersand" unicode="&#x26;" horiz-adv-x="894" 
d="M716 402l135 -29c-11 -42 -27 -82 -48 -120c-22 -38 -49 -73 -80 -104c25 -14 49 -23 72 -27c23 -5 52 -5 87 -2v-119c-48 -6 -93 -4 -135 7c-43 10 -86 30 -129 59c-43 -25 -89 -45 -138 -58s-99 -20 -150 -20c-96 0 -172 20 -229 59s-85 92 -85 158c0 47 16 89 48 124
c31 35 75 61 131 76c-16 20 -28 40 -35 61c-8 20 -12 41 -12 64c0 58 23 106 69 143c45 37 105 55 179 55c75 0 135 -17 179 -51c43 -35 65 -80 65 -136c0 -45 -16 -84 -49 -118s-77 -59 -134 -75l160 -124c24 25 44 52 61 82s29 62 38 95zM395 623c-33 0 -60 -8 -81 -24
s-31 -36 -31 -60c0 -19 5 -37 16 -53c10 -17 27 -35 52 -55c52 5 91 17 118 35c26 18 39 42 39 72c0 26 -10 47 -30 62s-48 23 -83 23zM160 221c0 -34 17 -61 50 -81c33 -21 78 -31 134 -31c29 0 57 3 85 10s55 16 81 29l-223 176c-40 -5 -71 -16 -93 -34
c-23 -18 -34 -41 -34 -69z" />
    <glyph glyph-name="quotesingle" unicode="'" horiz-adv-x="199" 
d="M148 421h-97l-32 297h162z" />
    <glyph glyph-name="parenleft" unicode="(" horiz-adv-x="392" 
d="M166 320c0 -79 19 -154 57 -224s94 -135 169 -194h-146c-71 46 -127 106 -167 180c-40 73 -60 153 -60 238s20 165 60 239c40 73 96 133 167 179h146c-75 -60 -131 -125 -169 -194c-38 -70 -57 -145 -57 -224z" />
    <glyph glyph-name="parenright" unicode=")" horiz-adv-x="392" 
d="M226 320c0 79 -19 154 -57 224c-38 69 -94 134 -169 194h146c71 -46 127 -106 167 -179c40 -74 60 -154 60 -239s-20 -165 -60 -238c-40 -74 -96 -134 -167 -180h-146c75 59 131 124 169 194s57 145 57 224z" />
    <glyph glyph-name="asterisk" unicode="*" horiz-adv-x="453" 
d="M390 383l-78 -57l-85 117l-86 -117l-78 57l85 118l-138 44l30 92l138 -44v145h97v-145l139 44l29 -92l-139 -44z" />
    <glyph glyph-name="plus" unicode="+" horiz-adv-x="800" 
d="M740 414v-120h-281v-280h-119v280h-280v120h280v280h119v-280h281z" />
    <glyph glyph-name="comma" unicode="," horiz-adv-x="240" 
d="M107 0h-69v162h164v-159c0 -46 -15 -82 -44 -109s-69 -41 -120 -41v74c23 1 41 8 52 19s17 26 17 47v7z" />
    <glyph glyph-name="hyphen" unicode="-" horiz-adv-x="368" 
d="M328 230h-288v125h288v-125z" />
    <glyph glyph-name="period" unicode="." horiz-adv-x="240" 
d="M202 0h-164v162h164v-162z" />
    <glyph glyph-name="slash" unicode="/" horiz-adv-x="560" 
d="M161 -98h-149l387 836h149z" />
    <glyph glyph-name="zero" unicode="0" horiz-adv-x="868" 
d="M434 -11c-118 0 -216 35 -294 105s-117 158 -117 265s39 195 117 265s176 105 294 105s216 -35 294 -105c78 -71 117 -159 117 -265s-39 -194 -117 -264c-78 -71 -176 -106 -294 -106zM434 600c-78 0 -141 -22 -189 -66c-49 -45 -73 -103 -73 -175s24 -130 73 -174
c48 -45 111 -67 189 -67c77 0 140 22 188 67c48 44 72 102 72 174s-24 130 -72 175c-48 44 -111 66 -188 66z" />
    <glyph glyph-name="one" unicode="1" horiz-adv-x="464" 
d="M289 722h112v-722h-147v481h-247v112l139 6c47 3 82 13 104 32s35 49 39 91z" />
    <glyph glyph-name="two" unicode="2" horiz-adv-x="749" 
d="M29 0v117l344 187c52 29 83 46 94 52c10 6 19 12 27 18c26 17 45 35 56 52s16 37 16 58c0 36 -16 65 -48 87c-33 22 -75 33 -127 33c-63 0 -116 -17 -159 -50c-44 -33 -71 -78 -81 -134l-134 34c16 83 58 150 126 200s153 75 255 75c93 0 168 -22 227 -66
c59 -45 88 -102 88 -173c0 -49 -17 -93 -51 -132s-95 -82 -184 -128l-192 -103h444v-127h-701z" />
    <glyph glyph-name="three" unicode="3" horiz-adv-x="780" 
d="M763 206c0 -62 -34 -114 -103 -155s-157 -62 -265 -62c-99 0 -183 19 -253 58s-116 91 -138 156l133 57c16 -44 48 -80 95 -107s101 -41 163 -41c64 0 116 10 155 29s59 44 59 76c0 29 -17 52 -50 68c-34 15 -83 23 -146 23h-132v120h129c57 0 101 7 131 22s45 36 45 64
s-17 50 -50 67c-33 16 -78 24 -135 24c-59 0 -111 -12 -155 -37s-73 -57 -88 -98l-130 49c23 63 68 114 136 153c68 38 149 57 243 57c101 0 182 -19 243 -56c61 -38 91 -87 91 -148c0 -37 -11 -69 -34 -96s-55 -46 -94 -57c49 -12 87 -32 112 -60s38 -63 38 -106z" />
    <glyph glyph-name="four" unicode="4" horiz-adv-x="823" 
d="M627 172v-172h-141v172h-476v114l426 432h191v-426h186v-120h-186zM486 598l-305 -306h305v306z" />
    <glyph glyph-name="five" unicode="5" horiz-adv-x="770" 
d="M383 369c-43 0 -82 -6 -119 -17c-37 -12 -70 -29 -99 -51l-114 31l47 386h599v-127h-488l-21 -156c29 17 63 30 102 39s79 14 121 14c102 0 185 -23 249 -68c63 -45 95 -105 95 -178c0 -75 -34 -135 -103 -182s-157 -71 -264 -71c-99 0 -183 19 -253 58
c-70 38 -115 90 -135 156l132 56c19 -48 51 -84 94 -109s98 -38 163 -38s118 12 158 35s60 54 60 93s-20 71 -61 94s-95 35 -163 35z" />
    <glyph glyph-name="six" unicode="6" horiz-adv-x="819" 
d="M443 729c79 0 149 -14 212 -41s109 -65 140 -112l-103 -90c-21 37 -55 67 -100 89c-45 21 -97 32 -154 32c-79 0 -145 -21 -197 -62s-79 -93 -80 -156c29 31 69 55 118 72s104 25 165 25c105 0 190 -23 257 -68c66 -46 99 -104 99 -175c0 -75 -35 -136 -105 -183
c-71 -47 -161 -71 -272 -71c-125 0 -222 32 -293 96s-107 151 -107 260c0 115 38 208 115 279c76 70 178 105 305 105zM419 110c69 0 126 12 170 36c43 23 65 54 65 93c0 38 -22 69 -65 93s-99 36 -168 36c-70 0 -127 -12 -170 -35c-43 -24 -65 -55 -65 -94s21 -70 64 -93
c43 -24 99 -36 169 -36z" />
    <glyph glyph-name="seven" unicode="7" horiz-adv-x="739" 
d="M572 593h-436v-141h-126v266h719v-131c-97 -90 -167 -181 -210 -274c-44 -93 -66 -198 -66 -313h-150c0 114 22 220 67 319s112 190 202 274z" />
    <glyph glyph-name="eight" unicode="8" horiz-adv-x="810" 
d="M64 527c0 61 31 110 94 147s145 55 247 55c101 0 183 -18 246 -54c63 -37 94 -86 94 -148c0 -33 -10 -62 -31 -87s-53 -47 -98 -66c58 -15 102 -37 133 -66c31 -30 46 -66 46 -108c0 -65 -35 -117 -106 -154c-71 -38 -166 -57 -284 -57s-212 19 -283 57
c-71 37 -107 89 -107 154c0 42 15 78 46 108c31 29 75 51 133 66c-45 19 -77 41 -98 66s-32 54 -32 87zM209 522c0 -29 17 -52 52 -68c34 -16 82 -24 144 -24s110 8 145 24c34 16 51 39 51 68s-17 51 -52 67s-83 24 -144 24s-109 -8 -144 -24s-52 -38 -52 -67zM647 212
c0 33 -21 58 -64 76s-103 27 -178 27s-134 -9 -177 -27s-65 -43 -65 -76c0 -34 21 -60 64 -78c43 -19 102 -28 178 -28s135 9 178 28s64 45 64 78z" />
    <glyph glyph-name="nine" unicode="9" horiz-adv-x="819" 
d="M376 -11c-79 0 -149 14 -212 41s-109 65 -140 112l103 90c21 -37 55 -67 100 -88c45 -22 97 -33 154 -33c79 0 145 21 197 62s79 93 80 156c-29 -31 -69 -54 -118 -71s-104 -26 -165 -26c-105 0 -190 23 -256 69c-67 45 -100 103 -100 174c0 75 35 136 106 183
c70 47 160 71 271 71c125 0 223 -32 294 -96s106 -151 106 -260c0 -115 -38 -208 -114 -278c-77 -71 -179 -106 -306 -106zM400 608c-69 0 -126 -12 -169 -35c-44 -24 -66 -55 -66 -94c0 -38 22 -69 65 -93s99 -36 168 -36c70 0 127 12 170 36c43 23 65 54 65 93
s-21 70 -64 94c-43 23 -99 35 -169 35z" />
    <glyph glyph-name="colon" unicode=":" horiz-adv-x="240" 
d="M202 0h-164v162h164v-162zM202 339h-164v162h164v-162z" />
    <glyph glyph-name="semicolon" unicode=";" horiz-adv-x="240" 
d="M107 0h-69v162h164v-159c0 -46 -15 -82 -44 -109s-69 -41 -120 -41v74c23 1 41 8 52 19s17 26 17 47v7zM202 339h-164v162h164v-162z" />
    <glyph glyph-name="less" unicode="&#x3c;" horiz-adv-x="800" 
d="M741 19l-682 244v185l682 243v-147l-565 -189l565 -189v-147z" />
    <glyph glyph-name="equal" unicode="=" horiz-adv-x="800" 
d="M740 425h-680v120h680v-120zM740 157h-680v120h680v-120z" />
    <glyph glyph-name="greater" unicode="&#x3e;" horiz-adv-x="800" 
d="M741 448v-185l-682 -244v147l565 189l-565 189v147z" />
    <glyph glyph-name="question" unicode="?" horiz-adv-x="707" 
d="M541 497c0 35 -15 62 -46 80s-76 27 -136 27c-57 0 -104 -11 -141 -34c-38 -23 -60 -53 -67 -91l-149 22c12 69 51 124 117 166c65 41 148 62 248 62s180 -20 240 -61s90 -95 90 -163c0 -56 -23 -102 -70 -139s-111 -61 -193 -72v-71h-142v170c87 0 150 8 190 25
c39 17 59 43 59 79zM451 0h-165v159h165v-159z" />
    <glyph glyph-name="at" unicode="@" horiz-adv-x="1062" 
d="M801 455l-50 -254c-4 -20 -2 -35 5 -44c7 -10 21 -15 40 -15c37 0 69 16 94 47s38 72 38 121c0 79 -32 140 -96 185c-65 45 -153 67 -264 67c-129 0 -233 -31 -311 -92c-78 -62 -117 -143 -117 -243c0 -91 35 -162 105 -213c69 -51 167 -76 293 -76c65 0 128 7 189 21
c61 13 113 32 156 55l52 -88c-49 -29 -108 -52 -177 -68c-69 -17 -143 -25 -221 -25c-159 0 -284 35 -376 105s-138 166 -138 289c0 67 15 130 45 187s73 106 129 146c49 34 104 60 167 78s131 27 204 27c141 0 255 -32 342 -95c86 -64 129 -149 129 -255
c0 -82 -25 -148 -75 -198s-114 -75 -192 -74c-31 0 -58 5 -82 16c-25 10 -43 24 -56 42c-16 -18 -39 -32 -68 -42c-30 -10 -62 -15 -96 -15c-64 0 -115 17 -152 50c-38 33 -57 78 -57 133c0 67 24 123 72 169c48 45 108 68 181 68c32 0 61 -5 88 -14c26 -10 47 -24 64 -42
l10 47h125zM400 238c0 -28 9 -50 28 -66c18 -16 43 -24 75 -24c38 0 70 12 95 36c25 23 38 52 38 86c0 28 -9 50 -27 66c-19 16 -44 24 -76 24c-38 0 -70 -12 -95 -35c-25 -24 -38 -53 -38 -87z" />
    <glyph glyph-name="A" unicode="A" horiz-adv-x="876" 
d="M-7 0l362 718h165l362 -718h-159l-83 167h-406l-84 -167h-157zM577 292l-140 281l-141 -281h281z" />
    <glyph glyph-name="B" unicode="B" horiz-adv-x="815" 
d="M551 0h-488v718h471c78 0 138 -16 180 -49s63 -81 63 -142c0 -35 -9 -66 -27 -93c-19 -27 -45 -47 -78 -61c39 -13 70 -35 93 -65c23 -31 34 -66 34 -107c0 -63 -22 -112 -66 -147c-45 -36 -105 -54 -182 -54zM204 596v-170h315c39 0 68 7 89 22c20 15 30 36 30 63
s-10 48 -31 63s-50 22 -88 22h-315zM541 307h-337v-184h337c36 0 64 8 85 25s31 39 31 67s-10 50 -31 67s-50 25 -85 25z" />
    <glyph glyph-name="C" unicode="C" horiz-adv-x="835" 
d="M448 600c-80 0 -146 -22 -197 -67c-52 -45 -78 -103 -78 -174s26 -128 78 -173c51 -45 117 -68 197 -68c61 0 114 14 157 42c43 27 75 67 96 119l127 -64c-28 -71 -75 -127 -142 -166c-67 -40 -146 -60 -239 -60c-122 0 -223 35 -303 106c-81 70 -121 158 -121 264
s40 194 121 265c80 70 181 105 303 105c93 0 172 -20 239 -59c67 -40 114 -96 142 -167l-127 -64c-21 52 -53 92 -96 120c-43 27 -96 41 -157 41z" />
    <glyph glyph-name="D" unicode="D" horiz-adv-x="863" 
d="M430 0h-367v718h367c126 0 226 -32 300 -97s111 -152 111 -262s-37 -197 -111 -262s-174 -97 -300 -97zM207 592v-466h223c81 0 144 21 191 63c47 41 70 98 70 170s-23 129 -70 171c-47 41 -110 62 -191 62h-223z" />
    <glyph glyph-name="E" unicode="E" horiz-adv-x="789" 
d="M63 0v718h695v-127h-550v-160h493v-126h-493v-178h550v-127h-695z" />
    <glyph glyph-name="F" unicode="F" horiz-adv-x="770" 
d="M208 285v-285h-145v718h684v-127h-539v-179h482v-127h-482z" />
    <glyph glyph-name="G" unicode="G" horiz-adv-x="897" 
d="M851 0h-138v84c-22 -28 -57 -51 -105 -68c-49 -18 -101 -27 -158 -27c-124 0 -226 35 -306 105c-81 70 -121 159 -121 267c0 107 41 195 123 264c81 69 185 104 310 104c93 0 174 -19 241 -58s115 -94 143 -164l-129 -62c-21 50 -54 88 -97 115c-44 27 -97 40 -159 40
c-83 0 -150 -22 -202 -67c-53 -45 -79 -103 -79 -174s26 -129 78 -174c51 -45 118 -68 199 -68c69 0 129 15 180 44s78 65 83 108h-323v124h460v-393z" />
    <glyph glyph-name="H" unicode="H" horiz-adv-x="881" 
d="M671 432v286h148v-718h-148v305h-461v-305h-147v718h147v-286h461z" />
    <glyph glyph-name="I" unicode="I" horiz-adv-x="272" 
d="M63 718h147v-718h-147v718z" />
    <glyph glyph-name="J" unicode="J" horiz-adv-x="717" 
d="M339 -11c-80 0 -151 19 -213 58c-63 39 -105 89 -126 151l134 76c12 -46 37 -83 75 -112c37 -29 81 -44 131 -44c59 0 105 14 138 43c33 28 49 68 49 120v437h147v-444c0 -85 -31 -154 -92 -206c-61 -53 -142 -79 -243 -79z" />
    <glyph glyph-name="K" unicode="K" horiz-adv-x="829" 
d="M63 718h147v-344l403 344h207l-367 -304l390 -414h-194l-304 324l-135 -112v-212h-147v718z" />
    <glyph glyph-name="L" unicode="L" horiz-adv-x="736" 
d="M715 0h-652v718h147v-591h505v-127z" />
    <glyph glyph-name="M" unicode="M" horiz-adv-x="1053" 
d="M846 578l-260 -578h-119l-261 578v-578h-143v718h224l241 -538l241 538h221v-718h-144v578z" />
    <glyph glyph-name="N" unicode="N" horiz-adv-x="866" 
d="M661 718h143v-718h-130l-469 531v-531h-142v718h150l448 -507v507z" />
    <glyph glyph-name="O" unicode="O" horiz-adv-x="894" 
d="M23 359c0 107 40 195 120 265s181 105 304 105c122 0 223 -35 304 -105c80 -70 120 -158 120 -265s-40 -195 -120 -265c-81 -70 -182 -105 -304 -105c-123 0 -224 35 -304 105s-120 158 -120 265zM720 359c0 72 -25 130 -75 175c-51 44 -117 66 -198 66
s-147 -22 -197 -66c-51 -45 -76 -103 -76 -175s25 -130 76 -174c50 -45 116 -67 197 -67s147 22 198 67c50 44 75 102 75 174z" />
    <glyph glyph-name="P" unicode="P" horiz-adv-x="801" 
d="M512 264h-302v-264h-147v718h449c85 0 152 -20 200 -59c48 -40 72 -96 72 -168c0 -71 -24 -127 -72 -167s-115 -60 -200 -60zM210 593v-204h294c43 0 76 9 100 27c23 18 35 43 35 75s-12 57 -35 75c-24 18 -57 27 -100 27h-294z" />
    <glyph glyph-name="Q" unicode="Q" horiz-adv-x="894" 
d="M447 -11c-123 0 -224 35 -304 105s-120 158 -120 265s40 195 120 265s181 105 304 105c122 0 223 -35 304 -105c80 -70 120 -158 120 -265c0 -57 -13 -111 -38 -160c-25 -50 -62 -92 -109 -126c15 -17 33 -31 55 -42c22 -12 47 -21 76 -28l-81 -106c-35 9 -68 24 -100 45
s-57 44 -75 69c-24 -7 -49 -13 -74 -16c-26 -4 -52 -6 -78 -6zM447 118c81 0 147 22 198 67c50 44 75 102 75 174s-25 130 -75 175c-51 44 -117 66 -198 66s-147 -22 -197 -66c-51 -45 -76 -103 -76 -175s25 -130 76 -174c50 -45 116 -67 197 -67z" />
    <glyph glyph-name="R" unicode="R" horiz-adv-x="808" 
d="M466 267h-256v-267h-147v718h451c85 0 152 -20 201 -59c48 -40 72 -96 72 -167c0 -53 -14 -98 -43 -134c-29 -37 -70 -62 -123 -77l183 -281h-169zM210 593v-203h296c43 0 76 9 100 27c23 17 35 42 35 74c0 33 -12 58 -35 76c-23 17 -57 26 -100 26h-296z" />
    <glyph glyph-name="S" unicode="S" horiz-adv-x="776" 
d="M399 -11c-87 0 -169 16 -245 47s-131 71 -166 120l99 103c35 -47 80 -82 135 -107s116 -37 183 -37c61 0 111 9 149 26c37 17 56 39 56 68c0 23 -8 40 -23 51c-16 11 -45 20 -88 27c-13 2 -29 4 -48 7c-19 2 -53 6 -102 11c-119 13 -200 35 -244 65
c-45 30 -67 73 -67 130c0 69 31 124 93 166c61 42 143 63 244 63c79 0 153 -13 220 -39s116 -61 149 -104l-98 -94c-27 35 -65 63 -114 83c-49 19 -104 29 -165 29c-58 0 -103 -8 -136 -24s-50 -38 -50 -65c0 -24 14 -41 41 -52s90 -22 189 -33c58 -7 104 -13 137 -19
s61 -13 84 -22c44 -15 76 -36 97 -63c20 -27 30 -60 30 -101c0 -73 -32 -131 -97 -173s-153 -63 -263 -63z" />
    <glyph glyph-name="T" unicode="T" horiz-adv-x="818" 
d="M800 718v-127h-317v-591h-148v591h-317v127h782z" />
    <glyph glyph-name="U" unicode="U" horiz-adv-x="824" 
d="M412 -10c-119 0 -210 30 -273 91c-64 61 -96 147 -96 258v379h147v-371c0 -76 19 -133 56 -171s92 -57 166 -57c73 0 129 19 166 57s55 95 55 171v371h148v-379c0 -111 -32 -197 -95 -258c-64 -61 -155 -91 -274 -91z" />
    <glyph glyph-name="V" unicode="V" horiz-adv-x="881" 
d="M887 718l-363 -718h-168l-363 718h160l289 -573l288 573h157z" />
    <glyph glyph-name="W" unicode="W" horiz-adv-x="1182" 
d="M336 162l180 556h153l179 -556l189 556h151l-251 -718h-171l-175 549l-177 -549h-170l-251 718h154z" />
    <glyph glyph-name="X" unicode="X" horiz-adv-x="850" 
d="M652 718h180l-316 -344l344 -374h-185l-251 277l-254 -277h-180l343 373l-316 345h184l225 -248z" />
    <glyph glyph-name="Y" unicode="Y" horiz-adv-x="848" 
d="M169 718l257 -294l257 294h175l-360 -413v-305h-147v305l-361 413h179z" />
    <glyph glyph-name="Z" unicode="Z" horiz-adv-x="795" 
d="M245 127h512v-127h-721v112l507 479h-503v127h713v-112z" />
    <glyph glyph-name="bracketleft" unicode="[" horiz-adv-x="364" 
d="M354 628h-179v-617h179v-109h-314v836h314v-110z" />
    <glyph glyph-name="backslash" unicode="\" horiz-adv-x="560" 
d="M399 -98h149l-387 836h-149z" />
    <glyph glyph-name="bracketright" unicode="]" horiz-adv-x="364" 
d="M189 11v617h-179v110h314v-836h-314v109h179z" />
    <glyph glyph-name="asciicircum" unicode="^" horiz-adv-x="584" 
d="M14 408l211 310h134l211 -310h-146l-132 198l-133 -198h-145z" />
    <glyph glyph-name="underscore" unicode="_" horiz-adv-x="456" 
d="M414 -166h-372v114h372v-114z" />
    <glyph glyph-name="grave" unicode="`" 
d="M324 718l104 -145h-118l-166 145h180z" />
    <glyph glyph-name="a" unicode="a" horiz-adv-x="663" 
d="M464 65c-25 -24 -57 -43 -96 -56s-80 -20 -125 -20c-67 0 -120 15 -160 44c-41 29 -61 69 -61 119c0 46 18 83 55 112c36 28 87 45 154 52l219 23v4c0 25 -11 44 -34 59c-23 14 -56 21 -97 21c-37 0 -71 -7 -100 -22s-49 -35 -58 -58l-121 41c16 45 50 82 103 110
s113 42 181 42c84 0 149 -17 194 -50c45 -34 67 -82 67 -145v-207c0 -17 6 -27 17 -32c5 -2 11 -3 19 -2c10 0 22 2 37 5v-105c-23 -5 -44 -7 -63 -7c-23 0 -44 3 -62 9c-33 11 -56 32 -69 63zM262 96c51 0 95 10 132 31c37 20 56 45 56 76v36l-198 -22
c-34 -4 -58 -11 -72 -20c-15 -9 -22 -23 -22 -41c0 -19 9 -34 27 -44c18 -11 44 -16 77 -16z" />
    <glyph glyph-name="b" unicode="b" horiz-adv-x="701" 
d="M677 263c0 -80 -26 -146 -79 -197s-122 -77 -207 -77c-41 0 -79 7 -114 20s-62 31 -83 54v-63h-140v718h140v-256c21 23 48 41 83 54s73 20 114 20c85 0 154 -26 207 -77s79 -117 79 -196zM366 422c-51 0 -93 -15 -127 -44c-34 -30 -51 -67 -51 -112v-7
c0 -44 17 -81 52 -111c34 -30 76 -45 126 -45c51 0 94 15 127 44s50 68 50 116c0 47 -17 86 -50 115s-76 44 -127 44z" />
    <glyph glyph-name="c" unicode="c" horiz-adv-x="618" 
d="M334 420c-52 0 -94 -14 -126 -43c-33 -29 -49 -67 -49 -114s16 -85 49 -114c32 -29 74 -44 126 -44c37 0 71 10 101 31c29 20 49 46 60 78l116 -59c-18 -49 -52 -88 -102 -119c-51 -31 -109 -47 -174 -47c-91 0 -165 26 -224 77s-88 117 -88 197s29 146 88 197
s133 76 224 76c65 0 123 -16 174 -47s85 -72 103 -121l-117 -57c-11 32 -31 58 -60 79c-30 20 -64 30 -101 30z" />
    <glyph glyph-name="d" unicode="d" horiz-adv-x="701" 
d="M310 -11c-85 0 -154 26 -207 77s-79 117 -79 197c0 79 26 145 79 196s122 77 207 77c41 0 79 -7 114 -20s62 -31 83 -54v256h140v-718h-140v63c-21 -23 -48 -41 -83 -54s-73 -20 -114 -20zM513 259v7c0 45 -17 82 -51 112c-34 29 -76 44 -127 44s-94 -15 -127 -44
s-50 -68 -50 -115c0 -48 17 -87 50 -116s76 -44 127 -44c50 0 92 15 127 45c34 30 51 67 51 111z" />
    <glyph glyph-name="e" unicode="e" horiz-adv-x="647" 
d="M334 -11c-91 0 -166 26 -224 77s-87 116 -87 197c0 79 29 144 88 196c58 51 132 77 222 77c87 0 158 -25 211 -75s80 -114 80 -193v-44h-466c9 -37 29 -67 60 -88c31 -22 70 -33 116 -33c38 0 72 9 101 26s49 40 61 70l119 -51c-19 -47 -54 -85 -105 -114
c-52 -30 -111 -45 -176 -45zM328 424c-41 0 -76 -9 -105 -28s-49 -44 -60 -77h323c-5 29 -22 53 -52 74s-65 31 -106 31z" />
    <glyph glyph-name="f" unicode="f" horiz-adv-x="473" 
d="M363 729c23 0 47 -2 70 -5s41 -8 56 -13l-21 -115c-18 5 -34 8 -49 10s-32 3 -51 3c-37 0 -64 -6 -81 -18c-17 -13 -26 -33 -26 -60v-5h201v-117h-200v-409h-138v409h-126v117h126v9c0 63 20 112 61 145s100 49 178 49z" />
    <glyph glyph-name="g" unicode="g" horiz-adv-x="696" 
d="M642 526v-452c0 -79 -30 -142 -89 -190c-60 -49 -138 -73 -234 -73c-71 0 -133 12 -185 37c-53 24 -90 58 -111 101l111 68c13 -30 36 -53 69 -70s71 -26 114 -26c55 0 99 13 134 38c34 25 51 59 51 102v20c-23 -23 -51 -41 -84 -54c-34 -13 -71 -19 -112 -19
c-85 0 -154 25 -207 75c-53 49 -79 113 -79 190c0 76 27 139 80 189c53 49 121 74 206 74c41 0 78 -6 112 -18c33 -13 61 -30 84 -53v61h140zM509 271v4c0 43 -17 79 -51 107s-76 42 -127 42s-92 -14 -125 -42s-50 -64 -50 -109s17 -82 50 -110s74 -42 125 -42s94 14 128 42
c33 28 50 64 50 108z" />
    <glyph glyph-name="h" unicode="h" horiz-adv-x="665" 
d="M194 0h-140v718h140v-258c21 24 49 43 82 56s70 20 110 20c70 0 126 -22 167 -66s62 -103 62 -177v-293h-140v260c0 47 -12 84 -35 111c-24 26 -57 39 -100 39c-46 0 -82 -13 -107 -40c-26 -27 -39 -64 -39 -112v-258z" />
    <glyph glyph-name="i" unicode="i" horiz-adv-x="247" 
d="M195 588h-143v130h143v-130zM54 526h140v-526h-140v526z" />
    <glyph glyph-name="j" unicode="j" horiz-adv-x="247" 
d="M195 588h-143v130h143v-130zM-39 -73c33 0 57 7 72 21c14 14 21 36 21 67v511h140v-508c0 -67 -19 -118 -56 -153c-38 -35 -94 -52 -167 -52c-18 0 -38 2 -59 5c-22 3 -40 8 -54 13l21 109c17 -5 32 -8 44 -10c11 -2 24 -3 38 -3z" />
    <glyph glyph-name="k" unicode="k" horiz-adv-x="665" 
d="M54 718h140v-435l284 243h193l-272 -226l280 -300h-176l-204 216l-105 -87v-129h-140v718z" />
    <glyph glyph-name="l" unicode="l" horiz-adv-x="247" 
d="M54 718h140v-718h-140v718z" />
    <glyph glyph-name="m" unicode="m" horiz-adv-x="1059" 
d="M334 411c-45 0 -80 -13 -104 -39s-36 -63 -36 -112v-260h-140v526h140v-65c22 25 48 43 79 56s65 19 103 19c40 0 76 -8 109 -24c32 -17 57 -40 74 -70c28 31 60 55 95 71c35 15 74 23 117 23c75 0 134 -22 176 -65c41 -44 62 -105 62 -182v-289h-140v262
c0 48 -11 85 -33 111c-22 25 -54 38 -95 38c-45 0 -79 -13 -103 -39s-36 -63 -36 -112v-260h-140v262c0 48 -11 85 -33 111c-22 25 -54 38 -95 38z" />
    <glyph glyph-name="n" unicode="n" horiz-adv-x="665" 
d="M194 0h-140v526h140v-66c21 24 49 43 82 56s70 20 110 20c70 0 126 -22 167 -66s62 -103 62 -177v-293h-140v260c0 47 -12 84 -35 111c-24 26 -57 39 -100 39c-46 0 -82 -13 -107 -40c-26 -27 -39 -64 -39 -112v-258z" />
    <glyph glyph-name="o" unicode="o" horiz-adv-x="661" 
d="M331 536c88 0 161 -26 219 -77s87 -117 87 -196c0 -80 -29 -146 -87 -197s-131 -77 -219 -77c-89 0 -162 26 -220 77c-59 51 -88 117 -88 197c0 79 29 145 88 196c58 51 131 77 220 77zM331 419c-51 0 -92 -14 -124 -43s-48 -66 -48 -113s16 -85 48 -114s73 -43 124 -43
c50 0 91 14 123 43s48 67 48 114s-16 84 -48 113s-73 43 -123 43z" />
    <glyph glyph-name="p" unicode="p" horiz-adv-x="701" 
d="M677 263c0 -80 -26 -146 -79 -197s-122 -77 -207 -77c-41 0 -79 7 -114 20s-62 31 -83 54v-241h-140v704h140v-64c21 23 48 41 83 54s73 20 114 20c85 0 154 -26 207 -77s79 -117 79 -196zM366 422c-51 0 -93 -15 -127 -44c-34 -30 -51 -67 -51 -112v-7
c0 -44 17 -81 52 -111c34 -30 76 -45 126 -45c51 0 94 15 127 44s50 68 50 116c0 47 -17 86 -50 115s-76 44 -127 44z" />
    <glyph glyph-name="q" unicode="q" horiz-adv-x="701" 
d="M310 -11c-85 0 -154 26 -207 77s-79 117 -79 197c0 79 26 145 79 196s122 77 207 77c41 0 79 -7 114 -20s62 -31 83 -54v64h140v-704h-140v241c-21 -23 -48 -41 -83 -54s-73 -20 -114 -20zM513 259v7c0 45 -17 82 -51 112c-34 29 -76 44 -127 44s-94 -15 -127 -44
s-50 -68 -50 -115c0 -48 17 -87 50 -116s76 -44 127 -44c50 0 92 15 127 45c34 30 51 67 51 111z" />
    <glyph glyph-name="r" unicode="r" horiz-adv-x="461" 
d="M392 529c11 0 21 0 31 -1c9 -1 18 -3 27 -6v-138c-14 3 -25 6 -33 7s-18 1 -30 1c-64 0 -112 -14 -144 -42c-33 -29 -49 -71 -49 -126v-224h-140v526h140v-93c21 33 48 57 81 73c32 15 71 23 117 23z" />
    <glyph glyph-name="s" unicode="s" horiz-adv-x="585" 
d="M299 -11c-65 0 -124 10 -178 30c-54 19 -96 46 -125 80l80 92c29 -31 62 -54 101 -69c38 -16 81 -24 128 -24c41 0 73 5 95 15c22 9 33 23 33 41c0 12 -5 21 -15 28c-11 6 -30 11 -59 15c-10 2 -26 4 -48 7c-22 2 -38 4 -47 5c-93 12 -156 30 -188 53
c-33 23 -49 56 -49 99c0 53 24 95 71 127s110 48 189 48c58 0 111 -9 160 -26c48 -18 85 -42 112 -73l-80 -85c-23 25 -51 44 -85 57s-72 19 -114 19c-37 0 -65 -4 -85 -13c-21 -9 -31 -22 -31 -39c0 -13 7 -22 21 -28c14 -7 57 -14 130 -23c43 -5 77 -10 102 -15
c24 -5 45 -10 62 -17c32 -13 56 -29 71 -49c15 -21 22 -46 22 -76c0 -55 -25 -99 -74 -131c-50 -32 -116 -48 -199 -48z" />
    <glyph glyph-name="t" unicode="t" horiz-adv-x="523" 
d="M339 -7c-69 0 -121 16 -158 47s-56 77 -56 136v233h-126v117h126v150h138v-150h224v-117h-224v-210c0 -29 8 -50 25 -63c16 -13 43 -20 82 -20c17 0 35 2 53 5s39 9 62 17l24 -115c-24 -9 -51 -17 -81 -22c-31 -5 -60 -8 -89 -8z" />
    <glyph glyph-name="u" unicode="u" horiz-adv-x="660" 
d="M467 526h140v-526h-140v66c-22 -25 -49 -44 -81 -57c-33 -13 -69 -20 -108 -20c-69 0 -125 22 -166 65s-62 101 -62 174v298h140v-274c0 -46 11 -81 34 -104c22 -24 55 -36 98 -36c46 0 82 13 107 39s38 63 38 110v265z" />
    <glyph glyph-name="v" unicode="v" horiz-adv-x="658" 
d="M660 526l-259 -526h-144l-259 526h156l178 -375l178 375h150z" />
    <glyph glyph-name="w" unicode="w" horiz-adv-x="921" 
d="M278 170l125 356h122l126 -356l128 356h144l-207 -526h-126l-129 350l-129 -350h-126l-208 526h149z" />
    <glyph glyph-name="x" unicode="x" horiz-adv-x="669" 
d="M670 0h-177l-158 177l-166 -177h-170l250 263l-242 263h176l152 -169l157 169h170l-241 -255z" />
    <glyph glyph-name="y" unicode="y" horiz-adv-x="658" 
d="M660 526l-275 -563c-26 -54 -56 -92 -91 -115s-80 -35 -136 -35c-19 0 -40 2 -62 7c-23 4 -40 9 -52 15l25 114c14 -7 27 -12 40 -15c12 -3 24 -5 37 -5c28 0 51 6 68 17s29 28 38 51l5 16l-259 513h156l180 -375l176 375h150z" />
    <glyph glyph-name="z" unicode="z" horiz-adv-x="625" 
d="M231 117h361v-117h-558v104l360 305h-357v117h552v-105z" />
    <glyph glyph-name="braceleft" unicode="{" horiz-adv-x="422" 
d="M69 264h-49v112h49c19 0 33 6 42 19s13 31 13 56v114c0 55 17 97 51 128c33 30 81 45 142 45h95v-110h-71c-31 0 -54 -7 -69 -22s-22 -38 -22 -71v-89c0 -33 -6 -59 -17 -79c-12 -21 -30 -36 -55 -47c25 -11 43 -26 55 -46c11 -21 17 -47 17 -80v-89c0 -33 7 -56 22 -71
s38 -22 69 -22h71v-110h-95c-61 0 -109 15 -142 46c-34 30 -51 72 -51 127v114c0 25 -4 43 -13 56s-23 19 -42 19z" />
    <glyph glyph-name="bar" unicode="|" horiz-adv-x="270" 
d="M204 -98h-138v836h138v-836z" />
    <glyph glyph-name="braceright" unicode="}" horiz-adv-x="422" 
d="M402 376v-112h-49c-19 0 -32 -6 -41 -19s-14 -31 -14 -56v-114c0 -55 -17 -97 -50 -127c-34 -31 -82 -46 -143 -46h-95v110h71c31 0 54 7 69 22s22 38 22 71v89c0 33 6 59 18 80c11 20 29 35 54 46c-25 11 -43 26 -54 47c-12 20 -18 46 -18 79v89c0 33 -7 56 -22 71
s-38 22 -69 22h-71v110h95c61 0 109 -15 143 -45c33 -31 50 -73 50 -128v-114c0 -25 5 -43 14 -56s22 -19 41 -19h49z" />
    <glyph glyph-name="asciitilde" unicode="~" horiz-adv-x="506" 
d="M176 413c11 0 23 -2 35 -6c11 -5 26 -14 45 -28c15 -11 27 -18 34 -21s14 -5 21 -5c14 0 25 5 32 14s13 25 18 47h105c-3 -61 -17 -109 -41 -144s-56 -53 -95 -53c-12 0 -24 2 -35 7s-27 14 -46 27c-15 11 -25 18 -32 21s-14 5 -21 5c-14 0 -25 -4 -32 -13
c-8 -9 -14 -25 -18 -47h-106c3 60 17 108 42 143c24 35 55 53 94 53z" />
    <glyph glyph-name="uni00A0" unicode="&#xa0;" horiz-adv-x="268" 
 />
    <glyph glyph-name="exclamdown" unicode="&#xa1;" horiz-adv-x="306" 
d="M70 559v159h166v-159h-166zM63 0l36 495h107l36 -495h-179z" />
    <glyph glyph-name="cent" unicode="&#xa2;" horiz-adv-x="656" 
d="M411 -103h-111v95c-81 10 -147 41 -198 92s-76 113 -76 186s25 136 76 187s117 81 198 91v107h111v-107c57 -7 106 -26 149 -55c43 -30 73 -66 90 -108l-103 -60c-12 28 -30 51 -53 70s-51 31 -83 38v-327c32 7 60 21 84 40s41 43 52 70l102 -63
c-17 -42 -47 -77 -89 -106c-43 -29 -92 -48 -149 -55v-95zM154 270c0 -41 13 -77 40 -106c26 -29 61 -49 106 -58v328c-45 -9 -80 -29 -106 -58c-27 -29 -40 -65 -40 -106z" />
    <glyph glyph-name="sterling" unicode="&#xa3;" horiz-adv-x="880" 
d="M249 285h-162v99h89c-13 19 -23 37 -29 55c-6 17 -9 35 -9 54c0 67 32 123 97 168c64 45 146 68 245 68c102 0 184 -23 246 -70s93 -109 93 -188c0 -9 0 -17 -1 -25c-1 -9 -2 -17 -3 -24h-134l3 18v15c0 48 -18 85 -54 111s-87 39 -152 39c-59 0 -107 -12 -142 -35
c-36 -24 -54 -55 -54 -93c0 -13 3 -27 8 -40s15 -31 30 -53h267v-99h-208c3 -10 6 -20 7 -30s2 -20 2 -29v-17l-3 -18c68 -35 115 -56 140 -63s48 -11 71 -11c41 0 74 10 98 31c24 20 37 49 40 86h134c1 -73 -22 -132 -69 -177s-109 -68 -185 -68c-40 0 -79 7 -118 21
c-39 13 -88 40 -149 81c-21 -32 -48 -57 -81 -75s-68 -27 -107 -27c-47 0 -86 12 -115 37c-29 24 -44 56 -44 96s16 72 47 97s72 37 121 37c16 0 32 -1 49 -3c17 -3 34 -7 51 -12c-1 7 -3 14 -6 21s-8 14 -13 23zM172 166c-19 0 -33 -4 -44 -11c-11 -8 -17 -18 -17 -31
c0 -12 5 -22 15 -29c9 -7 22 -11 38 -11c21 0 39 5 56 16s30 25 39 44c-17 8 -33 14 -46 17c-14 3 -28 5 -41 5z" />
    <glyph glyph-name="yen" unicode="&#xa5;" horiz-adv-x="914" 
d="M387 174h-277v97h277v59h-277v97h184l-295 291h184l276 -278l276 278h180l-294 -291h185v-97h-278v-59h278v-97h-278v-174h-141v174z" />
    <glyph glyph-name="section" unicode="&#xa7;" horiz-adv-x="802" 
d="M721 256c12 -13 21 -26 27 -41s9 -31 9 -48c0 -55 -30 -99 -89 -130c-60 -32 -142 -48 -247 -48c-90 0 -172 10 -245 31c-74 20 -130 48 -167 83l85 99c36 -33 83 -58 141 -75c58 -18 123 -27 196 -27c54 0 97 5 129 16c32 10 48 24 48 42c0 15 -7 27 -22 35
s-39 13 -72 14l-296 18c-55 3 -97 17 -128 42c-31 24 -46 56 -46 97c0 19 4 37 12 54s20 32 36 46c-12 11 -21 25 -27 40c-7 15 -10 31 -10 48c0 55 29 98 88 130c58 31 138 47 241 47c82 0 155 -9 220 -26c65 -18 115 -43 151 -75l-81 -93c-31 26 -73 46 -124 59
c-52 13 -112 20 -180 20c-54 0 -95 -4 -124 -13s-44 -22 -44 -39c0 -13 6 -23 18 -30s31 -11 58 -12l275 -14c71 -4 124 -18 160 -43c35 -25 53 -61 53 -106c0 -20 -4 -38 -11 -55c-8 -17 -19 -33 -34 -46zM250 336l281 -16c19 -1 37 -3 52 -5c15 -3 29 -6 41 -9
c5 5 8 11 11 18c3 6 4 12 4 19c0 17 -8 29 -23 37c-16 8 -42 13 -79 15l-290 16l-30 3s-20 3 -31 5c-7 -5 -12 -11 -15 -17c-3 -7 -5 -14 -5 -21c0 -14 7 -25 21 -32c13 -7 34 -12 63 -13z" />
    <glyph glyph-name="dieresis" unicode="&#xa8;" 
d="M249 588h-144v130h144v-130zM495 588h-144v130h144v-130z" />
    <glyph glyph-name="copyright" unicode="&#xa9;" horiz-adv-x="896" 
d="M449 729c116 0 213 -35 292 -105c79 -71 118 -159 118 -265c0 -105 -39 -193 -118 -264s-177 -106 -292 -106c-117 0 -215 35 -294 106s-119 159 -119 264c0 106 40 194 119 265c79 70 177 105 294 105zM449 60c95 0 176 29 241 86s97 128 97 213s-32 157 -97 214
s-145 85 -241 85c-97 0 -177 -28 -242 -85s-98 -129 -98 -214s33 -156 98 -213s146 -86 242 -86zM453 149c-71 0 -128 20 -173 59s-67 90 -67 152s22 113 67 152s102 59 173 59c55 0 101 -11 139 -32s65 -51 80 -90l-108 -46c-10 22 -24 39 -43 50s-41 17 -68 17
c-38 0 -68 -10 -90 -29c-22 -20 -33 -47 -33 -81s11 -61 33 -80c22 -20 52 -30 90 -30c27 0 50 6 69 17c18 11 32 28 42 50l108 -46c-15 -39 -42 -69 -79 -90c-38 -21 -85 -32 -140 -32z" />
    <glyph glyph-name="ordfeminine" unicode="&#xaa;" horiz-adv-x="510" 
d="M336 384c-18 -16 -41 -28 -68 -37s-57 -13 -88 -13c-48 0 -86 11 -115 32s-44 49 -44 84c0 33 13 60 40 81c27 20 64 32 113 37l152 15v2c0 17 -8 30 -23 39s-37 14 -65 14c-25 0 -48 -5 -67 -14c-19 -10 -32 -23 -37 -38l-99 28c11 33 36 60 74 81c38 20 83 30 134 30
c61 0 108 -12 141 -36s49 -59 49 -105v-140c0 -12 4 -19 11 -22c3 -1 7 -2 12 -2c7 0 15 1 26 3v-81c-19 -4 -36 -6 -51 -6s-29 2 -41 6c-25 7 -43 21 -54 42zM200 415c34 0 64 7 89 21c25 13 37 30 37 50v22l-136 -14c-22 -2 -38 -6 -47 -12c-9 -7 -14 -16 -14 -28
c0 -13 6 -22 19 -29c12 -7 29 -10 52 -10zM481 188h-450v94h450v-94z" />
    <glyph glyph-name="guillemotleft" unicode="&#xab;" horiz-adv-x="545" 
d="M260 59l-222 136v130l222 136v-135l-102 -66l102 -66v-135zM507 59l-222 136v130l222 136v-135l-102 -66l102 -66v-135z" />
    <glyph glyph-name="registered" unicode="&#xae;" horiz-adv-x="542" 
d="M271 729c70 0 128 -21 175 -63c47 -43 70 -96 70 -160s-23 -117 -70 -159c-47 -43 -105 -64 -175 -64s-128 21 -175 64c-47 42 -70 95 -70 159s23 117 70 160c47 42 105 63 175 63zM271 330c55 0 102 17 139 51c37 33 55 75 55 125s-18 92 -55 126c-37 33 -84 50 -139 50
s-101 -17 -138 -50c-37 -34 -56 -76 -56 -126s19 -92 56 -125c37 -34 83 -51 138 -51zM347 487l55 -90h-75l-42 73h-58v-73h-67v225h140c29 0 51 -6 67 -19s24 -31 24 -54c0 -14 -4 -26 -11 -36c-8 -11 -19 -19 -33 -26zM322 543c0 8 -3 14 -8 19c-6 4 -14 6 -23 6h-64v-50
h64c9 0 17 2 23 7c5 4 8 10 8 18z" />
    <glyph glyph-name="macron" unicode="&#xaf;" 
d="M483 696v-106h-366v106h366z" />
    <glyph glyph-name="degree" unicode="&#xb0;" horiz-adv-x="406" 
d="M18 575c0 45 17 82 52 111c34 29 78 43 133 43s99 -14 134 -43c34 -29 51 -66 51 -111s-17 -82 -52 -111s-79 -44 -133 -44c-55 0 -99 15 -133 44c-35 29 -52 66 -52 111zM114 575c0 -21 8 -37 25 -49c16 -13 37 -19 64 -19s49 6 65 18c15 12 23 29 23 50s-8 38 -23 50
c-16 12 -38 18 -65 18s-48 -6 -64 -18c-17 -13 -25 -29 -25 -50z" />
    <glyph glyph-name="uni00B2" unicode="&#xb2;" horiz-adv-x="444" 
d="M27 320v79l169 92c47 24 77 42 90 54c12 11 18 24 18 38c0 15 -7 27 -20 36s-31 14 -54 14c-29 0 -54 -8 -74 -24c-21 -16 -33 -37 -38 -63l-100 21c7 47 30 85 69 114s89 43 148 43c54 0 98 -12 132 -36c33 -24 50 -56 50 -96c0 -29 -9 -55 -27 -77
c-19 -22 -49 -43 -90 -62l-83 -42h209v-91h-399z" />
    <glyph glyph-name="uni00B3" unicode="&#xb3;" horiz-adv-x="464" 
d="M447 434c0 -35 -20 -63 -59 -86s-91 -34 -154 -34c-56 0 -104 10 -143 29s-68 47 -87 83l97 44c10 -21 27 -37 52 -49c24 -13 51 -19 81 -19c27 0 50 4 67 12c17 7 25 17 25 30s-7 22 -22 28s-37 9 -66 9h-74v82h69c29 0 50 3 64 9c14 5 21 14 21 26c0 11 -7 20 -22 27
s-36 10 -62 10c-29 0 -54 -6 -76 -17s-37 -26 -46 -44l-92 43c16 33 44 59 84 78s86 29 138 29c59 0 107 -11 143 -32c35 -21 53 -49 53 -84c0 -19 -6 -37 -19 -52s-30 -26 -51 -33c27 -8 47 -19 60 -34s19 -33 19 -55z" />
    <glyph glyph-name="acute" unicode="&#xb4;" 
d="M290 573h-118l104 145h180z" />
    <glyph glyph-name="paragraph" unicode="&#xb6;" horiz-adv-x="851" 
d="M708 0h-133v600h-144v-282h-177c-69 0 -124 18 -167 54s-64 84 -64 143c0 61 23 110 68 147s105 56 178 56h570v-118h-131v-600z" />
    <glyph glyph-name="periodcentered" unicode="&#xb7;" horiz-adv-x="244" 
d="M204 210h-164v162h164v-162z" />
    <glyph glyph-name="cedilla" unicode="&#xb8;" 
d="M439 -100c0 -27 -13 -48 -39 -64c-27 -16 -61 -24 -103 -24c-28 0 -54 3 -78 10c-24 6 -43 15 -58 26l43 64c12 -9 25 -16 40 -21c14 -5 30 -7 47 -7s31 2 40 6s13 10 13 18c0 9 -7 16 -21 21c-15 4 -40 6 -75 7l23 76h67l-10 -33c34 -1 61 -9 81 -23
c20 -15 30 -33 30 -56z" />
    <glyph glyph-name="uni00B9" unicode="&#xb9;" horiz-adv-x="373" 
d="M366 320h-353v92h128v156h-128v82l60 2c30 1 52 6 67 17c14 10 23 26 27 49h85v-306h114v-92z" />
    <glyph glyph-name="ordmasculine" unicode="&#xba;" horiz-adv-x="488" 
d="M244 725c65 0 119 -18 161 -54c41 -37 62 -84 62 -142c0 -57 -21 -104 -63 -141s-95 -55 -160 -55s-118 18 -160 55s-63 84 -63 141c0 58 21 105 63 142c41 36 95 54 160 54zM244 635c-34 0 -62 -10 -83 -29s-32 -45 -32 -77s11 -57 32 -76s49 -29 83 -29s62 10 84 29
c21 19 32 45 32 76c0 32 -11 58 -32 77c-22 19 -50 29 -84 29zM461 188h-434v94h434v-94z" />
    <glyph glyph-name="guillemotright" unicode="&#xbb;" horiz-adv-x="545" 
d="M260 325v-130l-222 -136v135l102 66l-102 66v135zM507 325v-130l-222 -136v135l102 66l-102 66v135z" />
    <glyph glyph-name="onequarter" unicode="&#xbc;" horiz-adv-x="1012" 
d="M366 320h-353v92h128v156h-128v82l60 2c30 1 52 6 67 17c14 10 23 26 27 49h85v-306h114v-92zM173 0l569 718h123l-569 -718h-123zM906 87v-87h-106v87h-252v81l217 230h141v-225h91v-86h-91zM800 310l-130 -137h130v137z" />
    <glyph glyph-name="onehalf" unicode="&#xbd;" horiz-adv-x="1039" 
d="M366 320h-353v92h128v156h-128v82l60 2c30 1 52 6 67 17c14 10 23 26 27 49h85v-306h114v-92zM173 0l569 718h123l-569 -718h-123zM622 0v79l169 92c47 24 77 42 90 54c12 11 18 24 18 38c0 15 -7 27 -20 36s-31 14 -54 14c-29 0 -54 -8 -74 -24c-21 -16 -33 -37 -38 -63
l-100 21c7 47 30 85 69 114s89 43 148 43c54 0 98 -12 132 -36c33 -24 50 -56 50 -96c0 -29 -9 -55 -27 -77c-19 -22 -49 -43 -90 -62l-83 -42h209v-91h-399z" />
    <glyph glyph-name="threequarters" unicode="&#xbe;" horiz-adv-x="1034" 
d="M447 434c0 -35 -20 -63 -59 -86s-91 -34 -154 -34c-56 0 -104 10 -143 29s-68 47 -87 83l97 44c10 -21 27 -37 52 -49c24 -13 51 -19 81 -19c27 0 50 4 67 12c17 7 25 17 25 30s-7 22 -22 28s-37 9 -66 9h-74v82h69c29 0 50 3 64 9c14 5 21 14 21 26c0 11 -7 20 -22 27
s-36 10 -62 10c-29 0 -54 -6 -76 -17s-37 -26 -46 -44l-92 43c16 33 44 59 84 78s86 29 138 29c59 0 107 -11 143 -32c35 -21 53 -49 53 -84c0 -19 -6 -37 -19 -52s-30 -26 -51 -33c27 -8 47 -19 60 -34s19 -33 19 -55zM194 0l569 718h123l-569 -718h-123zM928 87v-87h-106
v87h-252v81l217 230h141v-225h91v-86h-91zM822 310l-130 -137h130v137z" />
    <glyph glyph-name="questiondown" unicode="&#xbf;" horiz-adv-x="707" 
d="M256 728h165v-159h-165v159zM166 231c0 -35 15 -62 46 -80s76 -27 136 -27c57 0 104 11 142 34c37 23 59 53 66 91l149 -22c-12 -69 -51 -124 -116 -165c-66 -42 -149 -63 -249 -63s-180 20 -240 61s-90 95 -90 163c0 56 23 103 70 140s111 60 193 71v71h142v-170
c-87 0 -150 -8 -189 -25c-40 -17 -60 -43 -60 -79z" />
    <glyph glyph-name="Agrave" unicode="&#xc0;" horiz-adv-x="876" 
d="M-7 0l362 718h165l362 -718h-159l-83 167h-406l-84 -167h-157zM577 292l-140 281l-141 -281h281zM393 910l117 -151h-126l-190 151h199z" />
    <glyph glyph-name="Aacute" unicode="&#xc1;" horiz-adv-x="876" 
d="M-7 0l362 718h165l362 -718h-159l-83 167h-406l-84 -167h-157zM577 292l-140 281l-141 -281h281zM495 759h-126l117 151h199z" />
    <glyph glyph-name="Acircumflex" unicode="&#xc2;" horiz-adv-x="876" 
d="M-7 0l362 718h165l362 -718h-159l-83 167h-406l-84 -167h-157zM577 292l-140 281l-141 -281h281zM359 910h156l144 -151h-116l-106 67l-106 -67h-116z" />
    <glyph glyph-name="Atilde" unicode="&#xc3;" horiz-adv-x="876" 
d="M-7 0l362 718h165l362 -718h-159l-83 167h-406l-84 -167h-157zM577 292l-140 281l-141 -281h281zM338 923c17 0 34 -2 51 -6c16 -4 37 -13 64 -26c19 -9 34 -15 44 -18c9 -3 18 -4 27 -4c11 0 20 4 27 13c7 8 12 22 16 41h93c-3 -51 -15 -91 -37 -120s-51 -44 -86 -44
c-17 0 -33 2 -50 7c-17 4 -38 12 -65 25c-19 10 -34 16 -43 19s-18 4 -27 4c-12 0 -21 -4 -28 -13s-12 -23 -15 -42h-93c2 51 14 91 36 120c21 29 50 44 86 44z" />
    <glyph glyph-name="Adieresis" unicode="&#xc4;" horiz-adv-x="876" 
d="M-7 0l362 718h165l362 -718h-159l-83 167h-406l-84 -167h-157zM577 292l-140 281l-141 -281h281zM382 759h-144v132h144v-132zM636 759h-144v132h144v-132z" />
    <glyph glyph-name="Aring" unicode="&#xc5;" horiz-adv-x="876" 
d="M295 789c0 36 14 66 41 90s60 36 101 36s76 -12 103 -36s40 -54 40 -90c0 -19 -4 -37 -12 -54c-9 -17 -20 -31 -35 -42l349 -693h-159l-83 167h-406l-84 -167h-157l349 693c-15 12 -26 26 -34 43c-9 17 -13 34 -13 53zM437 842c-17 0 -31 -5 -42 -15s-17 -23 -17 -38
s6 -28 17 -38s25 -15 42 -15s32 5 43 15s16 23 16 38s-5 28 -16 38s-26 15 -43 15zM577 292l-140 281l-141 -281h281z" />
    <glyph glyph-name="AE" unicode="&#xc6;" horiz-adv-x="1419" 
d="M-12 0l642 718h758v-127h-550v-160h493v-126h-493v-178h550v-127h-695v165h-374l-146 -165h-185zM693 587l-264 -298h264v298z" />
    <glyph glyph-name="Ccedilla" unicode="&#xc7;" horiz-adv-x="835" 
d="M23 359c0 106 40 194 121 265c80 70 181 105 303 105c93 0 172 -20 239 -59c67 -40 114 -96 142 -167l-127 -64c-21 52 -53 92 -96 120c-43 27 -96 41 -157 41c-80 0 -146 -22 -197 -67c-52 -45 -78 -103 -78 -174s26 -128 78 -173c51 -45 117 -68 197 -68
c61 0 114 14 157 42c43 27 75 67 96 119l127 -64c-28 -71 -75 -127 -141 -166c-67 -40 -146 -60 -237 -60l-3 -10c34 -1 61 -9 81 -23c20 -15 30 -33 30 -56c0 -27 -13 -48 -39 -64c-27 -16 -61 -24 -103 -24c-28 0 -54 3 -78 10c-24 6 -43 15 -58 26l43 64
c12 -9 25 -16 40 -21c14 -5 30 -7 47 -7s31 2 40 6s13 10 13 18c0 9 -7 16 -21 21c-15 4 -40 6 -75 7l17 57c-107 12 -193 52 -260 120s-101 150 -101 246z" />
    <glyph glyph-name="Egrave" unicode="&#xc8;" horiz-adv-x="789" 
d="M63 0v718h695v-127h-550v-160h493v-126h-493v-178h550v-127h-695zM393 910l117 -151h-126l-190 151h199z" />
    <glyph glyph-name="Eacute" unicode="&#xc9;" horiz-adv-x="789" 
d="M63 0v718h695v-127h-550v-160h493v-126h-493v-178h550v-127h-695zM453 759h-126l117 151h199z" />
    <glyph glyph-name="Ecircumflex" unicode="&#xca;" horiz-adv-x="789" 
d="M63 0v718h695v-127h-550v-160h493v-126h-493v-178h550v-127h-695zM330 910h156l144 -151h-116l-106 67l-106 -67h-116z" />
    <glyph glyph-name="Edieresis" unicode="&#xcb;" horiz-adv-x="789" 
d="M63 0v718h695v-127h-550v-160h493v-126h-493v-178h550v-127h-695zM353 759h-144v132h144v-132zM607 759h-144v132h144v-132z" />
    <glyph glyph-name="Igrave" unicode="&#xcc;" horiz-adv-x="272" 
d="M63 718h147v-718h-147v718zM84 910l117 -151h-126l-190 151h199z" />
    <glyph glyph-name="Iacute" unicode="&#xcd;" horiz-adv-x="272" 
d="M63 718h147v-718h-147v718zM198 759h-126l117 151h199z" />
    <glyph glyph-name="Icircumflex" unicode="&#xce;" horiz-adv-x="272" 
d="M63 718h147v-718h-147v718zM58 910h156l144 -151h-116l-106 67l-106 -67h-116z" />
    <glyph glyph-name="Idieresis" unicode="&#xcf;" horiz-adv-x="272" 
d="M63 718h147v-718h-147v718zM81 759h-144v132h144v-132zM335 759h-144v132h144v-132z" />
    <glyph glyph-name="Eth" unicode="&#xd0;" horiz-adv-x="903" 
d="M470 0h-367v305h-98v125h98v288h367c126 0 226 -32 300 -97s111 -152 111 -262s-37 -197 -111 -262s-174 -97 -300 -97zM247 305v-179h223c81 0 144 21 191 63c47 41 70 98 70 170s-23 129 -70 171c-47 41 -110 62 -191 62h-223v-162h164v-125h-164z" />
    <glyph glyph-name="Ntilde" unicode="&#xd1;" horiz-adv-x="866" 
d="M661 718h143v-718h-130l-469 531v-531h-142v718h150l448 -507v507zM329 923c17 0 34 -2 51 -6c16 -4 37 -13 64 -26c19 -9 34 -15 44 -18c9 -3 18 -4 27 -4c11 0 20 4 27 13c7 8 12 22 16 41h93c-3 -51 -15 -91 -37 -120s-51 -44 -86 -44c-17 0 -33 2 -50 7
c-17 4 -38 12 -65 25c-19 10 -34 16 -43 19s-18 4 -27 4c-12 0 -21 -4 -28 -13s-12 -23 -15 -42h-93c2 51 14 91 36 120c21 29 50 44 86 44z" />
    <glyph glyph-name="Ograve" unicode="&#xd2;" horiz-adv-x="894" 
d="M23 359c0 107 40 195 120 265s181 105 304 105c122 0 223 -35 304 -105c80 -70 120 -158 120 -265s-40 -195 -120 -265c-81 -70 -182 -105 -304 -105c-123 0 -224 35 -304 105s-120 158 -120 265zM720 359c0 72 -25 130 -75 175c-51 44 -117 66 -198 66
s-147 -22 -197 -66c-51 -45 -76 -103 -76 -175s25 -130 76 -174c50 -45 116 -67 197 -67s147 22 198 67c50 44 75 102 75 174zM410 910l117 -151h-126l-190 151h199z" />
    <glyph glyph-name="Oacute" unicode="&#xd3;" horiz-adv-x="894" 
d="M23 359c0 107 40 195 120 265s181 105 304 105c122 0 223 -35 304 -105c80 -70 120 -158 120 -265s-40 -195 -120 -265c-81 -70 -182 -105 -304 -105c-123 0 -224 35 -304 105s-120 158 -120 265zM720 359c0 72 -25 130 -75 175c-51 44 -117 66 -198 66
s-147 -22 -197 -66c-51 -45 -76 -103 -76 -175s25 -130 76 -174c50 -45 116 -67 197 -67s147 22 198 67c50 44 75 102 75 174zM496 759h-126l117 151h199z" />
    <glyph glyph-name="Ocircumflex" unicode="&#xd4;" horiz-adv-x="894" 
d="M23 359c0 107 40 195 120 265s181 105 304 105c122 0 223 -35 304 -105c80 -70 120 -158 120 -265s-40 -195 -120 -265c-81 -70 -182 -105 -304 -105c-123 0 -224 35 -304 105s-120 158 -120 265zM720 359c0 72 -25 130 -75 175c-51 44 -117 66 -198 66
s-147 -22 -197 -66c-51 -45 -76 -103 -76 -175s25 -130 76 -174c50 -45 116 -67 197 -67s147 22 198 67c50 44 75 102 75 174zM369 910h156l144 -151h-116l-106 67l-106 -67h-116z" />
    <glyph glyph-name="Otilde" unicode="&#xd5;" horiz-adv-x="894" 
d="M23 359c0 107 40 195 120 265s181 105 304 105c122 0 223 -35 304 -105c80 -70 120 -158 120 -265s-40 -195 -120 -265c-81 -70 -182 -105 -304 -105c-123 0 -224 35 -304 105s-120 158 -120 265zM720 359c0 72 -25 130 -75 175c-51 44 -117 66 -198 66
s-147 -22 -197 -66c-51 -45 -76 -103 -76 -175s25 -130 76 -174c50 -45 116 -67 197 -67s147 22 198 67c50 44 75 102 75 174zM347 923c17 0 34 -2 51 -6c16 -4 37 -13 64 -26c19 -9 34 -15 44 -18c9 -3 18 -4 27 -4c11 0 20 4 27 13c7 8 12 22 16 41h93
c-3 -51 -15 -91 -37 -120s-51 -44 -86 -44c-17 0 -33 2 -50 7c-17 4 -38 12 -65 25c-19 10 -34 16 -43 19s-18 4 -27 4c-12 0 -21 -4 -28 -13s-12 -23 -15 -42h-93c2 51 14 91 36 120c21 29 50 44 86 44z" />
    <glyph glyph-name="Odieresis" unicode="&#xd6;" horiz-adv-x="894" 
d="M23 359c0 107 40 195 120 265s181 105 304 105c122 0 223 -35 304 -105c80 -70 120 -158 120 -265s-40 -195 -120 -265c-81 -70 -182 -105 -304 -105c-123 0 -224 35 -304 105s-120 158 -120 265zM720 359c0 72 -25 130 -75 175c-51 44 -117 66 -198 66
s-147 -22 -197 -66c-51 -45 -76 -103 -76 -175s25 -130 76 -174c50 -45 116 -67 197 -67s147 22 198 67c50 44 75 102 75 174zM392 759h-144v132h144v-132zM646 759h-144v132h144v-132z" />
    <glyph glyph-name="multiply" unicode="&#xd7;" horiz-adv-x="800" 
d="M78 116l239 238l-239 238l84 84l239 -238l237 236l83 -82l-237 -238l238 -238l-83 -84l-239 239l-238 -239z" />
    <glyph glyph-name="Oslash" unicode="&#xd8;" horiz-adv-x="893" 
d="M117 -29l-84 83l76 73c-28 33 -49 69 -64 108s-22 81 -22 124c0 107 40 195 120 265s181 105 304 105c47 0 93 -6 136 -17c43 -12 82 -29 118 -51l76 73l83 -82l-70 -67c27 -32 47 -67 61 -105c13 -39 20 -79 20 -121c0 -107 -40 -195 -120 -265
c-81 -70 -182 -105 -304 -105c-45 0 -89 5 -130 16c-42 11 -81 26 -117 47zM447 604c-83 0 -150 -22 -201 -67s-76 -104 -76 -178c0 -27 4 -53 12 -77c7 -25 19 -47 34 -68l381 356c-21 11 -45 20 -70 26c-25 5 -52 8 -80 8zM447 114c83 0 149 22 200 67s76 104 76 178
c0 25 -3 50 -10 73s-18 45 -31 65l-378 -353c21 -10 44 -17 68 -22s49 -8 75 -8z" />
    <glyph glyph-name="Ugrave" unicode="&#xd9;" horiz-adv-x="824" 
d="M412 -10c-119 0 -210 30 -273 91c-64 61 -96 147 -96 258v379h147v-371c0 -76 19 -133 56 -171s92 -57 166 -57c73 0 129 19 166 57s55 95 55 171v371h148v-379c0 -111 -32 -197 -95 -258c-64 -61 -155 -91 -274 -91zM389 910l117 -151h-126l-190 151h199z" />
    <glyph glyph-name="Uacute" unicode="&#xda;" horiz-adv-x="824" 
d="M412 -10c-119 0 -210 30 -273 91c-64 61 -96 147 -96 258v379h147v-371c0 -76 19 -133 56 -171s92 -57 166 -57c73 0 129 19 166 57s55 95 55 171v371h148v-379c0 -111 -32 -197 -95 -258c-64 -61 -155 -91 -274 -91zM455 759h-126l117 151h199z" />
    <glyph glyph-name="Ucircumflex" unicode="&#xdb;" horiz-adv-x="824" 
d="M412 -10c-119 0 -210 30 -273 91c-64 61 -96 147 -96 258v379h147v-371c0 -76 19 -133 56 -171s92 -57 166 -57c73 0 129 19 166 57s55 95 55 171v371h148v-379c0 -111 -32 -197 -95 -258c-64 -61 -155 -91 -274 -91zM334 910h156l144 -151h-116l-106 67l-106 -67h-116z
" />
    <glyph glyph-name="Udieresis" unicode="&#xdc;" horiz-adv-x="824" 
d="M412 -10c-119 0 -210 30 -273 91c-64 61 -96 147 -96 258v379h147v-371c0 -76 19 -133 56 -171s92 -57 166 -57c73 0 129 19 166 57s55 95 55 171v371h148v-379c0 -111 -32 -197 -95 -258c-64 -61 -155 -91 -274 -91zM357 759h-144v132h144v-132zM611 759h-144v132h144
v-132z" />
    <glyph glyph-name="Yacute" unicode="&#xdd;" horiz-adv-x="848" 
d="M169 718l257 -294l257 294h175l-360 -413v-305h-147v305l-361 413h179zM471 759h-126l117 151h199z" />
    <glyph glyph-name="Thorn" unicode="&#xde;" horiz-adv-x="801" 
d="M784 369c0 -71 -24 -127 -72 -167s-115 -60 -200 -60h-302v-142h-147v718h147v-122h302c85 0 152 -20 200 -59c48 -40 72 -96 72 -168zM504 473h-294v-208h294c43 0 76 9 100 28c23 18 35 43 35 76s-12 58 -35 77c-24 18 -57 27 -100 27z" />
    <glyph glyph-name="germandbls" unicode="&#xdf;" horiz-adv-x="731" 
d="M374 729c79 0 142 -17 190 -51c47 -34 71 -78 71 -132c0 -33 -9 -61 -26 -85c-17 -25 -42 -43 -74 -55c57 -13 100 -37 131 -70c30 -33 45 -75 45 -124c0 -65 -25 -119 -76 -160c-51 -42 -117 -63 -197 -63c-46 0 -88 8 -127 23s-72 36 -97 64l70 101
c23 -25 47 -43 72 -55c25 -13 52 -19 81 -19c41 0 75 10 101 31c25 21 38 47 38 80c0 38 -17 67 -50 87c-34 19 -84 29 -149 29h-106v118h97c42 0 75 7 98 22c23 14 35 34 35 60c0 27 -11 49 -34 64s-55 22 -96 22c-55 0 -97 -15 -128 -45s-46 -71 -46 -123v-448h-139v450
c0 81 29 148 87 201c57 52 134 78 229 78z" />
    <glyph glyph-name="agrave" unicode="&#xe0;" horiz-adv-x="663" 
d="M464 65c-25 -24 -57 -43 -96 -56s-80 -20 -125 -20c-67 0 -120 15 -160 44c-41 29 -61 69 -61 119c0 46 18 83 55 112c36 28 87 45 154 52l219 23v4c0 25 -11 44 -34 59c-23 14 -56 21 -97 21c-37 0 -71 -7 -100 -22s-49 -35 -58 -58l-121 41c16 45 50 82 103 110
s113 42 181 42c84 0 149 -17 194 -50c45 -34 67 -82 67 -145v-207c0 -17 6 -27 17 -32c5 -2 11 -3 19 -2c10 0 22 2 37 5v-105c-23 -5 -44 -7 -63 -7c-23 0 -44 3 -62 9c-33 11 -56 32 -69 63zM262 96c51 0 95 10 132 31c37 20 56 45 56 76v36l-198 -22
c-34 -4 -58 -11 -72 -20c-15 -9 -22 -23 -22 -41c0 -19 9 -34 27 -44c18 -11 44 -16 77 -16zM304 718l104 -145h-118l-166 145h180z" />
    <glyph glyph-name="aacute" unicode="&#xe1;" horiz-adv-x="663" 
d="M464 65c-25 -24 -57 -43 -96 -56s-80 -20 -125 -20c-67 0 -120 15 -160 44c-41 29 -61 69 -61 119c0 46 18 83 55 112c36 28 87 45 154 52l219 23v4c0 25 -11 44 -34 59c-23 14 -56 21 -97 21c-37 0 -71 -7 -100 -22s-49 -35 -58 -58l-121 41c16 45 50 82 103 110
s113 42 181 42c84 0 149 -17 194 -50c45 -34 67 -82 67 -145v-207c0 -17 6 -27 17 -32c5 -2 11 -3 19 -2c10 0 22 2 37 5v-105c-23 -5 -44 -7 -63 -7c-23 0 -44 3 -62 9c-33 11 -56 32 -69 63zM262 96c51 0 95 10 132 31c37 20 56 45 56 76v36l-198 -22
c-34 -4 -58 -11 -72 -20c-15 -9 -22 -23 -22 -41c0 -19 9 -34 27 -44c18 -11 44 -16 77 -16zM373 573h-118l104 145h180z" />
    <glyph glyph-name="acircumflex" unicode="&#xe2;" horiz-adv-x="663" 
d="M464 65c-25 -24 -57 -43 -96 -56s-80 -20 -125 -20c-67 0 -120 15 -160 44c-41 29 -61 69 -61 119c0 46 18 83 55 112c36 28 87 45 154 52l219 23v4c0 25 -11 44 -34 59c-23 14 -56 21 -97 21c-37 0 -71 -7 -100 -22s-49 -35 -58 -58l-121 41c16 45 50 82 103 110
s113 42 181 42c84 0 149 -17 194 -50c45 -34 67 -82 67 -145v-207c0 -17 6 -27 17 -32c5 -2 11 -3 19 -2c10 0 22 2 37 5v-105c-23 -5 -44 -7 -63 -7c-23 0 -44 3 -62 9c-33 11 -56 32 -69 63zM262 96c51 0 95 10 132 31c37 20 56 45 56 76v36l-198 -22
c-34 -4 -58 -11 -72 -20c-15 -9 -22 -23 -22 -41c0 -19 9 -34 27 -44c18 -11 44 -16 77 -16zM250 718h142l129 -145h-109l-91 58l-91 -58h-109z" />
    <glyph glyph-name="atilde" unicode="&#xe3;" horiz-adv-x="663" 
d="M464 65c-25 -24 -57 -43 -96 -56s-80 -20 -125 -20c-67 0 -120 15 -160 44c-41 29 -61 69 -61 119c0 46 18 83 55 112c36 28 87 45 154 52l219 23v4c0 25 -11 44 -34 59c-23 14 -56 21 -97 21c-37 0 -71 -7 -100 -22s-49 -35 -58 -58l-121 41c16 45 50 82 103 110
s113 42 181 42c84 0 149 -17 194 -50c45 -34 67 -82 67 -145v-207c0 -17 6 -27 17 -32c5 -2 11 -3 19 -2c10 0 22 2 37 5v-105c-23 -5 -44 -7 -63 -7c-23 0 -44 3 -62 9c-33 11 -56 32 -69 63zM262 96c51 0 95 10 132 31c37 20 56 45 56 76v36l-198 -22
c-34 -4 -58 -11 -72 -20c-15 -9 -22 -23 -22 -41c0 -19 9 -34 27 -44c18 -11 44 -16 77 -16zM230 726c15 0 29 -2 43 -6s32 -12 54 -25c15 -8 26 -13 34 -16c7 -3 14 -4 21 -4c10 0 18 4 24 12s11 21 14 39h86c-2 -47 -13 -85 -32 -112s-45 -41 -77 -41c-15 0 -29 2 -43 6
s-32 12 -54 25c-15 9 -27 14 -34 17c-7 2 -14 3 -21 3c-10 0 -18 -4 -24 -12s-11 -21 -14 -39h-86c2 47 13 85 32 112s45 41 77 41z" />
    <glyph glyph-name="adieresis" unicode="&#xe4;" horiz-adv-x="663" 
d="M464 65c-25 -24 -57 -43 -96 -56s-80 -20 -125 -20c-67 0 -120 15 -160 44c-41 29 -61 69 -61 119c0 46 18 83 55 112c36 28 87 45 154 52l219 23v4c0 25 -11 44 -34 59c-23 14 -56 21 -97 21c-37 0 -71 -7 -100 -22s-49 -35 -58 -58l-121 41c16 45 50 82 103 110
s113 42 181 42c84 0 149 -17 194 -50c45 -34 67 -82 67 -145v-207c0 -17 6 -27 17 -32c5 -2 11 -3 19 -2c10 0 22 2 37 5v-105c-23 -5 -44 -7 -63 -7c-23 0 -44 3 -62 9c-33 11 -56 32 -69 63zM262 96c51 0 95 10 132 31c37 20 56 45 56 76v36l-198 -22
c-34 -4 -58 -11 -72 -20c-15 -9 -22 -23 -22 -41c0 -19 9 -34 27 -44c18 -11 44 -16 77 -16zM273 588h-144v130h144v-130zM519 588h-144v130h144v-130z" />
    <glyph glyph-name="aring" unicode="&#xe5;" horiz-adv-x="663" 
d="M464 65c-25 -24 -57 -43 -96 -56s-80 -20 -125 -20c-67 0 -120 15 -160 44c-41 29 -61 69 -61 119c0 46 18 83 55 112c36 28 87 45 154 52l219 23v4c0 25 -11 44 -34 59c-23 14 -56 21 -97 21c-37 0 -71 -7 -100 -22s-49 -35 -58 -58l-121 41c16 45 50 82 103 110
s113 42 181 42c84 0 149 -17 194 -50c45 -34 67 -82 67 -145v-207c0 -17 6 -27 17 -32c5 -2 11 -3 19 -2c10 0 22 2 37 5v-105c-23 -5 -44 -7 -63 -7c-23 0 -44 3 -62 9c-33 11 -56 32 -69 63zM262 96c51 0 95 10 132 31c37 20 56 45 56 76v36l-198 -22
c-34 -4 -58 -11 -72 -20c-15 -9 -22 -23 -22 -41c0 -19 9 -34 27 -44c18 -11 44 -16 77 -16zM321 561c-33 0 -60 11 -81 32c-22 21 -33 46 -33 77c0 30 11 56 33 77c21 21 48 31 81 31s60 -10 82 -31c21 -21 32 -47 32 -77c0 -31 -11 -56 -32 -77c-22 -21 -49 -32 -82 -32z
M321 715c-12 0 -22 -4 -31 -13s-13 -20 -13 -32c0 -13 4 -23 13 -32c8 -9 18 -13 31 -13s23 4 32 13c8 9 12 19 12 32c0 12 -4 23 -13 32s-19 13 -31 13z" />
    <glyph glyph-name="ae" unicode="&#xe6;" horiz-adv-x="1072" 
d="M22 152c0 51 21 92 63 121s100 44 175 44h190v26c0 25 -11 44 -34 59c-23 14 -56 21 -97 21c-37 0 -71 -7 -100 -22s-49 -35 -58 -58l-121 41c16 45 50 82 103 110s113 42 181 42c51 0 95 -6 132 -19s65 -33 86 -58c27 25 60 44 97 57s77 20 120 20c87 0 157 -25 210 -75
s80 -114 80 -193v-44h-465c9 -37 28 -67 59 -88c31 -22 69 -33 114 -33c39 0 73 9 102 26s49 40 62 70l119 -51c-19 -47 -54 -85 -105 -114c-52 -30 -111 -45 -176 -45c-54 0 -103 10 -147 29s-80 47 -108 82c-27 -37 -63 -64 -107 -83s-94 -28 -151 -28
c-68 0 -122 15 -163 44s-61 68 -61 119zM753 425c-41 0 -76 -10 -105 -29s-49 -46 -60 -79h325c-5 29 -23 55 -54 76s-66 32 -106 32zM158 158c0 -20 9 -35 28 -46c18 -11 43 -16 76 -16c51 0 96 10 133 30s55 46 55 77v21h-175c-39 0 -69 -5 -88 -16s-29 -28 -29 -50z" />
    <glyph glyph-name="ccedilla" unicode="&#xe7;" horiz-adv-x="618" 
d="M23 263c0 80 29 146 88 197s133 76 224 76c65 0 123 -16 174 -47s85 -72 103 -121l-117 -57c-11 32 -31 58 -60 79c-30 20 -64 30 -101 30c-52 0 -94 -14 -126 -43c-33 -29 -49 -67 -49 -114s16 -85 49 -114c32 -29 74 -44 126 -44c37 0 71 10 101 31c29 20 49 46 60 78
l116 -59c-17 -47 -50 -86 -98 -117c-49 -31 -105 -47 -168 -49l-3 -10c34 -1 61 -9 81 -23c20 -15 30 -33 30 -56c0 -27 -13 -48 -39 -64c-27 -16 -61 -24 -103 -24c-28 0 -54 3 -78 10c-24 6 -43 15 -58 26l43 64c12 -9 25 -16 40 -21c14 -5 30 -7 47 -7s31 2 40 6
s13 10 13 18c0 9 -7 16 -21 21c-15 4 -40 6 -75 7l17 57c-77 10 -138 40 -185 90c-47 49 -71 109 -71 180z" />
    <glyph glyph-name="egrave" unicode="&#xe8;" horiz-adv-x="647" 
d="M334 -11c-91 0 -166 26 -224 77s-87 116 -87 197c0 79 29 144 88 196c58 51 132 77 222 77c87 0 158 -25 211 -75s80 -114 80 -193v-44h-466c9 -37 29 -67 60 -88c31 -22 70 -33 116 -33c38 0 72 9 101 26s49 40 61 70l119 -51c-19 -47 -54 -85 -105 -114
c-52 -30 -111 -45 -176 -45zM328 424c-41 0 -76 -9 -105 -28s-49 -44 -60 -77h323c-5 29 -22 53 -52 74s-65 31 -106 31zM310 718l104 -145h-118l-166 145h180z" />
    <glyph glyph-name="eacute" unicode="&#xe9;" horiz-adv-x="647" 
d="M334 -11c-91 0 -166 26 -224 77s-87 116 -87 197c0 79 29 144 88 196c58 51 132 77 222 77c87 0 158 -25 211 -75s80 -114 80 -193v-44h-466c9 -37 29 -67 60 -88c31 -22 70 -33 116 -33c38 0 72 9 101 26s49 40 61 70l119 -51c-19 -47 -54 -85 -105 -114
c-52 -30 -111 -45 -176 -45zM328 424c-41 0 -76 -9 -105 -28s-49 -44 -60 -77h323c-5 29 -22 53 -52 74s-65 31 -106 31zM383 573h-118l104 145h180z" />
    <glyph glyph-name="ecircumflex" unicode="&#xea;" horiz-adv-x="647" 
d="M334 -11c-91 0 -166 26 -224 77s-87 116 -87 197c0 79 29 144 88 196c58 51 132 77 222 77c87 0 158 -25 211 -75s80 -114 80 -193v-44h-466c9 -37 29 -67 60 -88c31 -22 70 -33 116 -33c38 0 72 9 101 26s49 40 61 70l119 -51c-19 -47 -54 -85 -105 -114
c-52 -30 -111 -45 -176 -45zM328 424c-41 0 -76 -9 -105 -28s-49 -44 -60 -77h323c-5 29 -22 53 -52 74s-65 31 -106 31zM259 718h142l129 -145h-109l-91 58l-91 -58h-109z" />
    <glyph glyph-name="edieresis" unicode="&#xeb;" horiz-adv-x="647" 
d="M334 -11c-91 0 -166 26 -224 77s-87 116 -87 197c0 79 29 144 88 196c58 51 132 77 222 77c87 0 158 -25 211 -75s80 -114 80 -193v-44h-466c9 -37 29 -67 60 -88c31 -22 70 -33 116 -33c38 0 72 9 101 26s49 40 61 70l119 -51c-19 -47 -54 -85 -105 -114
c-52 -30 -111 -45 -176 -45zM328 424c-41 0 -76 -9 -105 -28s-49 -44 -60 -77h323c-5 29 -22 53 -52 74s-65 31 -106 31zM276 588h-144v130h144v-130zM522 588h-144v130h144v-130z" />
    <glyph glyph-name="igrave" unicode="&#xec;" horiz-adv-x="247" 
d="M54 526h140v-526h-140v526zM84 718l104 -145h-118l-166 145h180z" />
    <glyph glyph-name="iacute" unicode="&#xed;" horiz-adv-x="247" 
d="M54 526h140v-526h-140v526zM179 573h-118l104 145h180z" />
    <glyph glyph-name="icircumflex" unicode="&#xee;" horiz-adv-x="247" 
d="M54 526h140v-526h-140v526zM53 718h142l129 -145h-109l-91 58l-91 -58h-109z" />
    <glyph glyph-name="idieresis" unicode="&#xef;" horiz-adv-x="247" 
d="M54 526h140v-526h-140v526zM73 588h-144v130h144v-130zM319 588h-144v130h144v-130z" />
    <glyph glyph-name="eth" unicode="&#xf0;" horiz-adv-x="660" 
d="M312 528c26 0 50 -2 73 -7c22 -5 40 -11 54 -19c-9 13 -21 27 -35 41c-14 13 -30 27 -48 40l-231 -55v96l123 29c-18 10 -35 19 -51 27c-17 8 -32 15 -47 22l151 26c16 -7 31 -14 45 -21s27 -15 39 -22l181 43v-96l-82 -19c50 -45 88 -95 114 -150
c26 -56 39 -115 39 -177c0 -89 -28 -161 -85 -215c-57 -55 -130 -82 -221 -82c-89 0 -162 26 -220 77c-59 51 -88 117 -88 196c0 77 28 140 84 191c55 50 124 75 205 75zM331 419c-51 0 -92 -14 -124 -43s-48 -66 -48 -113s16 -85 48 -114s73 -43 124 -43c50 0 91 14 123 43
s48 67 48 114s-16 84 -48 113s-73 43 -123 43z" />
    <glyph glyph-name="ntilde" unicode="&#xf1;" horiz-adv-x="665" 
d="M194 0h-140v526h140v-66c21 24 49 43 82 56s70 20 110 20c70 0 126 -22 167 -66s62 -103 62 -177v-293h-140v260c0 47 -12 84 -35 111c-24 26 -57 39 -100 39c-46 0 -82 -13 -107 -40c-26 -27 -39 -64 -39 -112v-258zM251 726c15 0 29 -2 43 -6s32 -12 54 -25
c15 -8 26 -13 34 -16c7 -3 14 -4 21 -4c10 0 18 4 24 12s11 21 14 39h86c-2 -47 -13 -85 -32 -112s-45 -41 -77 -41c-15 0 -29 2 -43 6s-32 12 -54 25c-15 9 -27 14 -34 17c-7 2 -14 3 -21 3c-10 0 -18 -4 -24 -12s-11 -21 -14 -39h-86c2 47 13 85 32 112s45 41 77 41z" />
    <glyph glyph-name="ograve" unicode="&#xf2;" horiz-adv-x="661" 
d="M331 536c88 0 161 -26 219 -77s87 -117 87 -196c0 -80 -29 -146 -87 -197s-131 -77 -219 -77c-89 0 -162 26 -220 77c-59 51 -88 117 -88 197c0 79 29 145 88 196c58 51 131 77 220 77zM331 419c-51 0 -92 -14 -124 -43s-48 -66 -48 -113s16 -85 48 -114s73 -43 124 -43
c50 0 91 14 123 43s48 67 48 114s-16 84 -48 113s-73 43 -123 43zM300 719l104 -145h-118l-166 145h180z" />
    <glyph glyph-name="oacute" unicode="&#xf3;" horiz-adv-x="661" 
d="M331 536c88 0 161 -26 219 -77s87 -117 87 -196c0 -80 -29 -146 -87 -197s-131 -77 -219 -77c-89 0 -162 26 -220 77c-59 51 -88 117 -88 197c0 79 29 145 88 196c58 51 131 77 220 77zM331 419c-51 0 -92 -14 -124 -43s-48 -66 -48 -113s16 -85 48 -114s73 -43 124 -43
c50 0 91 14 123 43s48 67 48 114s-16 84 -48 113s-73 43 -123 43zM381 573h-118l104 145h180z" />
    <glyph glyph-name="ocircumflex" unicode="&#xf4;" horiz-adv-x="661" 
d="M331 536c88 0 161 -26 219 -77s87 -117 87 -196c0 -80 -29 -146 -87 -197s-131 -77 -219 -77c-89 0 -162 26 -220 77c-59 51 -88 117 -88 197c0 79 29 145 88 196c58 51 131 77 220 77zM331 419c-51 0 -92 -14 -124 -43s-48 -66 -48 -113s16 -85 48 -114s73 -43 124 -43
c50 0 91 14 123 43s48 67 48 114s-16 84 -48 113s-73 43 -123 43zM259 718h142l129 -145h-109l-91 58l-91 -58h-109z" />
    <glyph glyph-name="otilde" unicode="&#xf5;" horiz-adv-x="661" 
d="M331 536c88 0 161 -26 219 -77s87 -117 87 -196c0 -80 -29 -146 -87 -197s-131 -77 -219 -77c-89 0 -162 26 -220 77c-59 51 -88 117 -88 197c0 79 29 145 88 196c58 51 131 77 220 77zM331 419c-51 0 -92 -14 -124 -43s-48 -66 -48 -113s16 -85 48 -114s73 -43 124 -43
c50 0 91 14 123 43s48 67 48 114s-16 84 -48 113s-73 43 -123 43zM247 726c15 0 29 -2 43 -6s32 -12 54 -25c15 -8 26 -13 34 -16c7 -3 14 -4 21 -4c10 0 18 4 24 12s11 21 14 39h86c-2 -47 -13 -85 -32 -112s-45 -41 -77 -41c-15 0 -29 2 -43 6s-32 12 -54 25
c-15 9 -27 14 -34 17c-7 2 -14 3 -21 3c-10 0 -18 -4 -24 -12s-11 -21 -14 -39h-86c2 47 13 85 32 112s45 41 77 41z" />
    <glyph glyph-name="odieresis" unicode="&#xf6;" horiz-adv-x="661" 
d="M331 536c88 0 161 -26 219 -77s87 -117 87 -196c0 -80 -29 -146 -87 -197s-131 -77 -219 -77c-89 0 -162 26 -220 77c-59 51 -88 117 -88 197c0 79 29 145 88 196c58 51 131 77 220 77zM331 419c-51 0 -92 -14 -124 -43s-48 -66 -48 -113s16 -85 48 -114s73 -43 124 -43
c50 0 91 14 123 43s48 67 48 114s-16 84 -48 113s-73 43 -123 43zM279 588h-144v130h144v-130zM525 588h-144v130h144v-130z" />
    <glyph glyph-name="divide" unicode="&#xf7;" horiz-adv-x="800" 
d="M474 515h-150v145h150v-145zM740 294h-680v120h680v-120zM474 48h-150v145h150v-145z" />
    <glyph glyph-name="oslash" unicode="&#xf8;" horiz-adv-x="661" 
d="M24 263c0 80 29 146 87 197s131 76 220 76c32 0 63 -4 92 -11s55 -18 79 -32l62 62l69 -67l-56 -56c19 -23 34 -49 45 -78c10 -29 15 -59 15 -91c0 -80 -29 -146 -87 -197s-131 -77 -219 -77c-32 0 -62 4 -91 11s-56 18 -81 32l-61 -61l-70 66l56 57
c-19 23 -34 48 -44 77c-11 29 -16 59 -16 92zM331 426c-52 0 -94 -15 -127 -45s-50 -69 -50 -118c0 -17 2 -32 6 -47s10 -29 18 -42l235 235c-12 5 -25 10 -39 13s-28 4 -43 4zM331 100c52 0 94 15 127 45c33 29 49 69 49 118c0 16 -2 31 -6 46s-10 28 -18 41l-235 -234
c12 -5 25 -9 39 -12s29 -4 44 -4z" />
    <glyph glyph-name="ugrave" unicode="&#xf9;" horiz-adv-x="660" 
d="M467 526h140v-526h-140v66c-22 -25 -49 -44 -81 -57c-33 -13 -69 -20 -108 -20c-69 0 -125 22 -166 65s-62 101 -62 174v298h140v-274c0 -46 11 -81 34 -104c22 -24 55 -36 98 -36c46 0 82 13 107 39s38 63 38 110v265zM300 718l104 -145h-118l-166 145h180z" />
    <glyph glyph-name="uacute" unicode="&#xfa;" horiz-adv-x="660" 
d="M467 526h140v-526h-140v66c-22 -25 -49 -44 -81 -57c-33 -13 -69 -20 -108 -20c-69 0 -125 22 -166 65s-62 101 -62 174v298h140v-274c0 -46 11 -81 34 -104c22 -24 55 -36 98 -36c46 0 82 13 107 39s38 63 38 110v265zM377 573h-118l104 145h180z" />
    <glyph glyph-name="ucircumflex" unicode="&#xfb;" horiz-adv-x="660" 
d="M467 526h140v-526h-140v66c-22 -25 -49 -44 -81 -57c-33 -13 -69 -20 -108 -20c-69 0 -125 22 -166 65s-62 101 -62 174v298h140v-274c0 -46 11 -81 34 -104c22 -24 55 -36 98 -36c46 0 82 13 107 39s38 63 38 110v265zM257 718h142l129 -145h-109l-91 58l-91 -58h-109z
" />
    <glyph glyph-name="udieresis" unicode="&#xfc;" horiz-adv-x="660" 
d="M467 526h140v-526h-140v66c-22 -25 -49 -44 -81 -57c-33 -13 -69 -20 -108 -20c-69 0 -125 22 -166 65s-62 101 -62 174v298h140v-274c0 -46 11 -81 34 -104c22 -24 55 -36 98 -36c46 0 82 13 107 39s38 63 38 110v265zM277 588h-144v130h144v-130zM523 588h-144v130h144
v-130z" />
    <glyph glyph-name="yacute" unicode="&#xfd;" horiz-adv-x="658" 
d="M660 526l-275 -563c-26 -54 -56 -92 -91 -115s-80 -35 -136 -35c-19 0 -40 2 -62 7c-23 4 -40 9 -52 15l25 114c14 -7 27 -12 40 -15c12 -3 24 -5 37 -5c28 0 51 6 68 17s29 28 38 51l5 16l-259 513h156l180 -375l176 375h150zM377 573h-118l104 145h180z" />
    <glyph glyph-name="thorn" unicode="&#xfe;" horiz-adv-x="701" 
d="M677 263c0 -80 -26 -146 -79 -197s-122 -77 -207 -77c-41 0 -79 7 -114 20s-62 31 -83 54v-241h-140v896h140v-256c21 23 48 41 83 54s73 20 114 20c85 0 154 -26 207 -77s79 -117 79 -196zM366 422c-51 0 -93 -15 -127 -44c-34 -30 -51 -67 -51 -112v-7
c0 -44 17 -81 52 -111c34 -30 76 -45 126 -45c51 0 94 15 127 44s50 68 50 116c0 47 -17 86 -50 115s-76 44 -127 44z" />
    <glyph glyph-name="ydieresis" unicode="&#xff;" horiz-adv-x="658" 
d="M660 526l-275 -563c-26 -54 -56 -92 -91 -115s-80 -35 -136 -35c-19 0 -40 2 -62 7c-23 4 -40 9 -52 15l25 114c14 -7 27 -12 40 -15c12 -3 24 -5 37 -5c28 0 51 6 68 17s29 28 38 51l5 16l-259 513h156l180 -375l176 375h150zM278 588h-144v130h144v-130zM524 588h-144
v130h144v-130z" />
    <glyph glyph-name="Amacron" unicode="&#x100;" horiz-adv-x="876" 
d="M-7 0l362 718h165l362 -718h-159l-83 167h-406l-84 -167h-157zM577 292l-140 281l-141 -281h281zM633 876v-109h-392v109h392z" />
    <glyph glyph-name="amacron" unicode="&#x101;" horiz-adv-x="663" 
d="M464 65c-25 -24 -57 -43 -96 -56s-80 -20 -125 -20c-67 0 -120 15 -160 44c-41 29 -61 69 -61 119c0 46 18 83 55 112c36 28 87 45 154 52l219 23v4c0 25 -11 44 -34 59c-23 14 -56 21 -97 21c-37 0 -71 -7 -100 -22s-49 -35 -58 -58l-121 41c16 45 50 82 103 110
s113 42 181 42c84 0 149 -17 194 -50c45 -34 67 -82 67 -145v-207c0 -17 6 -27 17 -32c5 -2 11 -3 19 -2c10 0 22 2 37 5v-105c-23 -5 -44 -7 -63 -7c-23 0 -44 3 -62 9c-33 11 -56 32 -69 63zM262 96c51 0 95 10 132 31c37 20 56 45 56 76v36l-198 -22
c-34 -4 -58 -11 -72 -20c-15 -9 -22 -23 -22 -41c0 -19 9 -34 27 -44c18 -11 44 -16 77 -16zM500 696v-106h-366v106h366z" />
    <glyph glyph-name="Abreve" unicode="&#x102;" horiz-adv-x="876" 
d="M-7 0l362 718h165l362 -718h-159l-83 167h-406l-84 -167h-157zM577 292l-140 281l-141 -281h281zM437 849c28 0 51 6 70 17c18 11 27 26 27 44h103c0 -47 -18 -84 -54 -112c-36 -29 -85 -43 -146 -43s-110 14 -146 43c-36 28 -54 65 -54 112h103c0 -18 9 -33 28 -44
c18 -11 41 -17 69 -17z" />
    <glyph glyph-name="abreve" unicode="&#x103;" horiz-adv-x="663" 
d="M464 65c-25 -24 -57 -43 -96 -56s-80 -20 -125 -20c-67 0 -120 15 -160 44c-41 29 -61 69 -61 119c0 46 18 83 55 112c36 28 87 45 154 52l219 23v4c0 25 -11 44 -34 59c-23 14 -56 21 -97 21c-37 0 -71 -7 -100 -22s-49 -35 -58 -58l-121 41c16 45 50 82 103 110
s113 42 181 42c84 0 149 -17 194 -50c45 -34 67 -82 67 -145v-207c0 -17 6 -27 17 -32c5 -2 11 -3 19 -2c10 0 22 2 37 5v-105c-23 -5 -44 -7 -63 -7c-23 0 -44 3 -62 9c-33 11 -56 32 -69 63zM262 96c51 0 95 10 132 31c37 20 56 45 56 76v36l-198 -22
c-34 -4 -58 -11 -72 -20c-15 -9 -22 -23 -22 -41c0 -19 9 -34 27 -44c18 -11 44 -16 77 -16zM331 662c28 0 50 5 65 15c15 9 24 23 26 41h96c-1 -47 -17 -83 -50 -109s-78 -39 -137 -39s-104 13 -137 39s-49 62 -50 109h96c2 -18 11 -32 26 -41c15 -10 37 -15 65 -15z" />
    <glyph glyph-name="Aogonek" unicode="&#x104;" horiz-adv-x="876" 
d="M733 -184c-39 0 -70 8 -94 25c-25 16 -37 37 -37 64c0 25 9 48 28 69c18 21 44 39 79 54l-69 139h-406l-84 -167h-157l362 718h165l362 -718h-74c-39 -12 -67 -23 -84 -34c-18 -11 -27 -22 -27 -35c0 -9 6 -17 17 -22c11 -6 25 -9 44 -9c9 0 17 1 26 2c8 1 16 2 24 4v-82
c-15 -3 -29 -5 -41 -6c-13 -1 -24 -2 -34 -2zM577 292l-140 281l-141 -281h281z" />
    <glyph glyph-name="aogonek" unicode="&#x105;" horiz-adv-x="663" 
d="M464 65c-25 -24 -57 -43 -96 -56s-80 -20 -125 -20c-67 0 -120 15 -160 44c-41 29 -61 69 -61 119c0 46 18 83 55 112c36 28 87 45 154 52l219 23v4c0 25 -11 44 -34 59c-23 14 -56 21 -97 21c-37 0 -71 -7 -100 -22s-49 -35 -58 -58l-121 41c16 45 50 82 103 110
s113 42 181 42c84 0 149 -17 194 -50c45 -34 67 -82 67 -145v-207c0 -17 6 -27 17 -32c5 -2 11 -3 19 -2c10 0 22 2 37 5v-105c-39 -12 -67 -23 -84 -34c-18 -11 -27 -22 -27 -35c0 -9 6 -17 17 -22c11 -6 25 -9 44 -9c9 0 17 1 26 2c8 1 16 2 24 4v-82
c-15 -3 -29 -5 -41 -6c-13 -1 -24 -2 -34 -2c-39 0 -70 8 -94 25c-25 16 -37 37 -37 64c0 19 6 38 18 56c11 17 28 33 50 47c-13 5 -24 13 -33 23c-10 9 -18 21 -23 34zM262 96c51 0 95 10 132 31c37 20 56 45 56 76v36l-198 -22c-34 -4 -58 -11 -72 -20
c-15 -9 -22 -23 -22 -41c0 -19 9 -34 27 -44c18 -11 44 -16 77 -16z" />
    <glyph glyph-name="Cacute" unicode="&#x106;" horiz-adv-x="835" 
d="M448 600c-80 0 -146 -22 -197 -67c-52 -45 -78 -103 -78 -174s26 -128 78 -173c51 -45 117 -68 197 -68c61 0 114 14 157 42c43 27 75 67 96 119l127 -64c-28 -71 -75 -127 -142 -166c-67 -40 -146 -60 -239 -60c-122 0 -223 35 -303 106c-81 70 -121 158 -121 264
s40 194 121 265c80 70 181 105 303 105c93 0 172 -20 239 -59c67 -40 114 -96 142 -167l-127 -64c-21 52 -53 92 -96 120c-43 27 -96 41 -157 41zM500 759h-126l117 151h199z" />
    <glyph glyph-name="cacute" unicode="&#x107;" horiz-adv-x="618" 
d="M334 420c-52 0 -94 -14 -126 -43c-33 -29 -49 -67 -49 -114s16 -85 49 -114c32 -29 74 -44 126 -44c37 0 71 10 101 31c29 20 49 46 60 78l116 -59c-18 -49 -52 -88 -102 -119c-51 -31 -109 -47 -174 -47c-91 0 -165 26 -224 77s-88 117 -88 197s29 146 88 197
s133 76 224 76c65 0 123 -16 174 -47s85 -72 103 -121l-117 -57c-11 32 -31 58 -60 79c-30 20 -64 30 -101 30zM378 573h-118l104 145h180z" />
    <glyph glyph-name="Ccircumflex" unicode="&#x108;" horiz-adv-x="835" 
d="M448 600c-80 0 -146 -22 -197 -67c-52 -45 -78 -103 -78 -174s26 -128 78 -173c51 -45 117 -68 197 -68c61 0 114 14 157 42c43 27 75 67 96 119l127 -64c-28 -71 -75 -127 -142 -166c-67 -40 -146 -60 -239 -60c-122 0 -223 35 -303 106c-81 70 -121 158 -121 264
s40 194 121 265c80 70 181 105 303 105c93 0 172 -20 239 -59c67 -40 114 -96 142 -167l-127 -64c-21 52 -53 92 -96 120c-43 27 -96 41 -157 41zM367 910h156l144 -151h-116l-106 67l-106 -67h-116z" />
    <glyph glyph-name="ccircumflex" unicode="&#x109;" horiz-adv-x="618" 
d="M334 420c-52 0 -94 -14 -126 -43c-33 -29 -49 -67 -49 -114s16 -85 49 -114c32 -29 74 -44 126 -44c37 0 71 10 101 31c29 20 49 46 60 78l116 -59c-18 -49 -52 -88 -102 -119c-51 -31 -109 -47 -174 -47c-91 0 -165 26 -224 77s-88 117 -88 197s29 146 88 197
s133 76 224 76c65 0 123 -16 174 -47s85 -72 103 -121l-117 -57c-11 32 -31 58 -60 79c-30 20 -64 30 -101 30zM259 718h142l129 -145h-109l-91 58l-91 -58h-109z" />
    <glyph glyph-name="Cdotaccent" unicode="&#x10a;" horiz-adv-x="835" 
d="M448 600c-80 0 -146 -22 -197 -67c-52 -45 -78 -103 -78 -174s26 -128 78 -173c51 -45 117 -68 197 -68c61 0 114 14 157 42c43 27 75 67 96 119l127 -64c-28 -71 -75 -127 -142 -166c-67 -40 -146 -60 -239 -60c-122 0 -223 35 -303 106c-81 70 -121 158 -121 264
s40 194 121 265c80 70 181 105 303 105c93 0 172 -20 239 -59c67 -40 114 -96 142 -167l-127 -64c-21 52 -53 92 -96 120c-43 27 -96 41 -157 41zM515 759h-150v132h150v-132z" />
    <glyph glyph-name="cdotaccent" unicode="&#x10b;" horiz-adv-x="618" 
d="M334 420c-52 0 -94 -14 -126 -43c-33 -29 -49 -67 -49 -114s16 -85 49 -114c32 -29 74 -44 126 -44c37 0 71 10 101 31c29 20 49 46 60 78l116 -59c-18 -49 -52 -88 -102 -119c-51 -31 -109 -47 -174 -47c-91 0 -165 26 -224 77s-88 117 -88 197s29 146 88 197
s133 76 224 76c65 0 123 -16 174 -47s85 -72 103 -121l-117 -57c-11 32 -31 58 -60 79c-30 20 -64 30 -101 30zM401 588h-144v130h144v-130z" />
    <glyph glyph-name="Ccaron" unicode="&#x10c;" horiz-adv-x="835" 
d="M448 600c-80 0 -146 -22 -197 -67c-52 -45 -78 -103 -78 -174s26 -128 78 -173c51 -45 117 -68 197 -68c61 0 114 14 157 42c43 27 75 67 96 119l127 -64c-28 -71 -75 -127 -142 -166c-67 -40 -146 -60 -239 -60c-122 0 -223 35 -303 106c-81 70 -121 158 -121 264
s40 194 121 265c80 70 181 105 303 105c93 0 172 -20 239 -59c67 -40 114 -96 142 -167l-127 -64c-21 52 -53 92 -96 120c-43 27 -96 41 -157 41zM668 910l-144 -151h-156l-144 151h116l106 -67l106 67h116z" />
    <glyph glyph-name="ccaron" unicode="&#x10d;" horiz-adv-x="618" 
d="M334 420c-52 0 -94 -14 -126 -43c-33 -29 -49 -67 -49 -114s16 -85 49 -114c32 -29 74 -44 126 -44c37 0 71 10 101 31c29 20 49 46 60 78l116 -59c-18 -49 -52 -88 -102 -119c-51 -31 -109 -47 -174 -47c-91 0 -165 26 -224 77s-88 117 -88 197s29 146 88 197
s133 76 224 76c65 0 123 -16 174 -47s85 -72 103 -121l-117 -57c-11 32 -31 58 -60 79c-30 20 -64 30 -101 30zM532 718l-129 -145h-142l-129 145h109l91 -58l91 58h109z" />
    <glyph glyph-name="Dcaron" unicode="&#x10e;" horiz-adv-x="863" 
d="M430 0h-367v718h367c126 0 226 -32 300 -97s111 -152 111 -262s-37 -197 -111 -262s-174 -97 -300 -97zM207 592v-466h223c81 0 144 21 191 63c47 41 70 98 70 170s-23 129 -70 171c-47 41 -110 62 -191 62h-223zM619 910l-144 -151h-156l-144 151h116l106 -67l106 67
h116z" />
    <glyph glyph-name="dcaron" unicode="&#x10f;" horiz-adv-x="701" 
d="M310 -11c-85 0 -154 26 -207 77s-79 117 -79 197c0 79 26 145 79 196s122 77 207 77c41 0 79 -7 114 -20s62 -31 83 -54v256h140v-718h-140v63c-21 -23 -48 -41 -83 -54s-73 -20 -114 -20zM513 259v7c0 45 -17 82 -51 112c-34 29 -76 44 -127 44s-94 -15 -127 -44
s-50 -68 -50 -115c0 -48 17 -87 50 -116s76 -44 127 -44c50 0 92 15 127 45c34 30 51 67 51 111zM788 552h-95l25 166h153z" />
    <glyph glyph-name="Dcroat" unicode="&#x110;" horiz-adv-x="903" 
d="M470 0h-367v305h-98v125h98v288h367c126 0 226 -32 300 -97s111 -152 111 -262s-37 -197 -111 -262s-174 -97 -300 -97zM247 305v-179h223c81 0 144 21 191 63c47 41 70 98 70 170s-23 129 -70 171c-47 41 -110 62 -191 62h-223v-162h164v-125h-164z" />
    <glyph glyph-name="dcroat" unicode="&#x111;" horiz-adv-x="737" 
d="M310 -11c-85 0 -154 26 -207 77s-79 117 -79 197c0 79 26 145 79 196s122 77 207 77c41 0 79 -7 114 -20s62 -31 83 -54v102h-151v102h151v52h140v-52h72v-102h-72v-564h-140v63c-21 -23 -48 -41 -83 -54s-73 -20 -114 -20zM513 259v7c0 45 -17 82 -51 112
c-34 29 -76 44 -127 44s-94 -15 -127 -44s-50 -68 -50 -115c0 -48 17 -87 50 -116s76 -44 127 -44c50 0 92 15 127 45c34 30 51 67 51 111z" />
    <glyph glyph-name="Emacron" unicode="&#x112;" horiz-adv-x="789" 
d="M63 0v718h695v-127h-550v-160h493v-126h-493v-178h550v-127h-695zM604 876v-109h-392v109h392z" />
    <glyph glyph-name="emacron" unicode="&#x113;" horiz-adv-x="647" 
d="M334 -11c-91 0 -166 26 -224 77s-87 116 -87 197c0 79 29 144 88 196c58 51 132 77 222 77c87 0 158 -25 211 -75s80 -114 80 -193v-44h-466c9 -37 29 -67 60 -88c31 -22 70 -33 116 -33c38 0 72 9 101 26s49 40 61 70l119 -51c-19 -47 -54 -85 -105 -114
c-52 -30 -111 -45 -176 -45zM328 424c-41 0 -76 -9 -105 -28s-49 -44 -60 -77h323c-5 29 -22 53 -52 74s-65 31 -106 31zM510 696v-106h-366v106h366z" />
    <glyph glyph-name="Ebreve" unicode="&#x114;" horiz-adv-x="789" 
d="M63 0v718h695v-127h-550v-160h493v-126h-493v-178h550v-127h-695zM408 849c28 0 51 6 70 17c18 11 27 26 27 44h103c0 -47 -18 -84 -54 -112c-36 -29 -85 -43 -146 -43s-110 14 -146 43c-36 28 -54 65 -54 112h103c0 -18 9 -33 28 -44c18 -11 41 -17 69 -17z" />
    <glyph glyph-name="ebreve" unicode="&#x115;" horiz-adv-x="647" 
d="M334 -11c-91 0 -166 26 -224 77s-87 116 -87 197c0 79 29 144 88 196c58 51 132 77 222 77c87 0 158 -25 211 -75s80 -114 80 -193v-44h-466c9 -37 29 -67 60 -88c31 -22 70 -33 116 -33c38 0 72 9 101 26s49 40 61 70l119 -51c-19 -47 -54 -85 -105 -114
c-52 -30 -111 -45 -176 -45zM328 424c-41 0 -76 -9 -105 -28s-49 -44 -60 -77h323c-5 29 -22 53 -52 74s-65 31 -106 31zM330 662c28 0 50 5 65 15c15 9 24 23 26 41h96c-1 -47 -17 -83 -50 -109s-78 -39 -137 -39s-104 13 -137 39s-49 62 -50 109h96c2 -18 11 -32 26 -41
c15 -10 37 -15 65 -15z" />
    <glyph glyph-name="Edotaccent" unicode="&#x116;" horiz-adv-x="789" 
d="M63 0v718h695v-127h-550v-160h493v-126h-493v-178h550v-127h-695zM483 759h-150v132h150v-132z" />
    <glyph glyph-name="edotaccent" unicode="&#x117;" horiz-adv-x="647" 
d="M334 -11c-91 0 -166 26 -224 77s-87 116 -87 197c0 79 29 144 88 196c58 51 132 77 222 77c87 0 158 -25 211 -75s80 -114 80 -193v-44h-466c9 -37 29 -67 60 -88c31 -22 70 -33 116 -33c38 0 72 9 101 26s49 40 61 70l119 -51c-19 -47 -54 -85 -105 -114
c-52 -30 -111 -45 -176 -45zM328 424c-41 0 -76 -9 -105 -28s-49 -44 -60 -77h323c-5 29 -22 53 -52 74s-65 31 -106 31zM397 588h-144v130h144v-130z" />
    <glyph glyph-name="Eogonek" unicode="&#x118;" horiz-adv-x="789" 
d="M609 -184c-39 0 -70 8 -94 25c-25 16 -37 37 -37 64c0 18 5 35 15 52c9 16 23 30 42 43h-472v718h695v-127h-550v-160h493v-126h-493v-178h550v-127h-74c-39 -12 -67 -23 -84 -34c-18 -11 -27 -22 -27 -35c0 -9 6 -17 17 -22c11 -6 25 -9 44 -9c9 0 17 1 26 2
c8 1 16 2 24 4v-82c-15 -3 -29 -5 -41 -6c-13 -1 -24 -2 -34 -2z" />
    <glyph glyph-name="eogonek" unicode="&#x119;" horiz-adv-x="647" 
d="M468 13c-27 -11 -48 -22 -61 -33s-20 -24 -20 -38c0 -13 6 -23 17 -30c11 -8 27 -12 46 -12c9 0 17 1 26 2c8 1 16 2 23 4v-82c-15 -3 -29 -5 -41 -6s-23 -2 -33 -2c-39 0 -70 9 -94 27c-25 18 -37 42 -37 72c0 14 3 27 8 40c5 12 12 23 21 34c-89 2 -161 28 -216 79
c-56 51 -84 116 -84 195s29 144 88 196c58 51 132 77 222 77c87 0 158 -25 211 -75s80 -114 80 -193v-44h-466c9 -37 29 -67 60 -88c31 -22 69 -33 114 -33c39 0 73 9 102 26s49 40 62 70l119 -51c-12 -29 -31 -55 -56 -78c-25 -24 -56 -43 -91 -57zM328 424
c-40 0 -75 -9 -104 -28c-30 -19 -50 -44 -61 -77h323c-5 28 -22 53 -52 74c-31 21 -66 31 -106 31z" />
    <glyph glyph-name="Ecaron" unicode="&#x11a;" horiz-adv-x="789" 
d="M63 0v718h695v-127h-550v-160h493v-126h-493v-178h550v-127h-695zM630 910l-144 -151h-156l-144 151h116l106 -67l106 67h116z" />
    <glyph glyph-name="ecaron" unicode="&#x11b;" horiz-adv-x="647" 
d="M334 -11c-91 0 -166 26 -224 77s-87 116 -87 197c0 79 29 144 88 196c58 51 132 77 222 77c87 0 158 -25 211 -75s80 -114 80 -193v-44h-466c9 -37 29 -67 60 -88c31 -22 70 -33 116 -33c38 0 72 9 101 26s49 40 61 70l119 -51c-19 -47 -54 -85 -105 -114
c-52 -30 -111 -45 -176 -45zM328 424c-41 0 -76 -9 -105 -28s-49 -44 -60 -77h323c-5 29 -22 53 -52 74s-65 31 -106 31zM530 718l-129 -145h-142l-129 145h109l91 -58l91 58h109z" />
    <glyph glyph-name="Gcircumflex" unicode="&#x11c;" horiz-adv-x="897" 
d="M851 0h-138v84c-22 -28 -57 -51 -105 -68c-49 -18 -101 -27 -158 -27c-124 0 -226 35 -306 105c-81 70 -121 159 -121 267c0 107 41 195 123 264c81 69 185 104 310 104c93 0 174 -19 241 -58s115 -94 143 -164l-129 -62c-21 50 -54 88 -97 115c-44 27 -97 40 -159 40
c-83 0 -150 -22 -202 -67c-53 -45 -79 -103 -79 -174s26 -129 78 -174c51 -45 118 -68 199 -68c69 0 129 15 180 44s78 65 83 108h-323v124h460v-393zM379 910h156l144 -151h-116l-106 67l-106 -67h-116z" />
    <glyph glyph-name="gcircumflex" unicode="&#x11d;" horiz-adv-x="696" 
d="M642 526v-452c0 -79 -30 -142 -89 -190c-60 -49 -138 -73 -234 -73c-71 0 -133 12 -185 37c-53 24 -90 58 -111 101l111 68c13 -30 36 -53 69 -70s71 -26 114 -26c55 0 99 13 134 38c34 25 51 59 51 102v20c-23 -23 -51 -41 -84 -54c-34 -13 -71 -19 -112 -19
c-85 0 -154 25 -207 75c-53 49 -79 113 -79 190c0 76 27 139 80 189c53 49 121 74 206 74c41 0 78 -6 112 -18c33 -13 61 -30 84 -53v61h140zM509 271v4c0 43 -17 79 -51 107s-76 42 -127 42s-92 -14 -125 -42s-50 -64 -50 -109s17 -82 50 -110s74 -42 125 -42s94 14 128 42
c33 28 50 64 50 108zM266 718h142l129 -145h-109l-91 58l-91 -58h-109z" />
    <glyph glyph-name="Gbreve" unicode="&#x11e;" horiz-adv-x="897" 
d="M851 0h-138v84c-22 -28 -57 -51 -105 -68c-49 -18 -101 -27 -158 -27c-124 0 -226 35 -306 105c-81 70 -121 159 -121 267c0 107 41 195 123 264c81 69 185 104 310 104c93 0 174 -19 241 -58s115 -94 143 -164l-129 -62c-21 50 -54 88 -97 115c-44 27 -97 40 -159 40
c-83 0 -150 -22 -202 -67c-53 -45 -79 -103 -79 -174s26 -129 78 -174c51 -45 118 -68 199 -68c69 0 129 15 180 44s78 65 83 108h-323v124h460v-393zM457 849c28 0 51 6 70 17c18 11 27 26 27 44h103c0 -47 -18 -84 -54 -112c-36 -29 -85 -43 -146 -43s-110 14 -146 43
c-36 28 -54 65 -54 112h103c0 -18 9 -33 28 -44c18 -11 41 -17 69 -17z" />
    <glyph glyph-name="gbreve" unicode="&#x11f;" horiz-adv-x="696" 
d="M642 526v-452c0 -79 -30 -142 -89 -190c-60 -49 -138 -73 -234 -73c-71 0 -133 12 -185 37c-53 24 -90 58 -111 101l111 68c13 -30 36 -53 69 -70s71 -26 114 -26c55 0 99 13 134 38c34 25 51 59 51 102v20c-23 -23 -51 -41 -84 -54c-34 -13 -71 -19 -112 -19
c-85 0 -154 25 -207 75c-53 49 -79 113 -79 190c0 76 27 139 80 189c53 49 121 74 206 74c41 0 78 -6 112 -18c33 -13 61 -30 84 -53v61h140zM509 271v4c0 43 -17 79 -51 107s-76 42 -127 42s-92 -14 -125 -42s-50 -64 -50 -109s17 -82 50 -110s74 -42 125 -42s94 14 128 42
c33 28 50 64 50 108zM340 662c28 0 50 5 65 15c15 9 24 23 26 41h96c-1 -47 -17 -83 -50 -109s-78 -39 -137 -39s-104 13 -137 39s-49 62 -50 109h96c2 -18 11 -32 26 -41c15 -10 37 -15 65 -15z" />
    <glyph glyph-name="Gdotaccent" unicode="&#x120;" horiz-adv-x="897" 
d="M851 0h-138v84c-22 -28 -57 -51 -105 -68c-49 -18 -101 -27 -158 -27c-124 0 -226 35 -306 105c-81 70 -121 159 -121 267c0 107 41 195 123 264c81 69 185 104 310 104c93 0 174 -19 241 -58s115 -94 143 -164l-129 -62c-21 50 -54 88 -97 115c-44 27 -97 40 -159 40
c-83 0 -150 -22 -202 -67c-53 -45 -79 -103 -79 -174s26 -129 78 -174c51 -45 118 -68 199 -68c69 0 129 15 180 44s78 65 83 108h-323v124h460v-393zM530 759h-150v132h150v-132z" />
    <glyph glyph-name="gdotaccent" unicode="&#x121;" horiz-adv-x="696" 
d="M642 526v-452c0 -79 -30 -142 -89 -190c-60 -49 -138 -73 -234 -73c-71 0 -133 12 -185 37c-53 24 -90 58 -111 101l111 68c13 -30 36 -53 69 -70s71 -26 114 -26c55 0 99 13 134 38c34 25 51 59 51 102v20c-23 -23 -51 -41 -84 -54c-34 -13 -71 -19 -112 -19
c-85 0 -154 25 -207 75c-53 49 -79 113 -79 190c0 76 27 139 80 189c53 49 121 74 206 74c41 0 78 -6 112 -18c33 -13 61 -30 84 -53v61h140zM509 271v4c0 43 -17 79 -51 107s-76 42 -127 42s-92 -14 -125 -42s-50 -64 -50 -109s17 -82 50 -110s74 -42 125 -42s94 14 128 42
c33 28 50 64 50 108zM416 588h-144v130h144v-130z" />
    <glyph glyph-name="uni0122" unicode="&#x122;" horiz-adv-x="897" 
d="M851 0h-138v84c-22 -28 -57 -51 -105 -68c-49 -18 -101 -27 -158 -27c-124 0 -226 35 -306 105c-81 70 -121 159 -121 267c0 107 41 195 123 264c81 69 185 104 310 104c93 0 174 -19 241 -58s115 -94 143 -164l-129 -62c-21 50 -54 88 -97 115c-44 27 -97 40 -159 40
c-83 0 -150 -22 -202 -67c-53 -45 -79 -103 -79 -174s26 -129 78 -174c51 -45 118 -68 199 -68c69 0 129 15 180 44s78 65 83 108h-323v124h460v-393zM421 -119h-52v85h140v-57c0 -37 -12 -66 -37 -86s-59 -30 -103 -30v56c17 0 29 3 37 8s13 13 15 24z" />
    <glyph glyph-name="uni0123" unicode="&#x123;" horiz-adv-x="696" 
d="M642 526v-452c0 -79 -30 -142 -89 -190c-60 -49 -138 -73 -234 -73c-71 0 -133 12 -185 37c-53 24 -90 58 -111 101l111 68c13 -30 36 -53 69 -70s71 -26 114 -26c55 0 99 13 134 38c34 25 51 59 51 102v20c-23 -23 -51 -41 -84 -54c-34 -13 -71 -19 -112 -19
c-85 0 -154 25 -207 75c-53 49 -79 113 -79 190c0 76 27 139 80 189c53 49 121 74 206 74c41 0 78 -6 112 -18c33 -13 61 -30 84 -53v61h140zM509 271v4c0 43 -17 79 -51 107s-76 42 -127 42s-92 -14 -125 -42s-50 -64 -50 -109s17 -82 50 -110s74 -42 125 -42s94 14 128 42
c33 28 50 64 50 108zM362 658h52v-85h-140v57c0 37 12 66 37 86s59 30 103 30v-56c-17 0 -29 -2 -37 -7s-13 -14 -15 -25z" />
    <glyph glyph-name="Hcircumflex" unicode="&#x124;" horiz-adv-x="881" 
d="M671 432v286h148v-718h-148v305h-461v-305h-147v718h147v-286h461zM355 910h156l144 -151h-116l-106 67l-106 -67h-116z" />
    <glyph glyph-name="hcircumflex" unicode="&#x125;" horiz-adv-x="665" 
d="M194 0h-140v718h140v-258c21 24 49 43 82 56s70 20 110 20c70 0 126 -22 167 -66s62 -103 62 -177v-293h-140v260c0 47 -12 84 -35 111c-24 26 -57 39 -100 39c-46 0 -82 -13 -107 -40c-26 -27 -39 -64 -39 -112v-258zM245 910h156l144 -151h-116l-106 67l-106 -67h-116z
" />
    <glyph glyph-name="Hbar" unicode="&#x126;" horiz-adv-x="929" 
d="M930 589v-124h-87v-465h-148v237h-461v-237h-148v465h-82v124h82v129h148v-129h461v129h148v-129h87zM234 465v-104h461v104h-461z" />
    <glyph glyph-name="hbar" unicode="&#x127;" horiz-adv-x="701" 
d="M230 0h-140v564h-72v102h72v52h140v-52h160v-102h-160v-104c21 24 49 43 82 56s70 20 110 20c70 0 126 -22 167 -66s62 -103 62 -177v-293h-140v260c0 47 -12 84 -35 111c-24 26 -57 39 -100 39c-46 0 -82 -13 -107 -40c-26 -27 -39 -64 -39 -112v-258z" />
    <glyph glyph-name="Itilde" unicode="&#x128;" horiz-adv-x="272" 
d="M63 718h147v-718h-147v718zM36 923c17 0 34 -2 51 -6c16 -4 37 -13 64 -26c19 -9 34 -15 44 -18c9 -3 18 -4 27 -4c11 0 20 4 27 13c7 8 12 22 16 41h93c-3 -51 -15 -91 -37 -120s-51 -44 -86 -44c-17 0 -33 2 -50 7c-17 4 -38 12 -65 25c-19 10 -34 16 -43 19
s-18 4 -27 4c-12 0 -21 -4 -28 -13s-12 -23 -15 -42h-93c2 51 14 91 36 120c21 29 50 44 86 44z" />
    <glyph glyph-name="itilde" unicode="&#x129;" horiz-adv-x="247" 
d="M54 526h140v-526h-140v526zM40 726c15 0 29 -2 43 -6s32 -12 54 -25c15 -8 26 -13 34 -16c7 -3 14 -4 21 -4c10 0 18 4 24 12s11 21 14 39h86c-2 -47 -13 -85 -32 -112s-45 -41 -77 -41c-15 0 -29 2 -43 6s-32 12 -54 25c-15 9 -27 14 -34 17c-7 2 -14 3 -21 3
c-10 0 -18 -4 -24 -12s-11 -21 -14 -39h-86c2 47 13 85 32 112s45 41 77 41z" />
    <glyph glyph-name="Imacron" unicode="&#x12a;" horiz-adv-x="272" 
d="M63 718h147v-718h-147v718zM332 876v-109h-392v109h392z" />
    <glyph glyph-name="imacron" unicode="&#x12b;" horiz-adv-x="247" 
d="M54 526h140v-526h-140v526zM307 696v-106h-366v106h366z" />
    <glyph glyph-name="Ibreve" unicode="&#x12c;" horiz-adv-x="272" 
d="M63 718h147v-718h-147v718zM136 849c28 0 51 6 70 17c18 11 27 26 27 44h103c0 -47 -18 -84 -54 -112c-36 -29 -85 -43 -146 -43s-110 14 -146 43c-36 28 -54 65 -54 112h103c0 -18 9 -33 28 -44c18 -11 41 -17 69 -17z" />
    <glyph glyph-name="ibreve" unicode="&#x12d;" horiz-adv-x="247" 
d="M54 526h140v-526h-140v526zM124 662c28 0 50 5 65 15c15 9 24 23 26 41h96c-1 -47 -17 -83 -50 -109s-78 -39 -137 -39s-104 13 -137 39s-49 62 -50 109h96c2 -18 11 -32 26 -41c15 -10 37 -15 65 -15z" />
    <glyph glyph-name="Iogonek" unicode="&#x12e;" horiz-adv-x="272" 
d="M135 -184c-39 0 -70 8 -94 25c-25 16 -37 37 -37 64c0 18 5 35 15 52s25 32 44 45v716h147v-718c-39 -12 -67 -23 -84 -34c-18 -11 -27 -22 -27 -35c0 -9 6 -17 17 -22c11 -6 25 -9 44 -9c9 0 17 1 26 2c8 1 16 2 24 4v-82c-15 -3 -29 -5 -41 -6c-13 -1 -24 -2 -34 -2z
" />
    <glyph glyph-name="iogonek" unicode="&#x12f;" horiz-adv-x="247" 
d="M52 718h143v-130h-143v130zM-11 -95c0 39 22 72 65 101v520h140v-526c-21 -7 -39 -13 -53 -19c-15 -6 -26 -12 -34 -17c-9 -6 -15 -12 -18 -17s-5 -11 -5 -16c0 -9 5 -17 16 -22c11 -6 26 -9 45 -9c7 0 14 0 23 1c8 1 17 2 27 5v-82c-14 -3 -27 -5 -39 -6
c-13 -1 -25 -2 -36 -2c-17 0 -34 2 -50 6c-16 3 -30 9 -42 17c-12 7 -21 17 -28 28s-11 23 -11 38z" />
    <glyph glyph-name="Idot" unicode="&#x130;" horiz-adv-x="272" 
d="M63 718h147v-718h-147v718zM211 759h-150v132h150v-132z" />
    <glyph glyph-name="dotlessi" unicode="&#x131;" horiz-adv-x="247" 
d="M54 526h140v-526h-140v526z" />
    <glyph glyph-name="Jcircumflex" unicode="&#x134;" horiz-adv-x="717" 
d="M339 -11c-80 0 -151 19 -213 58c-63 39 -105 89 -126 151l134 76c12 -46 37 -83 75 -112c37 -29 81 -44 131 -44c59 0 105 14 138 43c33 28 49 68 49 120v437h147v-444c0 -85 -31 -154 -92 -206c-61 -53 -142 -79 -243 -79zM520 910h156l144 -151h-116l-106 67l-106 -67
h-116z" />
    <glyph glyph-name="jcircumflex" unicode="&#x135;" horiz-adv-x="247" 
d="M-39 -73c33 0 57 7 72 21c14 14 21 36 21 67v511h140v-508c0 -67 -19 -118 -56 -153c-38 -35 -94 -52 -167 -52c-18 0 -38 2 -59 5c-22 3 -40 8 -54 13l21 109c17 -5 32 -8 44 -10c11 -2 24 -3 38 -3zM52 718h142l129 -145h-109l-91 58l-91 -58h-109z" />
    <glyph glyph-name="uni0136" unicode="&#x136;" horiz-adv-x="829" 
d="M63 718h147v-344l403 344h207l-367 -304l390 -414h-194l-304 324l-135 -112v-212h-147v718zM404 -119h-52v85h140v-57c0 -37 -12 -66 -37 -86s-59 -30 -103 -30v56c17 0 29 3 37 8s13 13 15 24z" />
    <glyph glyph-name="uni0137" unicode="&#x137;" horiz-adv-x="665" 
d="M54 718h140v-435l284 243h193l-272 -226l280 -300h-176l-204 216l-105 -87v-129h-140v718zM328 -119h-52v85h140v-57c0 -37 -12 -66 -37 -86s-59 -30 -103 -30v56c17 0 29 3 37 8s13 13 15 24z" />
    <glyph glyph-name="kgreenlandic" unicode="&#x138;" horiz-adv-x="665" 
d="M54 526h140v-243l284 243h193l-272 -226l280 -300h-176l-204 216l-105 -87v-129h-140v526z" />
    <glyph glyph-name="Lacute" unicode="&#x139;" horiz-adv-x="736" 
d="M715 0h-652v718h147v-591h505v-127zM199 759h-126l117 151h199z" />
    <glyph glyph-name="lacute" unicode="&#x13a;" horiz-adv-x="247" 
d="M54 718h140v-718h-140v718zM189 759h-126l117 151h199z" />
    <glyph glyph-name="uni013B" unicode="&#x13b;" horiz-adv-x="736" 
d="M715 0h-652v718h147v-591h505v-127zM288 -119h-52v85h140v-57c0 -37 -12 -66 -37 -86s-59 -30 -103 -30v56c17 0 29 3 37 8s13 13 15 24z" />
    <glyph glyph-name="uni013C" unicode="&#x13c;" horiz-adv-x="247" 
d="M54 718h140v-718h-140v718zM106 -119h-52v85h140v-57c0 -37 -12 -66 -37 -86s-59 -30 -103 -30v56c17 0 29 3 37 8s13 13 15 24z" />
    <glyph glyph-name="Lcaron" unicode="&#x13d;" horiz-adv-x="736" 
d="M715 0h-652v718h147v-591h505v-127zM425 552h-95l25 166h153z" />
    <glyph glyph-name="lcaron" unicode="&#x13e;" horiz-adv-x="247" 
d="M54 718h140v-718h-140v718zM335 552h-95l25 166h153z" />
    <glyph glyph-name="Ldot" unicode="&#x13f;" horiz-adv-x="736" 
d="M715 0h-652v718h147v-591h505v-127zM576 304h-144v130h144v-130z" />
    <glyph glyph-name="ldot" unicode="&#x140;" horiz-adv-x="426" 
d="M54 718h140v-718h-140v718zM409 298h-144v130h144v-130z" />
    <glyph glyph-name="Lslash" unicode="&#x141;" horiz-adv-x="762" 
d="M742 0h-652v241l-95 -37v123l95 37v354h147v-305l214 80v-124l-214 -80v-162h505v-127z" />
    <glyph glyph-name="lslash" unicode="&#x142;" horiz-adv-x="351" 
d="M347 533v-126l-102 -50v-357h-140v296l-100 -50v126l100 50v296h140v-236z" />
    <glyph glyph-name="Nacute" unicode="&#x143;" horiz-adv-x="866" 
d="M661 718h143v-718h-130l-469 531v-531h-142v718h150l448 -507v507zM474 759h-126l117 151h199z" />
    <glyph glyph-name="nacute" unicode="&#x144;" horiz-adv-x="665" 
d="M194 0h-140v526h140v-66c21 24 49 43 82 56s70 20 110 20c70 0 126 -22 167 -66s62 -103 62 -177v-293h-140v260c0 47 -12 84 -35 111c-24 26 -57 39 -100 39c-46 0 -82 -13 -107 -40c-26 -27 -39 -64 -39 -112v-258zM391 573h-118l104 145h180z" />
    <glyph glyph-name="uni0145" unicode="&#x145;" horiz-adv-x="866" 
d="M661 718h143v-718h-130l-469 531v-531h-142v718h150l448 -507v507zM411 -119h-52v85h140v-57c0 -37 -12 -66 -37 -86s-59 -30 -103 -30v56c17 0 29 3 37 8s13 13 15 24z" />
    <glyph glyph-name="uni0146" unicode="&#x146;" horiz-adv-x="665" 
d="M194 0h-140v526h140v-66c21 24 49 43 82 56s70 20 110 20c70 0 126 -22 167 -66s62 -103 62 -177v-293h-140v260c0 47 -12 84 -35 111c-24 26 -57 39 -100 39c-46 0 -82 -13 -107 -40c-26 -27 -39 -64 -39 -112v-258zM316 -119h-52v85h140v-57c0 -37 -12 -66 -37 -86
s-59 -30 -103 -30v56c17 0 29 3 37 8s13 13 15 24z" />
    <glyph glyph-name="Ncaron" unicode="&#x147;" horiz-adv-x="866" 
d="M661 718h143v-718h-130l-469 531v-531h-142v718h150l448 -507v507zM651 910l-144 -151h-156l-144 151h116l106 -67l106 67h116z" />
    <glyph glyph-name="ncaron" unicode="&#x148;" horiz-adv-x="665" 
d="M194 0h-140v526h140v-66c21 24 49 43 82 56s70 20 110 20c70 0 126 -22 167 -66s62 -103 62 -177v-293h-140v260c0 47 -12 84 -35 111c-24 26 -57 39 -100 39c-46 0 -82 -13 -107 -40c-26 -27 -39 -64 -39 -112v-258zM537 718l-129 -145h-142l-129 145h109l91 -58l91 58
h109z" />
    <glyph glyph-name="Eng" unicode="&#x14a;" horiz-adv-x="866" 
d="M661 211v507h143v-700c0 -67 -19 -118 -56 -153c-38 -35 -94 -52 -167 -52c-18 0 -38 2 -59 5c-22 3 -40 8 -54 13l21 110c17 -5 31 -8 43 -10s25 -3 38 -3c31 0 55 7 70 20s23 32 23 58v6l-458 514v-526h-142v718h150z" />
    <glyph glyph-name="eng" unicode="&#x14b;" horiz-adv-x="665" 
d="M386 536c70 0 126 -22 167 -66s62 -103 62 -177v-275c0 -67 -19 -118 -56 -153s-93 -52 -166 -52c-18 0 -38 2 -59 5c-22 3 -40 8 -54 13l20 110c17 -5 31 -8 44 -10c12 -2 25 -3 38 -3c33 0 57 7 72 21c14 14 21 36 21 67v244c0 47 -12 84 -35 111
c-24 26 -57 39 -100 39c-46 0 -82 -13 -107 -40c-26 -27 -39 -64 -39 -112v-258h-140v526h140v-66c21 24 49 43 82 56s70 20 110 20z" />
    <glyph glyph-name="Omacron" unicode="&#x14c;" horiz-adv-x="894" 
d="M23 359c0 107 40 195 120 265s181 105 304 105c122 0 223 -35 304 -105c80 -70 120 -158 120 -265s-40 -195 -120 -265c-81 -70 -182 -105 -304 -105c-123 0 -224 35 -304 105s-120 158 -120 265zM720 359c0 72 -25 130 -75 175c-51 44 -117 66 -198 66
s-147 -22 -197 -66c-51 -45 -76 -103 -76 -175s25 -130 76 -174c50 -45 116 -67 197 -67s147 22 198 67c50 44 75 102 75 174zM643 876v-109h-392v109h392z" />
    <glyph glyph-name="omacron" unicode="&#x14d;" horiz-adv-x="661" 
d="M331 536c88 0 161 -26 219 -77s87 -117 87 -196c0 -80 -29 -146 -87 -197s-131 -77 -219 -77c-89 0 -162 26 -220 77c-59 51 -88 117 -88 197c0 79 29 145 88 196c58 51 131 77 220 77zM331 419c-51 0 -92 -14 -124 -43s-48 -66 -48 -113s16 -85 48 -114s73 -43 124 -43
c50 0 91 14 123 43s48 67 48 114s-16 84 -48 113s-73 43 -123 43zM513 696v-106h-366v106h366z" />
    <glyph glyph-name="Obreve" unicode="&#x14e;" horiz-adv-x="894" 
d="M23 359c0 107 40 195 120 265s181 105 304 105c122 0 223 -35 304 -105c80 -70 120 -158 120 -265s-40 -195 -120 -265c-81 -70 -182 -105 -304 -105c-123 0 -224 35 -304 105s-120 158 -120 265zM720 359c0 72 -25 130 -75 175c-51 44 -117 66 -198 66
s-147 -22 -197 -66c-51 -45 -76 -103 -76 -175s25 -130 76 -174c50 -45 116 -67 197 -67s147 22 198 67c50 44 75 102 75 174zM447 849c28 0 51 6 70 17c18 11 27 26 27 44h103c0 -47 -18 -84 -54 -112c-36 -29 -85 -43 -146 -43s-110 14 -146 43c-36 28 -54 65 -54 112h103
c0 -18 9 -33 28 -44c18 -11 41 -17 69 -17z" />
    <glyph glyph-name="obreve" unicode="&#x14f;" horiz-adv-x="661" 
d="M331 536c88 0 161 -26 219 -77s87 -117 87 -196c0 -80 -29 -146 -87 -197s-131 -77 -219 -77c-89 0 -162 26 -220 77c-59 51 -88 117 -88 197c0 79 29 145 88 196c58 51 131 77 220 77zM331 419c-51 0 -92 -14 -124 -43s-48 -66 -48 -113s16 -85 48 -114s73 -43 124 -43
c50 0 91 14 123 43s48 67 48 114s-16 84 -48 113s-73 43 -123 43zM330 662c28 0 50 5 65 15c15 9 24 23 26 41h96c-1 -47 -17 -83 -50 -109s-78 -39 -137 -39s-104 13 -137 39s-49 62 -50 109h96c2 -18 11 -32 26 -41c15 -10 37 -15 65 -15z" />
    <glyph glyph-name="Ohungarumlaut" unicode="&#x150;" horiz-adv-x="894" 
d="M23 359c0 107 40 195 120 265s181 105 304 105c122 0 223 -35 304 -105c80 -70 120 -158 120 -265s-40 -195 -120 -265c-81 -70 -182 -105 -304 -105c-123 0 -224 35 -304 105s-120 158 -120 265zM720 359c0 72 -25 130 -75 175c-51 44 -117 66 -198 66
s-147 -22 -197 -66c-51 -45 -76 -103 -76 -175s25 -130 76 -174c50 -45 116 -67 197 -67s147 22 198 67c50 44 75 102 75 174zM616 759h-108l95 151h164zM381 759h-108l88 151h171z" />
    <glyph glyph-name="ohungarumlaut" unicode="&#x151;" horiz-adv-x="661" 
d="M331 536c88 0 161 -26 219 -77s87 -117 87 -196c0 -80 -29 -146 -87 -197s-131 -77 -219 -77c-89 0 -162 26 -220 77c-59 51 -88 117 -88 197c0 79 29 145 88 196c58 51 131 77 220 77zM331 419c-51 0 -92 -14 -124 -43s-48 -66 -48 -113s16 -85 48 -114s73 -43 124 -43
c50 0 91 14 123 43s48 67 48 114s-16 84 -48 113s-73 43 -123 43zM476 573h-106l93 145h154zM263 573h-106l93 145h153z" />
    <glyph glyph-name="OE" unicode="&#x152;" horiz-adv-x="1348" 
d="M27 359c0 110 37 197 111 262s174 97 299 97h879v-127h-530v-160h473v-126h-473v-178h530v-127h-879c-125 0 -225 32 -299 97s-111 152 -111 262zM641 126v466h-203c-81 0 -145 -21 -192 -62c-47 -42 -70 -99 -70 -171s23 -129 70 -170c47 -42 110 -63 191 -63h204z" />
    <glyph glyph-name="oe" unicode="&#x153;" horiz-adv-x="1124" 
d="M811 -10c-50 0 -96 9 -137 27c-42 18 -77 43 -105 76c-27 -33 -62 -59 -103 -77s-87 -27 -136 -27c-89 0 -162 26 -220 77s-87 117 -87 197c0 79 29 145 88 196c58 51 131 77 219 77c49 0 94 -9 135 -26c41 -18 76 -43 104 -76c29 33 64 59 106 77s88 27 137 27
c86 0 156 -25 209 -75c53 -51 80 -115 80 -194v-43h-465c9 -37 29 -67 60 -88c31 -22 69 -33 114 -33c39 0 73 9 102 26s49 40 61 70l119 -51c-19 -47 -54 -86 -105 -115c-52 -30 -111 -45 -176 -45zM805 426c-39 0 -74 -9 -103 -28c-30 -19 -50 -45 -61 -78h322
c-4 28 -21 53 -52 74s-66 32 -106 32zM159 263c0 -47 16 -85 48 -114s73 -43 124 -43c50 0 91 14 123 43s48 67 48 114s-16 84 -48 113s-73 43 -124 43s-92 -14 -123 -43c-32 -29 -48 -66 -48 -113z" />
    <glyph glyph-name="Racute" unicode="&#x154;" horiz-adv-x="808" 
d="M466 267h-256v-267h-147v718h451c85 0 152 -20 201 -59c48 -40 72 -96 72 -167c0 -53 -14 -98 -43 -134c-29 -37 -70 -62 -123 -77l183 -281h-169zM210 593v-203h296c43 0 76 9 100 27c23 17 35 42 35 74c0 33 -12 58 -35 76c-23 17 -57 26 -100 26h-296zM446 759h-126
l117 151h199z" />
    <glyph glyph-name="racute" unicode="&#x155;" horiz-adv-x="461" 
d="M392 529c11 0 21 0 31 -1c9 -1 18 -3 27 -6v-138c-14 3 -25 6 -33 7s-18 1 -30 1c-64 0 -112 -14 -144 -42c-33 -29 -49 -71 -49 -126v-224h-140v526h140v-93c21 33 48 57 81 73c32 15 71 23 117 23zM293 573h-118l104 145h180z" />
    <glyph glyph-name="uni0156" unicode="&#x156;" horiz-adv-x="808" 
d="M466 267h-256v-267h-147v718h451c85 0 152 -20 201 -59c48 -40 72 -96 72 -167c0 -53 -14 -98 -43 -134c-29 -37 -70 -62 -123 -77l183 -281h-169zM210 593v-203h296c43 0 76 9 100 27c23 17 35 42 35 74c0 33 -12 58 -35 76c-23 17 -57 26 -100 26h-296zM373 -119h-52
v85h140v-57c0 -37 -12 -66 -37 -86s-59 -30 -103 -30v56c17 0 29 3 37 8s13 13 15 24z" />
    <glyph glyph-name="uni0157" unicode="&#x157;" horiz-adv-x="461" 
d="M392 529c11 0 21 0 31 -1c9 -1 18 -3 27 -6v-138c-14 3 -25 6 -33 7s-18 1 -30 1c-64 0 -112 -14 -144 -42c-33 -29 -49 -71 -49 -126v-224h-140v526h140v-93c21 33 48 57 81 73c32 15 71 23 117 23zM106 -119h-52v85h140v-57c0 -37 -12 -66 -37 -86s-59 -30 -103 -30v56
c17 0 29 3 37 8s13 13 15 24z" />
    <glyph glyph-name="Rcaron" unicode="&#x158;" horiz-adv-x="808" 
d="M466 267h-256v-267h-147v718h451c85 0 152 -20 201 -59c48 -40 72 -96 72 -167c0 -53 -14 -98 -43 -134c-29 -37 -70 -62 -123 -77l183 -281h-169zM210 593v-203h296c43 0 76 9 100 27c23 17 35 42 35 74c0 33 -12 58 -35 76c-23 17 -57 26 -100 26h-296zM620 910
l-144 -151h-156l-144 151h116l106 -67l106 67h116z" />
    <glyph glyph-name="rcaron" unicode="&#x159;" horiz-adv-x="461" 
d="M392 529c11 0 21 0 31 -1c9 -1 18 -3 27 -6v-138c-14 3 -25 6 -33 7s-18 1 -30 1c-64 0 -112 -14 -144 -42c-33 -29 -49 -71 -49 -126v-224h-140v526h140v-93c21 33 48 57 81 73c32 15 71 23 117 23zM453 718l-129 -145h-142l-129 145h109l91 -58l91 58h109z" />
    <glyph glyph-name="Sacute" unicode="&#x15a;" horiz-adv-x="776" 
d="M399 -11c-87 0 -169 16 -245 47s-131 71 -166 120l99 103c35 -47 80 -82 135 -107s116 -37 183 -37c61 0 111 9 149 26c37 17 56 39 56 68c0 23 -8 40 -23 51c-16 11 -45 20 -88 27c-13 2 -29 4 -48 7c-19 2 -53 6 -102 11c-119 13 -200 35 -244 65
c-45 30 -67 73 -67 130c0 69 31 124 93 166c61 42 143 63 244 63c79 0 153 -13 220 -39s116 -61 149 -104l-98 -94c-27 35 -65 63 -114 83c-49 19 -104 29 -165 29c-58 0 -103 -8 -136 -24s-50 -38 -50 -65c0 -24 14 -41 41 -52s90 -22 189 -33c58 -7 104 -13 137 -19
s61 -13 84 -22c44 -15 76 -36 97 -63c20 -27 30 -60 30 -101c0 -73 -32 -131 -97 -173s-153 -63 -263 -63zM445 759h-126l117 151h199z" />
    <glyph glyph-name="sacute" unicode="&#x15b;" horiz-adv-x="585" 
d="M299 -11c-65 0 -124 10 -178 30c-54 19 -96 46 -125 80l80 92c29 -31 62 -54 101 -69c38 -16 81 -24 128 -24c41 0 73 5 95 15c22 9 33 23 33 41c0 12 -5 21 -15 28c-11 6 -30 11 -59 15c-10 2 -26 4 -48 7c-22 2 -38 4 -47 5c-93 12 -156 30 -188 53
c-33 23 -49 56 -49 99c0 53 24 95 71 127s110 48 189 48c58 0 111 -9 160 -26c48 -18 85 -42 112 -73l-80 -85c-23 25 -51 44 -85 57s-72 19 -114 19c-37 0 -65 -4 -85 -13c-21 -9 -31 -22 -31 -39c0 -13 7 -22 21 -28c14 -7 57 -14 130 -23c43 -5 77 -10 102 -15
c24 -5 45 -10 62 -17c32 -13 56 -29 71 -49c15 -21 22 -46 22 -76c0 -55 -25 -99 -74 -131c-50 -32 -116 -48 -199 -48zM351 573h-118l104 145h180z" />
    <glyph glyph-name="Scircumflex" unicode="&#x15c;" horiz-adv-x="776" 
d="M399 -11c-87 0 -169 16 -245 47s-131 71 -166 120l99 103c35 -47 80 -82 135 -107s116 -37 183 -37c61 0 111 9 149 26c37 17 56 39 56 68c0 23 -8 40 -23 51c-16 11 -45 20 -88 27c-13 2 -29 4 -48 7c-19 2 -53 6 -102 11c-119 13 -200 35 -244 65
c-45 30 -67 73 -67 130c0 69 31 124 93 166c61 42 143 63 244 63c79 0 153 -13 220 -39s116 -61 149 -104l-98 -94c-27 35 -65 63 -114 83c-49 19 -104 29 -165 29c-58 0 -103 -8 -136 -24s-50 -38 -50 -65c0 -24 14 -41 41 -52s90 -22 189 -33c58 -7 104 -13 137 -19
s61 -13 84 -22c44 -15 76 -36 97 -63c20 -27 30 -60 30 -101c0 -73 -32 -131 -97 -173s-153 -63 -263 -63zM304 910h156l144 -151h-116l-106 67l-106 -67h-116z" />
    <glyph glyph-name="scircumflex" unicode="&#x15d;" horiz-adv-x="585" 
d="M299 -11c-65 0 -124 10 -178 30c-54 19 -96 46 -125 80l80 92c29 -31 62 -54 101 -69c38 -16 81 -24 128 -24c41 0 73 5 95 15c22 9 33 23 33 41c0 12 -5 21 -15 28c-11 6 -30 11 -59 15c-10 2 -26 4 -48 7c-22 2 -38 4 -47 5c-93 12 -156 30 -188 53
c-33 23 -49 56 -49 99c0 53 24 95 71 127s110 48 189 48c58 0 111 -9 160 -26c48 -18 85 -42 112 -73l-80 -85c-23 25 -51 44 -85 57s-72 19 -114 19c-37 0 -65 -4 -85 -13c-21 -9 -31 -22 -31 -39c0 -13 7 -22 21 -28c14 -7 57 -14 130 -23c43 -5 77 -10 102 -15
c24 -5 45 -10 62 -17c32 -13 56 -29 71 -49c15 -21 22 -46 22 -76c0 -55 -25 -99 -74 -131c-50 -32 -116 -48 -199 -48zM218 718h142l129 -145h-109l-91 58l-91 -58h-109z" />
    <glyph glyph-name="Scedilla" unicode="&#x15e;" horiz-adv-x="776" 
d="M-12 156l99 103c35 -47 80 -82 135 -107s116 -37 183 -37c61 0 111 9 149 26c37 17 56 39 56 68c0 23 -8 40 -23 51c-16 11 -45 20 -88 27c-13 2 -29 4 -48 7c-19 2 -53 6 -102 11c-119 13 -200 35 -244 65c-45 30 -67 73 -67 130c0 69 31 124 93 166
c61 42 143 63 244 63c79 0 153 -13 220 -39s116 -61 149 -104l-98 -94c-27 35 -65 63 -114 83c-49 19 -104 29 -165 29c-58 0 -103 -8 -136 -24s-50 -38 -50 -65c0 -24 14 -41 41 -52s90 -22 189 -33c58 -7 104 -13 137 -19s61 -13 84 -22c44 -15 76 -36 97 -63
c20 -27 30 -60 30 -101c0 -73 -32 -130 -96 -172c-65 -43 -151 -64 -258 -64l-3 -10c34 -1 61 -9 81 -23c20 -15 30 -33 30 -56c0 -27 -13 -48 -39 -64c-27 -16 -61 -24 -103 -24c-28 0 -54 3 -78 10c-24 6 -43 15 -58 26l43 64c12 -9 25 -16 40 -21c14 -5 30 -7 47 -7
s31 2 40 6s13 10 13 18c0 9 -7 16 -21 21c-15 4 -40 6 -75 7l17 56c-77 7 -147 25 -210 55c-64 29 -111 66 -141 109z" />
    <glyph glyph-name="scedilla" unicode="&#x15f;" horiz-adv-x="585" 
d="M-4 99l80 92c29 -31 62 -54 101 -69c38 -16 81 -24 128 -24c41 0 73 5 95 15c22 9 33 23 33 41c0 12 -5 21 -15 28c-11 6 -30 11 -59 15c-10 2 -26 4 -48 7c-22 2 -38 4 -47 5c-93 12 -156 30 -188 53c-33 23 -49 56 -49 99c0 53 24 95 71 127s110 48 189 48
c58 0 111 -9 160 -26c48 -18 85 -42 112 -73l-80 -85c-23 25 -51 44 -85 57s-72 19 -114 19c-37 0 -65 -4 -85 -13c-21 -9 -31 -22 -31 -39c0 -13 7 -22 21 -28c14 -7 57 -14 130 -23c43 -5 77 -10 102 -15c24 -5 45 -10 62 -17c32 -13 56 -29 71 -49c15 -21 22 -46 22 -76
c0 -55 -25 -99 -74 -131c-50 -32 -116 -48 -199 -48h-3l-3 -10c34 -1 61 -9 81 -23c20 -15 30 -33 30 -56c0 -27 -13 -48 -39 -64c-27 -16 -61 -24 -103 -24c-28 0 -54 3 -78 10c-24 6 -43 15 -58 26l43 64c12 -9 25 -16 40 -21c14 -5 30 -7 47 -7s31 2 40 6s13 10 13 18
c0 9 -7 16 -21 21c-15 4 -40 6 -75 7l17 57c-51 6 -96 18 -137 37c-41 18 -73 41 -97 69z" />
    <glyph glyph-name="Scaron" unicode="&#x160;" horiz-adv-x="776" 
d="M399 -11c-87 0 -169 16 -245 47s-131 71 -166 120l99 103c35 -47 80 -82 135 -107s116 -37 183 -37c61 0 111 9 149 26c37 17 56 39 56 68c0 23 -8 40 -23 51c-16 11 -45 20 -88 27c-13 2 -29 4 -48 7c-19 2 -53 6 -102 11c-119 13 -200 35 -244 65
c-45 30 -67 73 -67 130c0 69 31 124 93 166c61 42 143 63 244 63c79 0 153 -13 220 -39s116 -61 149 -104l-98 -94c-27 35 -65 63 -114 83c-49 19 -104 29 -165 29c-58 0 -103 -8 -136 -24s-50 -38 -50 -65c0 -24 14 -41 41 -52s90 -22 189 -33c58 -7 104 -13 137 -19
s61 -13 84 -22c44 -15 76 -36 97 -63c20 -27 30 -60 30 -101c0 -73 -32 -131 -97 -173s-153 -63 -263 -63zM606 910l-144 -151h-156l-144 151h116l106 -67l106 67h116z" />
    <glyph glyph-name="scaron" unicode="&#x161;" horiz-adv-x="585" 
d="M299 -11c-65 0 -124 10 -178 30c-54 19 -96 46 -125 80l80 92c29 -31 62 -54 101 -69c38 -16 81 -24 128 -24c41 0 73 5 95 15c22 9 33 23 33 41c0 12 -5 21 -15 28c-11 6 -30 11 -59 15c-10 2 -26 4 -48 7c-22 2 -38 4 -47 5c-93 12 -156 30 -188 53
c-33 23 -49 56 -49 99c0 53 24 95 71 127s110 48 189 48c58 0 111 -9 160 -26c48 -18 85 -42 112 -73l-80 -85c-23 25 -51 44 -85 57s-72 19 -114 19c-37 0 -65 -4 -85 -13c-21 -9 -31 -22 -31 -39c0 -13 7 -22 21 -28c14 -7 57 -14 130 -23c43 -5 77 -10 102 -15
c24 -5 45 -10 62 -17c32 -13 56 -29 71 -49c15 -21 22 -46 22 -76c0 -55 -25 -99 -74 -131c-50 -32 -116 -48 -199 -48zM493 718l-129 -145h-142l-129 145h109l91 -58l91 58h109z" />
    <glyph glyph-name="uni0162" unicode="&#x162;" horiz-adv-x="818" 
d="M543 -100c0 -27 -13 -48 -39 -64c-27 -16 -61 -24 -103 -24c-28 0 -54 3 -78 10c-24 6 -43 15 -58 26l43 64c12 -9 25 -16 40 -21c14 -5 30 -7 47 -7s31 2 40 6s13 10 13 18c0 9 -7 16 -21 21c-15 4 -40 6 -75 7l19 64h-36v591h-317v127h782v-127h-317v-591h-45l-6 -21
c34 -1 61 -9 81 -23c20 -15 30 -33 30 -56z" />
    <glyph glyph-name="uni0163" unicode="&#x163;" horiz-adv-x="523" 
d="M125 176v233h-126v117h126v150h138v-150h224v-117h-224v-210c0 -29 8 -50 25 -63c16 -13 43 -20 82 -20c17 0 35 2 53 5s39 9 62 17l24 -115c-24 -9 -51 -17 -81 -22c-31 -5 -60 -8 -89 -8h-15s-7 0 -10 1l-4 -15c34 -1 61 -9 81 -23c20 -15 30 -33 30 -56
c0 -27 -13 -48 -39 -64c-27 -16 -61 -24 -103 -24c-28 0 -54 3 -78 10c-24 6 -43 15 -58 26l43 64c12 -9 25 -16 40 -21c14 -5 30 -7 47 -7s31 2 40 6s13 10 13 18c0 9 -7 16 -21 21c-15 4 -40 6 -75 7l21 68c-41 12 -73 33 -94 62s-32 65 -32 110z" />
    <glyph glyph-name="Tcaron" unicode="&#x164;" horiz-adv-x="818" 
d="M800 718v-127h-317v-591h-148v591h-317v127h782zM631 910l-144 -151h-156l-144 151h116l106 -67l106 67h116z" />
    <glyph glyph-name="tcaron" unicode="&#x165;" horiz-adv-x="523" 
d="M339 -7c-69 0 -121 16 -158 47s-56 77 -56 136v233h-126v117h126v150h138v-150h224v-117h-224v-210c0 -29 8 -50 25 -63c16 -13 43 -20 82 -20c17 0 35 2 53 5s39 9 62 17l24 -115c-24 -9 -51 -17 -81 -22c-31 -5 -60 -8 -89 -8zM404 572h-95l25 166h153z" />
    <glyph glyph-name="Tbar" unicode="&#x166;" horiz-adv-x="818" 
d="M645 427v-127h-162v-300h-148v300h-162v127h162v164h-317v127h782v-127h-317v-164h162z" />
    <glyph glyph-name="tbar" unicode="&#x167;" horiz-adv-x="523" 
d="M339 -7c-69 0 -121 16 -158 47s-56 77 -56 136v56h-124v111h124v72h-126v111h126v150h138v-150h224v-111h-224v-72h224v-111h-224v-35c0 -29 8 -50 25 -63c16 -13 43 -20 82 -20c17 0 35 2 53 5s39 9 62 17l24 -113c-24 -9 -51 -17 -81 -22c-31 -5 -60 -8 -89 -8z" />
    <glyph glyph-name="Utilde" unicode="&#x168;" horiz-adv-x="824" 
d="M412 -10c-119 0 -210 30 -273 91c-64 61 -96 147 -96 258v379h147v-371c0 -76 19 -133 56 -171s92 -57 166 -57c73 0 129 19 166 57s55 95 55 171v371h148v-379c0 -111 -32 -197 -95 -258c-64 -61 -155 -91 -274 -91zM313 923c17 0 34 -2 51 -6c16 -4 37 -13 64 -26
c19 -9 34 -15 44 -18c9 -3 18 -4 27 -4c11 0 20 4 27 13c7 8 12 22 16 41h93c-3 -51 -15 -91 -37 -120s-51 -44 -86 -44c-17 0 -33 2 -50 7c-17 4 -38 12 -65 25c-19 10 -34 16 -43 19s-18 4 -27 4c-12 0 -21 -4 -28 -13s-12 -23 -15 -42h-93c2 51 14 91 36 120
c21 29 50 44 86 44z" />
    <glyph glyph-name="utilde" unicode="&#x169;" horiz-adv-x="660" 
d="M467 526h140v-526h-140v66c-22 -25 -49 -44 -81 -57c-33 -13 -69 -20 -108 -20c-69 0 -125 22 -166 65s-62 101 -62 174v298h140v-274c0 -46 11 -81 34 -104c22 -24 55 -36 98 -36c46 0 82 13 107 39s38 63 38 110v265zM245 726c15 0 29 -2 43 -6s32 -12 54 -25
c15 -8 26 -13 34 -16c7 -3 14 -4 21 -4c10 0 18 4 24 12s11 21 14 39h86c-2 -47 -13 -85 -32 -112s-45 -41 -77 -41c-15 0 -29 2 -43 6s-32 12 -54 25c-15 9 -27 14 -34 17c-7 2 -14 3 -21 3c-10 0 -18 -4 -24 -12s-11 -21 -14 -39h-86c2 47 13 85 32 112s45 41 77 41z" />
    <glyph glyph-name="Umacron" unicode="&#x16a;" horiz-adv-x="824" 
d="M412 -10c-119 0 -210 30 -273 91c-64 61 -96 147 -96 258v379h147v-371c0 -76 19 -133 56 -171s92 -57 166 -57c73 0 129 19 166 57s55 95 55 171v371h148v-379c0 -111 -32 -197 -95 -258c-64 -61 -155 -91 -274 -91zM608 876v-109h-392v109h392z" />
    <glyph glyph-name="umacron" unicode="&#x16b;" horiz-adv-x="660" 
d="M467 526h140v-526h-140v66c-22 -25 -49 -44 -81 -57c-33 -13 -69 -20 -108 -20c-69 0 -125 22 -166 65s-62 101 -62 174v298h140v-274c0 -46 11 -81 34 -104c22 -24 55 -36 98 -36c46 0 82 13 107 39s38 63 38 110v265zM511 696v-106h-366v106h366z" />
    <glyph glyph-name="Ubreve" unicode="&#x16c;" horiz-adv-x="824" 
d="M412 -10c-119 0 -210 30 -273 91c-64 61 -96 147 -96 258v379h147v-371c0 -76 19 -133 56 -171s92 -57 166 -57c73 0 129 19 166 57s55 95 55 171v371h148v-379c0 -111 -32 -197 -95 -258c-64 -61 -155 -91 -274 -91zM412 849c28 0 51 6 70 17c18 11 27 26 27 44h103
c0 -47 -18 -84 -54 -112c-36 -29 -85 -43 -146 -43s-110 14 -146 43c-36 28 -54 65 -54 112h103c0 -18 9 -33 28 -44c18 -11 41 -17 69 -17z" />
    <glyph glyph-name="ubreve" unicode="&#x16d;" horiz-adv-x="660" 
d="M467 526h140v-526h-140v66c-22 -25 -49 -44 -81 -57c-33 -13 -69 -20 -108 -20c-69 0 -125 22 -166 65s-62 101 -62 174v298h140v-274c0 -46 11 -81 34 -104c22 -24 55 -36 98 -36c46 0 82 13 107 39s38 63 38 110v265zM328 662c28 0 50 5 65 15c15 9 24 23 26 41h96
c-1 -47 -17 -83 -50 -109s-78 -39 -137 -39s-104 13 -137 39s-49 62 -50 109h96c2 -18 11 -32 26 -41c15 -10 37 -15 65 -15z" />
    <glyph glyph-name="Uring" unicode="&#x16e;" horiz-adv-x="824" 
d="M412 -10c-119 0 -210 30 -273 91c-64 61 -96 147 -96 258v379h147v-371c0 -76 19 -133 56 -171s92 -57 166 -57c73 0 129 19 166 57s55 95 55 171v371h148v-379c0 -111 -32 -197 -95 -258c-64 -61 -155 -91 -274 -91zM412 728c-39 0 -71 13 -96 38c-26 25 -39 55 -39 92
c0 36 13 66 39 91c25 25 57 37 96 37s71 -12 97 -37c25 -25 38 -55 38 -91c0 -37 -13 -67 -38 -92c-26 -25 -58 -38 -97 -38zM412 910c-15 0 -27 -5 -36 -14c-10 -10 -15 -23 -15 -38c0 -16 5 -29 14 -38s22 -14 37 -14s28 5 37 14s14 22 14 38c0 15 -5 28 -14 38
c-10 9 -22 14 -37 14z" />
    <glyph glyph-name="uring" unicode="&#x16f;" horiz-adv-x="660" 
d="M467 526h140v-526h-140v66c-22 -25 -49 -44 -81 -57c-33 -13 -69 -20 -108 -20c-69 0 -125 22 -166 65s-62 101 -62 174v298h140v-274c0 -46 11 -81 34 -104c22 -24 55 -36 98 -36c46 0 82 13 107 39s38 63 38 110v265zM328 561c-33 0 -60 11 -81 32
c-22 21 -33 46 -33 77c0 30 11 56 33 77c21 21 48 31 81 31s60 -10 82 -31c21 -21 32 -47 32 -77c0 -31 -11 -56 -32 -77c-22 -21 -49 -32 -82 -32zM328 715c-12 0 -22 -4 -31 -13s-13 -20 -13 -32c0 -13 4 -23 13 -32c8 -9 18 -13 31 -13s23 4 32 13c8 9 12 19 12 32
c0 12 -4 23 -13 32s-19 13 -31 13z" />
    <glyph glyph-name="Uhungarumlaut" unicode="&#x170;" horiz-adv-x="824" 
d="M412 -10c-119 0 -210 30 -273 91c-64 61 -96 147 -96 258v379h147v-371c0 -76 19 -133 56 -171s92 -57 166 -57c73 0 129 19 166 57s55 95 55 171v371h148v-379c0 -111 -32 -197 -95 -258c-64 -61 -155 -91 -274 -91zM572 759h-108l95 151h164zM337 759h-108l88 151h171z
" />
    <glyph glyph-name="uhungarumlaut" unicode="&#x171;" horiz-adv-x="660" 
d="M467 526h140v-526h-140v66c-22 -25 -49 -44 -81 -57c-33 -13 -69 -20 -108 -20c-69 0 -125 22 -166 65s-62 101 -62 174v298h140v-274c0 -46 11 -81 34 -104c22 -24 55 -36 98 -36c46 0 82 13 107 39s38 63 38 110v265zM465 573h-106l93 145h154zM252 573h-106l93 145
h153z" />
    <glyph glyph-name="Uogonek" unicode="&#x172;" horiz-adv-x="824" 
d="M533 2c-36 -8 -63 -18 -82 -30s-29 -25 -29 -39c0 -10 6 -18 17 -24s26 -9 45 -9c9 0 17 1 26 2c8 1 16 2 23 4v-82c-15 -3 -29 -5 -41 -6s-23 -2 -33 -2c-39 0 -70 8 -94 25c-25 16 -37 38 -37 65c0 16 3 31 10 46c7 14 16 27 29 40c-105 7 -185 41 -240 101
c-56 59 -84 141 -84 246v379h148v-371c0 -77 18 -134 55 -171c37 -38 92 -57 166 -57c75 0 130 19 167 57c37 37 55 94 55 171v371h147v-379c0 -91 -21 -166 -63 -223c-43 -58 -104 -96 -185 -114z" />
    <glyph glyph-name="uogonek" unicode="&#x173;" horiz-adv-x="660" 
d="M520 -184c-39 0 -70 8 -94 25c-25 16 -37 37 -37 64c0 21 7 41 20 60c13 18 33 34 58 48v53c-22 -25 -49 -44 -81 -57c-33 -13 -69 -20 -108 -20c-69 0 -125 22 -166 65s-62 101 -62 174v298h140v-274c0 -46 11 -81 34 -104c22 -24 55 -36 98 -36c46 0 82 13 107 39
s38 63 38 110v265h140v-526h-12c-39 -12 -67 -23 -84 -34c-18 -11 -27 -22 -27 -35c0 -9 6 -17 17 -22c11 -6 25 -9 44 -9c9 0 17 1 26 2c8 1 16 2 24 4v-82c-15 -3 -29 -5 -41 -6c-13 -1 -24 -2 -34 -2z" />
    <glyph glyph-name="Wcircumflex" unicode="&#x174;" horiz-adv-x="1182" 
d="M336 162l180 556h153l179 -556l189 556h151l-251 -718h-171l-175 549l-177 -549h-170l-251 718h154zM515 910h156l144 -151h-116l-106 67l-106 -67h-116z" />
    <glyph glyph-name="wcircumflex" unicode="&#x175;" horiz-adv-x="921" 
d="M278 170l125 356h122l126 -356l128 356h144l-207 -526h-126l-129 350l-129 -350h-126l-208 526h149zM389 718h142l129 -145h-109l-91 58l-91 -58h-109z" />
    <glyph glyph-name="Ycircumflex" unicode="&#x176;" horiz-adv-x="848" 
d="M169 718l257 -294l257 294h175l-360 -413v-305h-147v305l-361 413h179zM349 910h156l144 -151h-116l-106 67l-106 -67h-116z" />
    <glyph glyph-name="ycircumflex" unicode="&#x177;" horiz-adv-x="658" 
d="M660 526l-275 -563c-26 -54 -56 -92 -91 -115s-80 -35 -136 -35c-19 0 -40 2 -62 7c-23 4 -40 9 -52 15l25 114c14 -7 27 -12 40 -15c12 -3 24 -5 37 -5c28 0 51 6 68 17s29 28 38 51l5 16l-259 513h156l180 -375l176 375h150zM258 718h142l129 -145h-109l-91 58l-91 -58
h-109z" />
    <glyph glyph-name="Ydieresis" unicode="&#x178;" horiz-adv-x="848" 
d="M169 718l257 -294l257 294h175l-360 -413v-305h-147v305l-361 413h179zM372 759h-144v132h144v-132zM626 759h-144v132h144v-132z" />
    <glyph glyph-name="Zacute" unicode="&#x179;" horiz-adv-x="795" 
d="M245 127h512v-127h-721v112l507 479h-503v127h713v-112zM441 759h-126l117 151h199z" />
    <glyph glyph-name="zacute" unicode="&#x17a;" horiz-adv-x="625" 
d="M231 117h361v-117h-558v104l360 305h-357v117h552v-105zM357 573h-118l104 145h180z" />
    <glyph glyph-name="Zdotaccent" unicode="&#x17b;" horiz-adv-x="795" 
d="M245 127h512v-127h-721v112l507 479h-503v127h713v-112zM471 759h-150v132h150v-132z" />
    <glyph glyph-name="zdotaccent" unicode="&#x17c;" horiz-adv-x="625" 
d="M231 117h361v-117h-558v104l360 305h-357v117h552v-105zM384 588h-144v130h144v-130z" />
    <glyph glyph-name="Zcaron" unicode="&#x17d;" horiz-adv-x="795" 
d="M245 127h512v-127h-721v112l507 479h-503v127h713v-112zM618 910l-144 -151h-156l-144 151h116l106 -67l106 67h116z" />
    <glyph glyph-name="zcaron" unicode="&#x17e;" horiz-adv-x="625" 
d="M231 117h361v-117h-558v104l360 305h-357v117h552v-105zM512 718l-129 -145h-142l-129 145h109l91 -58l91 58h109z" />
    <glyph glyph-name="florin" unicode="&#x192;" horiz-adv-x="818" 
d="M477 332l-22 -122c-13 -74 -41 -129 -84 -166s-102 -55 -177 -55c-39 0 -76 5 -110 15c-35 9 -63 23 -84 40l59 103c16 -13 35 -23 58 -30s45 -11 67 -11c35 0 63 9 84 28s34 46 41 83l21 115h-143v98h161l14 78c13 75 42 130 85 167c43 36 102 54 177 54
c39 0 76 -5 111 -14c34 -10 62 -24 83 -41l-59 -103c-16 13 -35 23 -58 30s-45 11 -68 11c-34 0 -61 -9 -82 -28s-36 -46 -43 -83l-13 -71h158v-98h-176z" />
    <glyph glyph-name="AEacute" unicode="&#x1fc;" horiz-adv-x="1419" 
d="M-12 0l642 718h758v-127h-550v-160h493v-126h-493v-178h550v-127h-695v165h-374l-146 -165h-185zM693 587l-264 -298h264v298zM1026 759h-126l117 151h199z" />
    <glyph glyph-name="aeacute" unicode="&#x1fd;" horiz-adv-x="1072" 
d="M22 152c0 51 21 92 63 121s100 44 175 44h190v26c0 25 -11 44 -34 59c-23 14 -56 21 -97 21c-37 0 -71 -7 -100 -22s-49 -35 -58 -58l-121 41c16 45 50 82 103 110s113 42 181 42c51 0 95 -6 132 -19s65 -33 86 -58c27 25 60 44 97 57s77 20 120 20c87 0 157 -25 210 -75
s80 -114 80 -193v-44h-465c9 -37 28 -67 59 -88c31 -22 69 -33 114 -33c39 0 73 9 102 26s49 40 62 70l119 -51c-19 -47 -54 -85 -105 -114c-52 -30 -111 -45 -176 -45c-54 0 -103 10 -147 29s-80 47 -108 82c-27 -37 -63 -64 -107 -83s-94 -28 -151 -28
c-68 0 -122 15 -163 44s-61 68 -61 119zM753 425c-41 0 -76 -10 -105 -29s-49 -46 -60 -79h325c-5 29 -23 55 -54 76s-66 32 -106 32zM158 158c0 -20 9 -35 28 -46c18 -11 43 -16 76 -16c51 0 96 10 133 30s55 46 55 77v21h-175c-39 0 -69 -5 -88 -16s-29 -28 -29 -50z
M604 573h-118l104 145h180z" />
    <glyph glyph-name="Oslashacute" unicode="&#x1fe;" horiz-adv-x="893" 
d="M117 -29l-84 83l76 73c-28 33 -49 69 -64 108s-22 81 -22 124c0 107 40 195 120 265s181 105 304 105c47 0 93 -6 136 -17c43 -12 82 -29 118 -51l76 73l83 -82l-70 -67c27 -32 47 -67 61 -105c13 -39 20 -79 20 -121c0 -107 -40 -195 -120 -265
c-81 -70 -182 -105 -304 -105c-45 0 -89 5 -130 16c-42 11 -81 26 -117 47zM447 604c-83 0 -150 -22 -201 -67s-76 -104 -76 -178c0 -27 4 -53 12 -77c7 -25 19 -47 34 -68l381 356c-21 11 -45 20 -70 26c-25 5 -52 8 -80 8zM447 114c83 0 149 22 200 67s76 104 76 178
c0 25 -3 50 -10 73s-18 45 -31 65l-378 -353c21 -10 44 -17 68 -22s49 -8 75 -8zM496 759h-126l117 151h199z" />
    <glyph glyph-name="oslashacute" unicode="&#x1ff;" horiz-adv-x="661" 
d="M24 263c0 80 29 146 87 197s131 76 220 76c32 0 63 -4 92 -11s55 -18 79 -32l62 62l69 -67l-56 -56c19 -23 34 -49 45 -78c10 -29 15 -59 15 -91c0 -80 -29 -146 -87 -197s-131 -77 -219 -77c-32 0 -62 4 -91 11s-56 18 -81 32l-61 -61l-70 66l56 57
c-19 23 -34 48 -44 77c-11 29 -16 59 -16 92zM331 426c-52 0 -94 -15 -127 -45s-50 -69 -50 -118c0 -17 2 -32 6 -47s10 -29 18 -42l235 235c-12 5 -25 10 -39 13s-28 4 -43 4zM331 100c52 0 94 15 127 45c33 29 49 69 49 118c0 16 -2 31 -6 46s-10 28 -18 41l-235 -234
c12 -5 25 -9 39 -12s29 -4 44 -4zM382 573h-118l104 145h180z" />
    <glyph glyph-name="uni0218" unicode="&#x218;" horiz-adv-x="776" 
d="M399 -11c-87 0 -169 16 -245 47s-131 71 -166 120l99 103c35 -47 80 -82 135 -107s116 -37 183 -37c61 0 111 9 149 26c37 17 56 39 56 68c0 23 -8 40 -23 51c-16 11 -45 20 -88 27c-13 2 -29 4 -48 7c-19 2 -53 6 -102 11c-119 13 -200 35 -244 65
c-45 30 -67 73 -67 130c0 69 31 124 93 166c61 42 143 63 244 63c79 0 153 -13 220 -39s116 -61 149 -104l-98 -94c-27 35 -65 63 -114 83c-49 19 -104 29 -165 29c-58 0 -103 -8 -136 -24s-50 -38 -50 -65c0 -24 14 -41 41 -52s90 -22 189 -33c58 -7 104 -13 137 -19
s61 -13 84 -22c44 -15 76 -36 97 -63c20 -27 30 -60 30 -101c0 -73 -32 -131 -97 -173s-153 -63 -263 -63zM362 -119h-52v85h140v-57c0 -37 -12 -66 -37 -86s-59 -30 -103 -30v56c17 0 29 3 37 8s13 13 15 24z" />
    <glyph glyph-name="uni0219" unicode="&#x219;" horiz-adv-x="585" 
d="M299 -11c-65 0 -124 10 -178 30c-54 19 -96 46 -125 80l80 92c29 -31 62 -54 101 -69c38 -16 81 -24 128 -24c41 0 73 5 95 15c22 9 33 23 33 41c0 12 -5 21 -15 28c-11 6 -30 11 -59 15c-10 2 -26 4 -48 7c-22 2 -38 4 -47 5c-93 12 -156 30 -188 53
c-33 23 -49 56 -49 99c0 53 24 95 71 127s110 48 189 48c58 0 111 -9 160 -26c48 -18 85 -42 112 -73l-80 -85c-23 25 -51 44 -85 57s-72 19 -114 19c-37 0 -65 -4 -85 -13c-21 -9 -31 -22 -31 -39c0 -13 7 -22 21 -28c14 -7 57 -14 130 -23c43 -5 77 -10 102 -15
c24 -5 45 -10 62 -17c32 -13 56 -29 71 -49c15 -21 22 -46 22 -76c0 -55 -25 -99 -74 -131c-50 -32 -116 -48 -199 -48zM273 -119h-52v85h140v-57c0 -37 -12 -66 -37 -86s-59 -30 -103 -30v56c17 0 29 3 37 8s13 13 15 24z" />
    <glyph glyph-name="uni021A" unicode="&#x21a;" horiz-adv-x="818" 
d="M800 718v-127h-317v-591h-148v591h-317v127h782zM391 -119h-52v85h140v-57c0 -37 -12 -66 -37 -86s-59 -30 -103 -30v56c17 0 29 3 37 8s13 13 15 24z" />
    <glyph glyph-name="uni021B" unicode="&#x21b;" horiz-adv-x="523" 
d="M339 -7c-69 0 -121 16 -158 47s-56 77 -56 136v233h-126v117h126v150h138v-150h224v-117h-224v-210c0 -29 8 -50 25 -63c16 -13 43 -20 82 -20c17 0 35 2 53 5s39 9 62 17l24 -115c-24 -9 -51 -17 -81 -22c-31 -5 -60 -8 -89 -8zM280 -119h-52v85h140v-57
c0 -37 -12 -66 -37 -86s-59 -30 -103 -30v56c17 0 29 3 37 8s13 13 15 24z" />
    <glyph glyph-name="uni0237" unicode="&#x237;" horiz-adv-x="247" 
d="M-39 -73c33 0 57 7 72 21c14 14 21 36 21 67v511h140v-508c0 -67 -19 -118 -56 -153c-38 -35 -94 -52 -167 -52c-18 0 -38 2 -59 5c-22 3 -40 8 -54 13l21 109c17 -5 32 -8 44 -10c11 -2 24 -3 38 -3z" />
    <glyph glyph-name="circumflex" unicode="&#x2c6;" 
d="M229 718h142l129 -145h-109l-91 58l-91 -58h-109z" />
    <glyph glyph-name="caron" unicode="&#x2c7;" 
d="M500 718l-129 -145h-142l-129 145h109l91 -58l91 58h109z" />
    <glyph glyph-name="breve" unicode="&#x2d8;" 
d="M300 662c28 0 50 5 65 15c15 9 24 23 26 41h96c-1 -47 -17 -83 -50 -109s-78 -39 -137 -39s-104 13 -137 39s-49 62 -50 109h96c2 -18 11 -32 26 -41c15 -10 37 -15 65 -15z" />
    <glyph glyph-name="dotaccent" unicode="&#x2d9;" 
d="M372 588h-144v130h144v-130z" />
    <glyph glyph-name="ring" unicode="&#x2da;" 
d="M300 561c-33 0 -60 11 -81 32c-22 21 -33 46 -33 77c0 30 11 56 33 77c21 21 48 31 81 31s60 -10 82 -31c21 -21 32 -47 32 -77c0 -31 -11 -56 -32 -77c-22 -21 -49 -32 -82 -32zM300 715c-12 0 -22 -4 -31 -13s-13 -20 -13 -32c0 -13 4 -23 13 -32c8 -9 18 -13 31 -13
s23 4 32 13c8 9 12 19 12 32c0 12 -4 23 -13 32s-19 13 -31 13z" />
    <glyph glyph-name="ogonek" unicode="&#x2db;" 
d="M307 -184c-39 0 -70 8 -94 25c-25 16 -37 37 -37 64c0 31 14 59 43 84c28 25 69 44 122 58l41 -47c-39 -12 -67 -23 -84 -34c-18 -11 -27 -22 -27 -35c0 -9 6 -17 17 -22c11 -6 25 -9 44 -9c9 0 17 1 26 2c8 1 16 2 24 4v-82c-15 -3 -29 -5 -41 -6c-13 -1 -24 -2 -34 -2z
" />
    <glyph glyph-name="tilde" unicode="&#x2dc;" 
d="M216 726c15 0 29 -2 43 -6s32 -12 54 -25c15 -8 26 -13 34 -16c7 -3 14 -4 21 -4c10 0 18 4 24 12s11 21 14 39h86c-2 -47 -13 -85 -32 -112s-45 -41 -77 -41c-15 0 -29 2 -43 6s-32 12 -54 25c-15 9 -27 14 -34 17c-7 2 -14 3 -21 3c-10 0 -18 -4 -24 -12
s-11 -21 -14 -39h-86c2 47 13 85 32 112s45 41 77 41z" />
    <glyph glyph-name="hungarumlaut" unicode="&#x2dd;" 
d="M389 573h-106l93 145h154zM176 573h-106l93 145h153z" />
    <glyph glyph-name="gravecmb" unicode="&#x300;" horiz-adv-x="0" 
d="M38 718l104 -145h-118l-166 145h180z" />
    <glyph glyph-name="acutecmb" unicode="&#x301;" horiz-adv-x="0" 
d="M-24 573h-118l104 145h180z" />
    <glyph glyph-name="uni0302" unicode="&#x302;" horiz-adv-x="0" 
d="M-71 718h142l129 -145h-109l-91 58l-91 -58h-109z" />
    <glyph glyph-name="tildecmb" unicode="&#x303;" horiz-adv-x="0" 
d="M-83 726c15 0 29 -2 43 -6s32 -12 54 -25c15 -8 26 -13 34 -16c7 -3 14 -4 21 -4c10 0 18 4 24 12s11 21 14 39h86c-2 -47 -13 -85 -32 -112s-45 -41 -77 -41c-15 0 -29 2 -43 6s-32 12 -54 25c-15 9 -27 14 -34 17c-7 2 -14 3 -21 3c-10 0 -18 -4 -24 -12
s-11 -21 -14 -39h-86c2 47 13 85 32 112s45 41 77 41z" />
    <glyph glyph-name="uni0304" unicode="&#x304;" horiz-adv-x="0" 
d="M183 696v-106h-366v106h366z" />
    <glyph glyph-name="uni0306" unicode="&#x306;" horiz-adv-x="0" 
d="M0 662c28 0 50 5 65 15c15 9 24 23 26 41h96c-1 -47 -17 -83 -50 -109s-78 -39 -137 -39s-104 13 -137 39s-49 62 -50 109h96c2 -18 11 -32 26 -41c15 -10 37 -15 65 -15z" />
    <glyph glyph-name="uni0307" unicode="&#x307;" horiz-adv-x="0" 
d="M72 588h-144v130h144v-130z" />
    <glyph glyph-name="uni0308" unicode="&#x308;" horiz-adv-x="0" 
d="M-51 588h-144v130h144v-130zM195 588h-144v130h144v-130z" />
    <glyph glyph-name="uni030A" unicode="&#x30a;" horiz-adv-x="0" 
d="M0 561c-33 0 -60 11 -81 32c-22 21 -33 46 -33 77c0 30 11 56 33 77c21 21 48 31 81 31s60 -10 82 -31c21 -21 32 -47 32 -77c0 -31 -11 -56 -32 -77c-22 -21 -49 -32 -82 -32zM0 715c-12 0 -22 -4 -31 -13s-13 -20 -13 -32c0 -13 4 -23 13 -32c8 -9 18 -13 31 -13
s23 4 32 13c8 9 12 19 12 32c0 12 -4 23 -13 32s-19 13 -31 13z" />
    <glyph glyph-name="uni030B" unicode="&#x30b;" horiz-adv-x="0" 
d="M89 573h-106l93 145h154zM-124 573h-106l93 145h153z" />
    <glyph glyph-name="uni030C" unicode="&#x30c;" horiz-adv-x="0" 
d="M200 718l-129 -145h-142l-129 145h109l91 -58l91 58h109z" />
    <glyph glyph-name="uni0315" unicode="&#x315;" horiz-adv-x="0" 
d="M6 552h-95l25 166h153z" />
    <glyph glyph-name="uni0327" unicode="&#x327;" horiz-adv-x="0" 
d="M139 -100c0 -27 -13 -48 -39 -64c-27 -16 -61 -24 -103 -24c-28 0 -54 3 -78 10c-24 6 -43 15 -58 26l43 64c12 -9 25 -16 40 -21c14 -5 30 -7 47 -7s31 2 40 6s13 10 13 18c0 9 -7 16 -21 21c-15 4 -40 6 -75 7l23 76h67l-10 -33c34 -1 61 -9 81 -23
c20 -15 30 -33 30 -56z" />
    <glyph glyph-name="uni0328" unicode="&#x328;" horiz-adv-x="0" 
d="M28 -184c-39 0 -70 8 -94 25c-25 16 -37 37 -37 64c0 31 14 59 43 84c28 25 69 44 122 58l41 -47c-39 -12 -67 -23 -84 -34c-18 -11 -27 -22 -27 -35c0 -9 6 -17 17 -22c11 -6 25 -9 44 -9c9 0 17 1 26 2c8 1 16 2 24 4v-82c-15 -3 -29 -5 -41 -6c-13 -1 -24 -2 -34 -2z
" />
    <glyph glyph-name="Wgrave" unicode="&#x1e80;" horiz-adv-x="1182" 
d="M336 162l180 556h153l179 -556l189 556h151l-251 -718h-171l-175 549l-177 -549h-170l-251 718h154zM546 910l117 -151h-126l-190 151h199z" />
    <glyph glyph-name="wgrave" unicode="&#x1e81;" horiz-adv-x="921" 
d="M278 170l125 356h122l126 -356l128 356h144l-207 -526h-126l-129 350l-129 -350h-126l-208 526h149zM425 718l104 -145h-118l-166 145h180z" />
    <glyph glyph-name="Wacute" unicode="&#x1e82;" horiz-adv-x="1182" 
d="M336 162l180 556h153l179 -556l189 556h151l-251 -718h-171l-175 549l-177 -549h-170l-251 718h154zM652 759h-126l117 151h199z" />
    <glyph glyph-name="wacute" unicode="&#x1e83;" horiz-adv-x="921" 
d="M278 170l125 356h122l126 -356l128 356h144l-207 -526h-126l-129 350l-129 -350h-126l-208 526h149zM520 573h-118l104 145h180z" />
    <glyph glyph-name="Wdieresis" unicode="&#x1e84;" horiz-adv-x="1182" 
d="M336 162l180 556h153l179 -556l189 556h151l-251 -718h-171l-175 549l-177 -549h-170l-251 718h154zM536 759h-144v132h144v-132zM790 759h-144v132h144v-132z" />
    <glyph glyph-name="wdieresis" unicode="&#x1e85;" horiz-adv-x="921" 
d="M278 170l125 356h122l126 -356l128 356h144l-207 -526h-126l-129 350l-129 -350h-126l-208 526h149zM409 588h-144v130h144v-130zM655 588h-144v130h144v-130z" />
    <glyph glyph-name="Ygrave" unicode="&#x1ef2;" horiz-adv-x="848" 
d="M169 718l257 -294l257 294h175l-360 -413v-305h-147v305l-361 413h179zM407 910l117 -151h-126l-190 151h199z" />
    <glyph glyph-name="ygrave" unicode="&#x1ef3;" horiz-adv-x="658" 
d="M660 526l-275 -563c-26 -54 -56 -92 -91 -115s-80 -35 -136 -35c-19 0 -40 2 -62 7c-23 4 -40 9 -52 15l25 114c14 -7 27 -12 40 -15c12 -3 24 -5 37 -5c28 0 51 6 68 17s29 28 38 51l5 16l-259 513h156l180 -375l176 375h150zM308 718l104 -145h-118l-166 145h180z" />
    <glyph glyph-name="uni2009" unicode="&#x2009;" horiz-adv-x="100" 
 />
    <glyph glyph-name="endash" unicode="&#x2013;" horiz-adv-x="542" 
d="M502 235h-462v114h462v-114z" />
    <glyph glyph-name="emdash" unicode="&#x2014;" horiz-adv-x="976" 
d="M936 235h-896v114h896v-114z" />
    <glyph glyph-name="quoteleft" unicode="&#x2018;" horiz-adv-x="208" 
d="M117 572h69v-155h-164v157c0 44 15 79 45 105c29 25 69 38 119 39v-74c-23 -2 -41 -8 -52 -18s-17 -25 -17 -44v-10z" />
    <glyph glyph-name="quoteright" unicode="&#x2019;" horiz-adv-x="208" 
d="M91 563h-69v155h164v-157c0 -44 -15 -79 -44 -104c-30 -26 -70 -39 -120 -40v74c23 2 41 8 52 18s17 25 17 44v10z" />
    <glyph glyph-name="quotesinglbase" unicode="&#x201a;" horiz-adv-x="208" 
d="M91 11h-69v155h164v-157c0 -44 -15 -79 -44 -104c-30 -26 -70 -39 -120 -40v74c23 2 41 8 52 18s17 25 17 44v10z" />
    <glyph glyph-name="quotedblleft" unicode="&#x201c;" horiz-adv-x="423" 
d="M117 572h69v-155h-164v157c0 44 15 79 45 105c29 25 69 38 119 39v-74c-23 -2 -41 -8 -52 -18s-17 -25 -17 -44v-10zM333 572h69v-155h-164v157c0 44 15 79 45 105c29 25 69 38 119 39v-74c-23 -2 -41 -8 -52 -18s-17 -25 -17 -44v-10z" />
    <glyph glyph-name="quotedblright" unicode="&#x201d;" horiz-adv-x="423" 
d="M90 563h-69v155h164v-157c0 -44 -15 -79 -44 -104c-30 -26 -70 -39 -120 -40v74c23 2 41 8 52 18s17 25 17 44v10zM306 563h-69v155h164v-157c0 -44 -15 -79 -44 -104c-30 -26 -70 -39 -120 -40v74c23 2 41 8 52 18s17 25 17 44v10z" />
    <glyph glyph-name="quotedblbase" unicode="&#x201e;" horiz-adv-x="423" 
d="M306 11h-69v155h164v-157c0 -44 -15 -79 -44 -104c-30 -26 -70 -39 -120 -40v74c23 2 41 8 52 18s17 25 17 44v10zM90 11h-69v155h164v-157c0 -44 -15 -79 -44 -104c-30 -26 -70 -39 -120 -40v74c23 2 41 8 52 18s17 25 17 44v10z" />
    <glyph glyph-name="dagger" unicode="&#x2020;" horiz-adv-x="409" 
d="M258 282h-107v226h-133v106h133v124h107v-124h133v-106h-133v-226z" />
    <glyph glyph-name="daggerdbl" unicode="&#x2021;" horiz-adv-x="405" 
d="M257 282h-109v89h-129v98h129v82h-129v99h129v88h109v-88h130v-99h-130v-82h130v-98h-130v-89z" />
    <glyph glyph-name="bullet" unicode="&#x2022;" horiz-adv-x="434" 
d="M37 291c0 52 17 95 52 130c34 34 77 51 129 51c51 0 94 -17 128 -51c34 -35 51 -78 51 -130c0 -51 -17 -94 -51 -128c-35 -34 -77 -51 -128 -51s-94 17 -129 51s-52 77 -52 128z" />
    <glyph glyph-name="ellipsis" unicode="&#x2026;" horiz-adv-x="695" 
d="M202 0h-164v162h164v-162zM430 0h-164v162h164v-162zM657 0h-164v162h164v-162z" />
    <glyph glyph-name="guilsinglleft" unicode="&#x2039;" horiz-adv-x="298" 
d="M260 59l-222 136v130l222 136v-135l-102 -66l102 -66v-135z" />
    <glyph glyph-name="guilsinglright" unicode="&#x203a;" horiz-adv-x="298" 
d="M260 325v-130l-222 -136v135l102 66l-102 66v135z" />
    <glyph glyph-name="fraction" unicode="&#x2044;" horiz-adv-x="152" 
d="M-270 0l569 718h123l-569 -718h-123z" />
    <glyph glyph-name="uni2070" unicode="&#x2070;" horiz-adv-x="510" 
d="M255 314c-67 0 -122 20 -165 59c-44 39 -66 88 -66 147s22 108 66 147c43 38 98 57 165 57s122 -19 166 -57c43 -39 65 -88 65 -147s-22 -108 -65 -147c-44 -39 -99 -59 -166 -59zM255 632c-35 0 -64 -10 -85 -31c-22 -21 -33 -48 -33 -81c0 -34 11 -61 33 -82
c21 -21 50 -32 85 -32s63 11 85 32c21 21 32 48 32 82c0 33 -11 60 -32 81c-22 21 -50 31 -85 31z" />
    <glyph glyph-name="uni2074" unicode="&#x2074;" horiz-adv-x="471" 
d="M369 407v-87h-106v87h-252v81l217 230h141v-225h91v-86h-91zM263 630l-130 -137h130v137z" />
    <glyph glyph-name="uni2075" unicode="&#x2075;" horiz-adv-x="443" 
d="M219 509c-19 0 -36 -2 -53 -7s-32 -11 -45 -19l-96 14l29 221h346v-90h-262l-8 -60c15 7 32 13 51 17s38 6 59 6c57 0 103 -12 137 -36c34 -25 51 -58 51 -99c0 -42 -19 -76 -58 -102c-39 -27 -89 -40 -150 -40c-54 0 -101 10 -140 30s-66 47 -80 82l100 39
c9 -19 25 -35 47 -46c21 -11 46 -17 74 -17c29 0 52 5 70 15c17 9 26 22 26 38c0 17 -9 30 -26 40c-18 9 -42 14 -72 14z" />
    <glyph glyph-name="uni2076" unicode="&#x2076;" horiz-adv-x="489" 
d="M268 724c44 0 83 -6 116 -19s60 -31 79 -55l-68 -64c-14 17 -32 30 -55 39s-47 13 -74 13c-39 0 -72 -9 -97 -26c-25 -18 -38 -39 -38 -64c16 13 36 24 61 31c24 7 50 10 79 10c57 0 104 -12 141 -37s55 -57 55 -96c0 -43 -20 -77 -60 -103s-92 -39 -157 -39
c-69 0 -124 18 -165 54c-41 35 -61 83 -61 143c0 64 22 116 67 155s104 58 177 58zM249 398c31 0 57 5 77 15c19 10 29 23 29 39c0 17 -10 30 -29 40s-45 15 -78 15c-32 0 -58 -5 -77 -15s-29 -23 -29 -40s10 -30 30 -39c19 -10 45 -15 77 -15z" />
    <glyph glyph-name="uni2077" unicode="&#x2077;" horiz-adv-x="443" 
d="M310 628h-206v-74h-93v164h421v-96c-51 -42 -89 -87 -113 -136c-25 -49 -37 -105 -37 -166h-116c0 61 12 117 37 169c24 51 60 98 107 139z" />
    <glyph glyph-name="uni2078" unicode="&#x2078;" horiz-adv-x="474" 
d="M39 607c0 36 18 65 55 86s84 31 143 31s106 -10 143 -31s55 -50 55 -86c0 -18 -5 -33 -15 -46s-26 -25 -47 -35c28 -9 49 -22 64 -37c14 -16 21 -35 21 -56c0 -37 -20 -66 -60 -87s-94 -32 -161 -32s-121 11 -161 32s-60 50 -60 87c0 21 7 40 22 56c15 15 36 28 64 37
c-21 9 -37 21 -47 34c-11 13 -16 29 -16 47zM150 606c0 -13 8 -22 23 -29s36 -10 64 -10s50 3 65 10s23 16 23 29s-7 22 -22 29s-37 10 -66 10s-50 -3 -65 -10s-22 -16 -22 -29zM347 441c0 15 -10 26 -29 34c-19 7 -46 11 -81 11s-61 -4 -80 -11c-19 -8 -29 -19 -29 -34
s9 -26 28 -34s46 -12 81 -12s63 4 82 12s28 19 28 34z" />
    <glyph glyph-name="uni2079" unicode="&#x2079;" horiz-adv-x="489" 
d="M222 314c-44 0 -83 7 -116 20s-60 31 -79 55l68 63c14 -17 32 -29 55 -38c22 -9 47 -14 74 -14c39 0 71 9 96 27c25 17 38 38 38 62c-17 -13 -37 -22 -61 -29s-50 -10 -78 -10c-57 0 -104 13 -141 38s-56 56 -56 94c0 43 20 77 60 103s92 39 157 39c70 0 125 -18 166 -53
c40 -35 60 -83 60 -143c0 -65 -22 -116 -66 -155c-45 -39 -104 -59 -177 -59zM241 640c-32 0 -58 -5 -77 -15c-20 -10 -30 -23 -30 -39c0 -17 10 -30 30 -40c19 -10 45 -15 77 -15s58 5 78 15c19 10 29 23 29 40c0 16 -10 29 -29 39c-20 10 -46 15 -78 15z" />
    <glyph glyph-name="uni2080" unicode="&#x2080;" horiz-adv-x="510" 
d="M255 -126c-67 0 -122 20 -165 59c-44 39 -66 88 -66 147s22 108 66 147c43 38 98 57 165 57s122 -19 166 -57c43 -39 65 -88 65 -147s-22 -108 -65 -147c-44 -39 -99 -59 -166 -59zM255 192c-35 0 -64 -10 -85 -31c-22 -21 -33 -48 -33 -81c0 -34 11 -61 33 -82
c21 -21 50 -32 85 -32s63 11 85 32c21 21 32 48 32 82c0 33 -11 60 -32 81c-22 21 -50 31 -85 31z" />
    <glyph glyph-name="uni2081" unicode="&#x2081;" horiz-adv-x="373" 
d="M141 -28v156h-128v82l60 2c30 1 52 6 67 17c14 10 23 26 27 49h85v-306h114v-92h-353v92h128z" />
    <glyph glyph-name="uni2082" unicode="&#x2082;" horiz-adv-x="444" 
d="M27 -120v79l169 92c47 24 77 42 90 54c12 11 18 24 18 38c0 15 -7 27 -20 36s-31 14 -54 14c-29 0 -54 -8 -74 -24c-21 -16 -33 -37 -38 -63l-100 21c7 47 30 85 69 114s89 43 148 43c54 0 98 -12 132 -36c33 -24 50 -56 50 -96c0 -29 -9 -55 -27 -77
c-19 -22 -49 -43 -90 -62l-83 -42h209v-91h-399z" />
    <glyph glyph-name="uni2083" unicode="&#x2083;" horiz-adv-x="464" 
d="M447 -6c0 -35 -20 -63 -59 -86s-91 -34 -154 -34c-56 0 -104 10 -143 29s-68 47 -87 83l97 44c10 -21 27 -37 52 -49c24 -13 51 -19 81 -19c27 0 50 4 67 12c17 7 25 17 25 30s-7 22 -22 28s-37 9 -66 9h-74v82h69c29 0 50 3 64 9c14 5 21 14 21 26c0 11 -7 20 -22 27
s-36 10 -62 10c-29 0 -54 -6 -76 -17s-37 -26 -46 -44l-92 43c16 33 44 59 84 78s86 29 138 29c59 0 107 -11 143 -32c35 -21 53 -49 53 -84c0 -19 -6 -37 -19 -52s-30 -26 -51 -33c27 -8 47 -19 60 -34s19 -33 19 -55z" />
    <glyph glyph-name="uni2084" unicode="&#x2084;" horiz-adv-x="471" 
d="M369 -33v-87h-106v87h-252v81l217 230h141v-225h91v-86h-91zM263 190l-130 -137h130v137z" />
    <glyph glyph-name="uni2085" unicode="&#x2085;" horiz-adv-x="443" 
d="M219 69c-19 0 -36 -2 -53 -7s-32 -11 -45 -19l-96 14l29 221h346v-90h-262l-8 -60c15 7 32 13 51 17s38 6 59 6c57 0 103 -12 137 -36c34 -25 51 -58 51 -99c0 -42 -19 -76 -58 -102c-39 -27 -89 -40 -150 -40c-54 0 -101 10 -140 30s-66 47 -80 82l100 39
c9 -19 25 -35 47 -46c21 -11 46 -17 74 -17c29 0 52 5 70 15c17 9 26 22 26 38c0 17 -9 30 -26 40c-18 9 -42 14 -72 14z" />
    <glyph glyph-name="uni2086" unicode="&#x2086;" horiz-adv-x="489" 
d="M268 284c44 0 83 -6 116 -19s60 -31 79 -55l-68 -64c-14 17 -32 30 -55 39s-47 13 -74 13c-39 0 -72 -9 -97 -26c-25 -18 -38 -39 -38 -64c16 13 36 24 61 31c24 7 50 10 79 10c57 0 104 -12 141 -37s55 -57 55 -96c0 -43 -20 -77 -60 -103s-92 -39 -157 -39
c-69 0 -124 18 -165 54c-41 35 -61 83 -61 143c0 64 22 116 67 155s104 58 177 58zM249 -42c31 0 57 5 77 15c19 10 29 23 29 39c0 17 -10 30 -29 40s-45 15 -78 15c-32 0 -58 -5 -77 -15s-29 -23 -29 -40s10 -30 30 -39c19 -10 45 -15 77 -15z" />
    <glyph glyph-name="uni2087" unicode="&#x2087;" horiz-adv-x="443" 
d="M310 188h-206v-74h-93v164h421v-96c-51 -42 -89 -87 -113 -136c-25 -49 -37 -105 -37 -166h-116c0 61 12 117 37 169c24 51 60 98 107 139z" />
    <glyph glyph-name="uni2088" unicode="&#x2088;" horiz-adv-x="474" 
d="M39 167c0 36 18 65 55 86s84 31 143 31s106 -10 143 -31s55 -50 55 -86c0 -18 -5 -33 -15 -46s-26 -25 -47 -35c28 -9 49 -22 64 -37c14 -16 21 -35 21 -56c0 -37 -20 -66 -60 -87s-94 -32 -161 -32s-121 11 -161 32s-60 50 -60 87c0 21 7 40 22 56c15 15 36 28 64 37
c-21 9 -37 21 -47 34c-11 13 -16 29 -16 47zM150 166c0 -13 8 -22 23 -29s36 -10 64 -10s50 3 65 10s23 16 23 29s-7 22 -22 29s-37 10 -66 10s-50 -3 -65 -10s-22 -16 -22 -29zM347 1c0 15 -10 26 -29 34c-19 7 -46 11 -81 11s-61 -4 -80 -11c-19 -8 -29 -19 -29 -34
s9 -26 28 -34s46 -12 81 -12s63 4 82 12s28 19 28 34z" />
    <glyph glyph-name="uni2089" unicode="&#x2089;" horiz-adv-x="489" 
d="M221 -126c-44 0 -83 7 -116 20s-60 31 -79 55l68 63c14 -17 32 -29 55 -38c22 -9 47 -14 74 -14c39 0 71 9 96 27c25 17 38 38 38 62c-17 -13 -37 -22 -61 -29s-50 -10 -78 -10c-57 0 -104 13 -141 38s-56 56 -56 94c0 43 20 77 60 103s92 39 157 39
c70 0 125 -18 166 -53c40 -35 60 -83 60 -143c0 -65 -22 -116 -66 -155c-45 -39 -104 -59 -177 -59zM240 200c-32 0 -58 -5 -77 -15c-20 -10 -30 -23 -30 -39c0 -17 10 -30 30 -40c19 -10 45 -15 77 -15s58 5 78 15c19 10 29 23 29 40c0 16 -10 29 -29 39
c-20 10 -46 15 -78 15z" />
    <glyph glyph-name="Euro" unicode="&#x20ac;" horiz-adv-x="892" 
d="M132 236h-113v96h93c-1 3 -1 7 -1 11v16v20c0 4 0 8 1 11h-93v95h114c28 75 77 134 147 178c69 44 149 66 240 66c88 0 164 -19 228 -58s109 -94 136 -163l-122 -64c-20 51 -51 90 -93 117c-43 27 -93 41 -152 41c-51 0 -97 -10 -138 -30c-41 -21 -72 -50 -94 -87h304
l-22 -95h-313c-1 -8 -1 -14 -1 -18c-1 -5 -1 -9 -1 -13v-16c0 -4 0 -8 1 -11h301l-21 -96h-249c22 -38 53 -67 94 -88s87 -32 139 -32c59 0 109 14 152 41c42 27 73 66 93 117l122 -64c-27 -69 -72 -123 -136 -162s-140 -59 -228 -59c-91 0 -172 22 -242 67
s-119 105 -146 180z" />
    <glyph glyph-name="trademark" unicode="&#x2122;" horiz-adv-x="929" 
d="M253 624v-244h-106v244h-127v94h359v-94h-126zM794 594l-102 -214h-58l-102 214v-214h-95v338h136l92 -187l91 187h134v-338h-96v214z" />
    <glyph glyph-name="uni2153" unicode="&#x2153;" horiz-adv-x="1060" 
d="M366 320h-353v92h128v156h-128v82l60 2c30 1 52 6 67 17c14 10 23 26 27 49h85v-306h114v-92zM173 0l569 718h123l-569 -718h-123zM1042 114c0 -35 -20 -63 -59 -86s-91 -34 -154 -34c-56 0 -104 10 -143 29s-68 47 -87 83l97 44c10 -21 27 -37 52 -49
c24 -13 51 -19 81 -19c27 0 50 4 67 12c17 7 25 17 25 30s-7 22 -22 28s-37 9 -66 9h-74v82h69c29 0 50 3 64 9c14 5 21 14 21 26c0 11 -7 20 -22 27s-36 10 -62 10c-29 0 -54 -6 -76 -17s-37 -26 -46 -44l-92 43c16 33 44 59 84 78s86 29 138 29c59 0 107 -11 143 -32
c35 -21 53 -49 53 -84c0 -19 -6 -37 -19 -52s-30 -26 -51 -33c27 -8 47 -19 60 -34s19 -33 19 -55z" />
    <glyph glyph-name="uni2154" unicode="&#x2154;" horiz-adv-x="1115" 
d="M25 320v79l169 92c47 24 77 42 90 54c12 11 18 24 18 38c0 15 -7 27 -20 36s-31 14 -54 14c-29 0 -54 -8 -74 -24c-21 -16 -33 -37 -38 -63l-100 21c7 47 30 85 69 114s89 43 148 43c54 0 98 -12 132 -36c33 -24 50 -56 50 -96c0 -29 -9 -55 -27 -77
c-19 -22 -49 -43 -90 -62l-83 -42h209v-91h-399zM228 0l569 718h123l-569 -718h-123zM1098 114c0 -35 -20 -63 -59 -86s-91 -34 -154 -34c-56 0 -104 10 -143 29s-68 47 -87 83l97 44c10 -21 27 -37 52 -49c24 -13 51 -19 81 -19c27 0 50 4 67 12c17 7 25 17 25 30
s-7 22 -22 28s-37 9 -66 9h-74v82h69c29 0 50 3 64 9c14 5 21 14 21 26c0 11 -7 20 -22 27s-36 10 -62 10c-29 0 -54 -6 -76 -17s-37 -26 -46 -44l-92 43c16 33 44 59 84 78s86 29 138 29c59 0 107 -11 143 -32c35 -21 53 -49 53 -84c0 -19 -6 -37 -19 -52s-30 -26 -51 -33
c27 -8 47 -19 60 -34s19 -33 19 -55z" />
    <glyph glyph-name="uni215B" unicode="&#x215b;" horiz-adv-x="1069" 
d="M366 320h-353v92h128v156h-128v82l60 2c30 1 52 6 67 17c14 10 23 26 27 49h85v-306h114v-92zM173 0l569 718h123l-569 -718h-123zM634 287c0 36 18 65 55 86s84 31 143 31s106 -10 143 -31s55 -50 55 -86c0 -18 -5 -33 -15 -46s-26 -25 -47 -35c28 -9 49 -22 64 -37
c14 -16 21 -35 21 -56c0 -37 -20 -66 -60 -87s-94 -32 -161 -32s-121 11 -161 32s-60 50 -60 87c0 21 7 40 22 56c15 15 36 28 64 37c-21 9 -37 21 -47 34c-11 13 -16 29 -16 47zM745 286c0 -13 8 -22 23 -29s36 -10 64 -10s50 3 65 10s23 16 23 29s-7 22 -22 29
s-37 10 -66 10s-50 -3 -65 -10s-22 -16 -22 -29zM942 121c0 15 -10 26 -29 34c-19 7 -46 11 -81 11s-61 -4 -80 -11c-19 -8 -29 -19 -29 -34s9 -26 28 -34s46 -12 81 -12s63 4 82 12s28 19 28 34z" />
    <glyph glyph-name="uni215C" unicode="&#x215c;" horiz-adv-x="1091" 
d="M447 434c0 -35 -20 -63 -59 -86s-91 -34 -154 -34c-56 0 -104 10 -143 29s-68 47 -87 83l97 44c10 -21 27 -37 52 -49c24 -13 51 -19 81 -19c27 0 50 4 67 12c17 7 25 17 25 30s-7 22 -22 28s-37 9 -66 9h-74v82h69c29 0 50 3 64 9c14 5 21 14 21 26c0 11 -7 20 -22 27
s-36 10 -62 10c-29 0 -54 -6 -76 -17s-37 -26 -46 -44l-92 43c16 33 44 59 84 78s86 29 138 29c59 0 107 -11 143 -32c35 -21 53 -49 53 -84c0 -19 -6 -37 -19 -52s-30 -26 -51 -33c27 -8 47 -19 60 -34s19 -33 19 -55zM194 0l569 718h123l-569 -718h-123zM656 287
c0 36 18 65 55 86s84 31 143 31s106 -10 143 -31s55 -50 55 -86c0 -18 -5 -33 -15 -46s-26 -25 -47 -35c28 -9 49 -22 64 -37c14 -16 21 -35 21 -56c0 -37 -20 -66 -60 -87s-94 -32 -161 -32s-121 11 -161 32s-60 50 -60 87c0 21 7 40 22 56c15 15 36 28 64 37
c-21 9 -37 21 -47 34c-11 13 -16 29 -16 47zM767 286c0 -13 8 -22 23 -29s36 -10 64 -10s50 3 65 10s23 16 23 29s-7 22 -22 29s-37 10 -66 10s-50 -3 -65 -10s-22 -16 -22 -29zM964 121c0 15 -10 26 -29 34c-19 7 -46 11 -81 11s-61 -4 -80 -11c-19 -8 -29 -19 -29 -34
s9 -26 28 -34s46 -12 81 -12s63 4 82 12s28 19 28 34z" />
    <glyph glyph-name="uni215D" unicode="&#x215d;" horiz-adv-x="1070" 
d="M219 509c-19 0 -36 -2 -53 -7s-32 -11 -45 -19l-96 14l29 221h346v-90h-262l-8 -60c15 7 32 13 51 17s38 6 59 6c57 0 103 -12 137 -36c34 -25 51 -58 51 -99c0 -42 -19 -76 -58 -102c-39 -27 -89 -40 -150 -40c-54 0 -101 10 -140 30s-66 47 -80 82l100 39
c9 -19 25 -35 47 -46c21 -11 46 -17 74 -17c29 0 52 5 70 15c17 9 26 22 26 38c0 17 -9 30 -26 40c-18 9 -42 14 -72 14zM173 0l569 718h123l-569 -718h-123zM635 287c0 36 18 65 55 86s84 31 143 31s106 -10 143 -31s55 -50 55 -86c0 -18 -5 -33 -15 -46s-26 -25 -47 -35
c28 -9 49 -22 64 -37c14 -16 21 -35 21 -56c0 -37 -20 -66 -60 -87s-94 -32 -161 -32s-121 11 -161 32s-60 50 -60 87c0 21 7 40 22 56c15 15 36 28 64 37c-21 9 -37 21 -47 34c-11 13 -16 29 -16 47zM746 286c0 -13 8 -22 23 -29s36 -10 64 -10s50 3 65 10s23 16 23 29
s-7 22 -22 29s-37 10 -66 10s-50 -3 -65 -10s-22 -16 -22 -29zM943 121c0 15 -10 26 -29 34c-19 7 -46 11 -81 11s-61 -4 -80 -11c-19 -8 -29 -19 -29 -34s9 -26 28 -34s46 -12 81 -12s63 4 82 12s28 19 28 34z" />
    <glyph glyph-name="uni215E" unicode="&#x215e;" horiz-adv-x="1036" 
d="M310 628h-206v-74h-93v164h421v-96c-51 -42 -89 -87 -113 -136c-25 -49 -37 -105 -37 -166h-116c0 61 12 117 37 169c24 51 60 98 107 139zM139 0l569 718h123l-569 -718h-123zM601 287c0 36 18 65 55 86s84 31 143 31s106 -10 143 -31s55 -50 55 -86
c0 -18 -5 -33 -15 -46s-26 -25 -47 -35c28 -9 49 -22 64 -37c14 -16 21 -35 21 -56c0 -37 -20 -66 -60 -87s-94 -32 -161 -32s-121 11 -161 32s-60 50 -60 87c0 21 7 40 22 56c15 15 36 28 64 37c-21 9 -37 21 -47 34c-11 13 -16 29 -16 47zM712 286c0 -13 8 -22 23 -29
s36 -10 64 -10s50 3 65 10s23 16 23 29s-7 22 -22 29s-37 10 -66 10s-50 -3 -65 -10s-22 -16 -22 -29zM909 121c0 15 -10 26 -29 34c-19 7 -46 11 -81 11s-61 -4 -80 -11c-19 -8 -29 -19 -29 -34s9 -26 28 -34s46 -12 81 -12s63 4 82 12s28 19 28 34z" />
    <glyph glyph-name="minus" unicode="&#x2212;" horiz-adv-x="800" 
d="M740 294h-680v120h680v-120z" />
    <glyph glyph-name="uniF6C3" unicode="&#xf6c3;" 
d="M281 -119h-52v85h140v-57c0 -37 -12 -66 -37 -86s-59 -30 -103 -30v56c17 0 29 3 37 8s13 13 15 24z" />
    <glyph glyph-name="i.loclTRK" horiz-adv-x="247" 
d="M195 588h-143v130h143v-130zM54 526h140v-526h-140v526z" />
    <glyph glyph-name="a.ord" horiz-adv-x="487" 
d="M336 384c-18 -16 -41 -28 -68 -37s-57 -13 -88 -13c-48 0 -86 11 -115 32s-44 49 -44 84c0 33 13 60 40 81c27 20 64 32 113 37l152 15v2c0 17 -8 30 -23 39s-37 14 -65 14c-25 0 -48 -5 -67 -14c-19 -10 -32 -23 -37 -38l-99 28c11 33 36 60 74 81c38 20 83 30 134 30
c61 0 108 -12 141 -36s49 -59 49 -105v-140c0 -12 4 -19 11 -22c3 -1 8 -2 13 -2c7 0 15 1 25 3v-81c-18 -4 -34 -6 -49 -6c-16 0 -30 2 -43 6c-25 7 -43 21 -54 42zM200 415c34 0 64 7 89 21c25 13 37 30 37 50v22l-136 -14c-22 -2 -38 -6 -47 -12c-9 -7 -14 -16 -14 -28
c0 -13 6 -22 19 -29c12 -7 29 -10 52 -10z" />
    <glyph glyph-name="b.ord" horiz-adv-x="528" 
d="M505 529c0 -57 -19 -104 -56 -141s-86 -55 -147 -55c-29 0 -55 5 -79 14s-44 22 -59 38v-43h-111v513h111v-180c15 15 34 28 59 37c24 9 50 13 79 13c61 0 110 -18 147 -55s56 -84 56 -141zM280 636c-35 0 -63 -10 -86 -30s-34 -45 -34 -76v-2c0 -31 11 -56 34 -75
c23 -20 51 -30 86 -30c34 0 62 10 85 30c22 19 33 45 33 76c0 32 -11 58 -33 78c-22 19 -50 29 -85 29z" />
    <glyph glyph-name="c.ord" horiz-adv-x="458" 
d="M248 635c-35 0 -63 -10 -84 -29c-22 -19 -33 -45 -33 -77c0 -31 11 -57 33 -76c21 -19 49 -29 84 -29c26 0 49 7 69 21c19 14 33 32 40 54l95 -43c-13 -36 -37 -65 -74 -88s-80 -35 -129 -35c-66 0 -120 18 -162 55c-43 37 -64 84 -64 141c0 58 21 105 64 142
c42 36 96 54 162 54c49 0 93 -12 130 -35s62 -53 73 -88l-95 -41c-7 22 -21 40 -41 54c-20 13 -43 20 -68 20z" />
    <glyph glyph-name="d.ord" horiz-adv-x="528" 
d="M226 333c-60 0 -109 19 -146 56c-38 37 -57 83 -57 140s19 104 56 141s86 55 147 55c29 0 56 -4 80 -13s43 -22 58 -37v180h111v-513h-111v43c-15 -16 -34 -29 -58 -38s-51 -14 -80 -14zM368 528v2c0 31 -11 56 -34 76s-51 30 -85 30c-35 0 -63 -10 -85 -29
c-22 -20 -33 -46 -33 -78s11 -58 33 -77s50 -29 85 -29c34 0 62 10 85 30c23 19 34 44 34 75z" />
    <glyph glyph-name="e.ord" horiz-adv-x="483" 
d="M249 333c-67 0 -121 18 -163 55s-63 84 -63 142c0 56 21 103 64 140c42 37 96 55 161 55c63 0 115 -18 154 -54s58 -82 58 -139v-31h-330c7 -25 20 -44 41 -58s46 -21 77 -21c26 0 49 6 68 17s33 27 41 46l97 -37c-14 -35 -40 -62 -77 -83s-80 -32 -128 -32zM245 640
c-27 0 -51 -6 -71 -18c-20 -13 -34 -30 -41 -52h217c-3 19 -15 36 -35 50c-20 13 -43 20 -70 20z" />
    <glyph glyph-name="f.ord" horiz-adv-x="336" 
d="M260 863c16 0 33 -1 50 -4s31 -6 42 -10l-14 -87c-11 3 -22 6 -33 7s-24 2 -39 2c-25 0 -44 -4 -55 -11c-12 -8 -18 -21 -18 -38v-4h141v-91h-140v-285h-109v285h-87v91h87v6c0 45 15 80 45 104c29 23 73 35 130 35z" />
    <glyph glyph-name="g.ord" horiz-adv-x="524" 
d="M471 718v-321c0 -58 -22 -104 -65 -138c-44 -35 -101 -52 -172 -52c-52 0 -96 8 -133 25s-64 40 -79 71l89 52c10 -20 26 -35 47 -46s47 -16 76 -16c37 0 67 9 91 26c23 17 35 39 35 67v13c-15 -16 -34 -28 -57 -37c-24 -9 -50 -13 -79 -13c-61 0 -110 18 -147 53
c-38 35 -57 80 -57 135s19 100 57 135c37 35 86 53 147 53c29 0 55 -4 79 -13c23 -9 42 -21 57 -36v42h111zM365 536v3c0 29 -11 53 -34 72s-51 28 -85 28s-62 -9 -84 -28c-23 -19 -34 -44 -34 -74s11 -54 34 -73c22 -19 50 -28 84 -28c35 0 63 9 86 28c22 19 33 43 33 72z
" />
    <glyph glyph-name="h.ord" horiz-adv-x="515" 
d="M164 342h-111v513h111v-183c16 17 36 30 60 39c23 9 49 14 77 14c50 0 90 -15 120 -46s45 -73 45 -124v-213h-111v182c0 33 -8 58 -23 76c-16 18 -39 27 -68 27c-31 0 -56 -9 -73 -27c-18 -19 -27 -44 -27 -77v-181z" />
    <glyph glyph-name="i.ord" horiz-adv-x="216" 
d="M164 758h-112v97h112v-97zM52 718h111v-376h-111v376z" />
    <glyph glyph-name="j.ord" horiz-adv-x="216" 
d="M164 758h-112v97h112v-97zM-11 296c23 0 39 5 49 15c9 9 14 25 14 46v361h111v-362c0 -49 -14 -85 -41 -110s-68 -37 -122 -37c-14 0 -29 1 -45 4c-16 2 -29 5 -39 8l16 85c11 -3 20 -6 29 -7c9 -2 18 -3 28 -3z" />
    <glyph glyph-name="k.ord" horiz-adv-x="493" 
d="M53 855h111v-300l189 163h151l-190 -159l195 -217h-138l-136 151l-71 -60v-91h-111v513z" />
    <glyph glyph-name="l.ord" horiz-adv-x="217" 
d="M53 855h111v-513h-111v513z" />
    <glyph glyph-name="m.ord" horiz-adv-x="794" 
d="M258 628c-30 0 -53 -9 -69 -26c-17 -18 -25 -43 -25 -76v-184h-111v376h111v-45c16 17 35 30 57 39s46 13 73 13c28 0 54 -6 77 -17c23 -12 40 -28 53 -49c19 21 42 38 69 49c26 11 54 17 85 17c52 0 93 -15 122 -46s44 -73 44 -127v-210h-111v185c0 33 -7 58 -22 75
s-36 26 -63 26c-30 0 -53 -9 -69 -26c-17 -18 -25 -43 -25 -76v-184h-111v185c0 33 -7 58 -22 75s-36 26 -63 26z" />
    <glyph glyph-name="n.ord" horiz-adv-x="515" 
d="M164 342h-111v376h111v-46c16 17 36 30 60 39c23 9 49 14 77 14c50 0 90 -15 120 -46s45 -73 45 -124v-213h-111v182c0 33 -8 58 -23 76c-16 18 -39 27 -68 27c-31 0 -56 -9 -73 -27c-18 -19 -27 -44 -27 -77v-181z" />
    <glyph glyph-name="o.ord" horiz-adv-x="492" 
d="M246 725c65 0 119 -18 161 -54c41 -37 62 -84 62 -142c0 -57 -21 -104 -63 -141s-95 -55 -160 -55s-118 18 -160 55s-63 84 -63 141c0 58 21 105 63 142c41 36 95 54 160 54zM246 635c-34 0 -62 -10 -83 -29s-32 -45 -32 -77s11 -57 32 -76s49 -29 83 -29s62 10 84 29
c21 19 32 45 32 76c0 32 -11 58 -32 77c-22 19 -50 29 -84 29z" />
    <glyph glyph-name="p.ord" horiz-adv-x="528" 
d="M505 529c0 -57 -19 -104 -56 -141s-86 -55 -147 -55c-29 0 -55 5 -79 14s-44 22 -59 38v-170h-111v503h111v-43c15 15 34 28 59 37c24 9 50 13 79 13c61 0 110 -18 147 -55s56 -84 56 -141zM280 636c-35 0 -63 -10 -86 -30s-34 -45 -34 -76v-2c0 -31 11 -56 34 -75
c23 -20 51 -30 86 -30c34 0 62 10 85 30c22 19 33 45 33 76c0 32 -11 58 -33 78c-22 19 -50 29 -85 29z" />
    <glyph glyph-name="q.ord" horiz-adv-x="528" 
d="M226 333c-60 0 -109 19 -146 56c-38 37 -57 83 -57 140s19 104 56 141s86 55 147 55c29 0 56 -4 80 -13s43 -22 58 -37v43h111v-503h-111v170c-15 -16 -34 -29 -58 -38s-51 -14 -80 -14zM368 528v2c0 31 -11 56 -34 76s-51 30 -85 30c-35 0 -63 -10 -85 -29
c-22 -20 -33 -46 -33 -78s11 -58 33 -77s50 -29 85 -29c34 0 62 10 85 30c23 19 34 44 34 75z" />
    <glyph glyph-name="r.ord" horiz-adv-x="356" 
d="M304 720c6 0 12 0 19 -1c6 -1 14 -2 23 -3v-108c-14 3 -23 4 -28 5h-18c-45 0 -79 -10 -102 -29c-23 -20 -34 -49 -34 -88v-154h-111v376h111v-65c15 23 34 40 57 51s50 16 83 16z" />
    <glyph glyph-name="s.ord" horiz-adv-x="427" 
d="M211 333c-45 0 -87 7 -125 20c-39 13 -69 30 -90 53l55 74c21 -21 46 -36 74 -47s59 -16 93 -16c28 0 49 3 64 9c14 6 21 15 21 26c0 8 -4 14 -11 18s-21 7 -42 10c-7 1 -18 3 -33 5c-15 1 -27 2 -34 3c-65 9 -108 21 -131 38s-35 41 -35 72c0 39 17 70 52 93
c34 23 80 34 139 34c41 0 79 -6 114 -17c35 -12 62 -28 83 -48l-59 -67c-17 16 -38 28 -63 37s-51 13 -80 13c-25 0 -44 -3 -57 -8c-13 -6 -20 -14 -20 -25c0 -8 4 -14 12 -17c8 -4 40 -9 95 -16c72 -9 120 -22 145 -39c24 -17 36 -42 36 -74c0 -41 -18 -73 -55 -96
s-86 -35 -148 -35z" />
    <glyph glyph-name="t.ord" horiz-adv-x="381" 
d="M239 336c-49 0 -86 11 -113 34c-27 22 -41 54 -41 95v162h-86v91h86v105h109v-105h157v-91h-157v-139c0 -20 6 -34 17 -43s30 -14 56 -14c11 0 23 1 36 4c13 2 28 6 45 12l20 -89c-18 -7 -38 -12 -61 -16s-45 -6 -68 -6z" />
    <glyph glyph-name="u.ord" horiz-adv-x="511" 
d="M347 718h110v-376h-110v45c-17 -18 -36 -31 -59 -40s-48 -14 -76 -14c-49 0 -89 15 -118 46s-44 72 -44 123v216h110v-194c0 -31 8 -55 23 -70c15 -16 37 -24 67 -24c31 0 55 9 72 26s25 42 25 74v188z" />
    <glyph glyph-name="v.ord" horiz-adv-x="478" 
d="M481 718l-184 -376h-115l-184 376h122l122 -258l120 258h119z" />
    <glyph glyph-name="w.ord" horiz-adv-x="671" 
d="M205 475l84 243h98l85 -243l87 243h115l-149 -376h-101l-89 241l-87 -241h-101l-149 376h118z" />
    <glyph glyph-name="x.ord" horiz-adv-x="488" 
d="M490 342h-139l-107 119l-110 -119h-135l178 189l-172 187h138l101 -113l104 113h135l-171 -183z" />
    <glyph glyph-name="y.ord" horiz-adv-x="478" 
d="M480 718l-191 -396c-20 -41 -43 -70 -69 -87s-60 -26 -103 -26c-15 0 -30 2 -46 5s-28 6 -37 10l18 88c10 -5 20 -8 29 -10c9 -3 17 -4 26 -4c19 0 34 4 45 11s19 17 24 32l4 11l-182 366h123l122 -259l120 259h117z" />
    <glyph glyph-name="z.ord" horiz-adv-x="471" 
d="M192 433h246v-91h-405v81l247 204h-244v91h400v-83z" />
    <glyph glyph-name="caron.Slovak" 
d="M305 552h-95l25 166h153z" />
    <glyph glyph-name="commaturn" 
d="M318 658h52v-85h-140v57c0 37 12 66 37 86s59 30 103 30v-56c-17 0 -29 -2 -37 -7s-13 -14 -15 -25z" />
    <glyph glyph-name="grave.cap" 
d="M327 910l117 -151h-126l-190 151h199z" />
    <glyph glyph-name="acute.cap" 
d="M270 759h-126l117 151h199z" />
    <glyph glyph-name="circumflex.cap" 
d="M222 910h156l144 -151h-116l-106 67l-106 -67h-116z" />
    <glyph glyph-name="caron.cap" 
d="M522 910l-144 -151h-156l-144 151h116l106 -67l106 67h116z" />
    <glyph glyph-name="tilde.cap" 
d="M200 923c17 0 34 -2 51 -6c16 -4 37 -13 64 -26c19 -9 34 -15 44 -18c9 -3 18 -4 27 -4c11 0 20 4 27 13c7 8 12 22 16 41h93c-3 -51 -15 -91 -37 -120s-51 -44 -86 -44c-17 0 -33 2 -50 7c-17 4 -38 12 -65 25c-19 10 -34 16 -43 19s-18 4 -27 4c-12 0 -21 -4 -28 -13
s-12 -23 -15 -42h-93c2 51 14 91 36 120c21 29 50 44 86 44z" />
    <glyph glyph-name="macron.cap" 
d="M496 876v-109h-392v109h392z" />
    <glyph glyph-name="breve.cap" 
d="M300 849c28 0 51 6 70 17c18 11 27 26 27 44h103c0 -47 -18 -84 -54 -112c-36 -29 -85 -43 -146 -43s-110 14 -146 43c-36 28 -54 65 -54 112h103c0 -18 9 -33 28 -44c18 -11 41 -17 69 -17z" />
    <glyph glyph-name="dotaccent.cap" 
d="M375 759h-150v132h150v-132z" />
    <glyph glyph-name="dieresis.cap" 
d="M245 759h-144v132h144v-132zM499 759h-144v132h144v-132z" />
    <glyph glyph-name="ring.cap" 
d="M300 756c-39 0 -71 13 -96 38c-26 25 -39 55 -39 92c0 36 13 66 39 91c25 25 57 37 96 37s71 -12 97 -37c25 -25 38 -55 38 -91c0 -37 -13 -67 -38 -92c-26 -25 -58 -38 -97 -38zM300 938c-15 0 -27 -5 -36 -14c-10 -10 -15 -23 -15 -38c0 -16 5 -29 14 -38
s22 -14 37 -14s28 5 37 14s14 22 14 38c0 15 -5 28 -14 38c-10 9 -22 14 -37 14z" />
    <glyph glyph-name="hungarumlaut.cap" 
d="M410 759h-108l95 151h164zM175 759h-108l88 151h171z" />
    <glyph glyph-name="guilsinglleft.cap" horiz-adv-x="298" 
d="M260 157l-222 136v130l222 136v-135l-102 -66l102 -66v-135z" />
    <glyph glyph-name="guilsinglright.cap" horiz-adv-x="298" 
d="M260 423v-130l-222 -136v135l102 66l-102 66v135z" />
    <glyph glyph-name="guillemotleft.cap" horiz-adv-x="545" 
d="M260 157l-222 136v130l222 136v-135l-102 -66l102 -66v-135zM507 157l-222 136v130l222 136v-135l-102 -66l102 -66v-135z" />
    <glyph glyph-name="guillemotright.cap" horiz-adv-x="545" 
d="M260 423v-130l-222 -136v135l102 66l-102 66v135zM507 423v-130l-222 -136v135l102 66l-102 66v135z" />
    <glyph glyph-name="slash.cap" horiz-adv-x="560" 
d="M161 -61h-149l387 836h149z" />
    <glyph glyph-name="backslash.cap" horiz-adv-x="560" 
d="M399 -61h149l-387 836h-149z" />
    <glyph glyph-name="bar.cap" horiz-adv-x="270" 
d="M204 -61h-138v836h138v-836z" />
    <glyph glyph-name="periodcentered.cap" horiz-adv-x="244" 
d="M204 280h-164v162h164v-162z" />
    <glyph glyph-name="bullet.cap" horiz-adv-x="434" 
d="M37 357c0 52 17 95 52 130c34 34 77 51 129 51c51 0 94 -17 128 -51c34 -35 51 -78 51 -130c0 -51 -17 -94 -51 -128c-35 -34 -77 -51 -128 -51s-94 17 -129 51s-52 77 -52 128z" />
    <glyph glyph-name="hyphen.cap" horiz-adv-x="368" 
d="M328 296h-288v125h288v-125z" />
    <glyph glyph-name="endash.cap" horiz-adv-x="542" 
d="M502 301h-462v114h462v-114z" />
    <glyph glyph-name="emdash.cap" horiz-adv-x="976" 
d="M936 301h-896v114h896v-114z" />
    <glyph glyph-name="parenleft.cap" horiz-adv-x="392" 
d="M166 342c0 -79 19 -154 57 -224s94 -135 169 -194h-146c-71 46 -127 106 -167 180c-40 73 -60 153 -60 238s20 165 60 239c40 73 96 133 167 179h146c-75 -60 -131 -125 -169 -194c-38 -70 -57 -145 -57 -224z" />
    <glyph glyph-name="parenright.cap" horiz-adv-x="392" 
d="M226 342c0 79 -19 154 -57 224c-38 69 -94 134 -169 194h146c71 -46 127 -106 167 -179c40 -74 60 -154 60 -239s-20 -165 -60 -238c-40 -74 -96 -134 -167 -180h-146c75 59 131 124 169 194s57 145 57 224z" />
    <glyph glyph-name="bracketleft.cap" horiz-adv-x="364" 
d="M354 650h-179v-617h179v-109h-314v836h314v-110z" />
    <glyph glyph-name="bracketright.cap" horiz-adv-x="364" 
d="M189 33v617h-179v110h314v-836h-314v109h179z" />
    <glyph glyph-name="braceleft.cap" horiz-adv-x="422" 
d="M69 286h-49v112h49c19 0 33 6 42 19s13 31 13 56v114c0 55 17 97 51 128c33 30 81 45 142 45h95v-110h-71c-31 0 -54 -7 -69 -22s-22 -38 -22 -71v-89c0 -33 -6 -59 -17 -79c-12 -21 -30 -36 -55 -47c25 -11 43 -26 55 -46c11 -21 17 -47 17 -80v-89c0 -33 7 -56 22 -71
s38 -22 69 -22h71v-110h-95c-61 0 -109 15 -142 46c-34 30 -51 72 -51 127v114c0 25 -4 43 -13 56s-23 19 -42 19z" />
    <glyph glyph-name="braceright.cap" horiz-adv-x="422" 
d="M402 398v-112h-49c-19 0 -32 -6 -41 -19s-14 -31 -14 -56v-114c0 -55 -17 -97 -50 -127c-34 -31 -82 -46 -143 -46h-95v110h71c31 0 54 7 69 22s22 38 22 71v89c0 33 6 59 18 80c11 20 29 35 54 46c-25 11 -43 26 -54 47c-12 20 -18 46 -18 79v89c0 33 -7 56 -22 71
s-38 22 -69 22h-71v110h95c61 0 109 -15 143 -45c33 -31 50 -73 50 -128v-114c0 -25 5 -43 14 -56s22 -19 41 -19h49z" />
    <glyph glyph-name="at.cap" horiz-adv-x="1062" 
d="M801 543l-50 -254c-4 -20 -2 -35 5 -44c7 -10 21 -15 40 -15c37 0 69 16 94 47s38 72 38 121c0 79 -32 140 -96 185c-65 45 -153 67 -264 67c-129 0 -233 -31 -311 -92c-78 -62 -117 -143 -117 -243c0 -91 35 -162 105 -213c69 -51 167 -76 293 -76c65 0 128 7 189 21
c61 13 113 32 156 55l52 -88c-49 -29 -108 -52 -177 -68c-69 -17 -143 -25 -221 -25c-159 0 -284 35 -376 105s-138 166 -138 289c0 67 15 130 45 187s73 106 129 146c49 34 104 60 167 78s131 27 204 27c141 0 255 -32 342 -95c86 -64 129 -149 129 -255
c0 -82 -25 -148 -75 -198s-114 -75 -192 -74c-31 0 -58 5 -82 16c-25 10 -43 24 -56 42c-16 -18 -39 -32 -68 -42c-30 -10 -62 -15 -96 -15c-64 0 -115 17 -152 50c-38 33 -57 78 -57 133c0 67 24 123 72 169c48 45 108 68 181 68c32 0 61 -5 88 -14c26 -10 47 -24 64 -42
l10 47h125zM400 326c0 -28 9 -50 28 -66c18 -16 43 -24 75 -24c38 0 70 12 95 36c25 23 38 52 38 86c0 28 -9 50 -27 66c-19 16 -44 24 -76 24c-38 0 -70 -12 -95 -35c-25 -24 -38 -53 -38 -87z" />
    <glyph glyph-name="zero.dnom" horiz-adv-x="510" 
d="M255 -6c-67 0 -122 20 -165 59c-44 39 -66 88 -66 147s22 108 66 147c43 38 98 57 165 57s122 -19 166 -57c43 -39 65 -88 65 -147s-22 -108 -65 -147c-44 -39 -99 -59 -166 -59zM255 312c-35 0 -64 -10 -85 -31c-22 -21 -33 -48 -33 -81c0 -34 11 -61 33 -82
c21 -21 50 -32 85 -32s63 11 85 32c21 21 32 48 32 82c0 33 -11 60 -32 81c-22 21 -50 31 -85 31z" />
    <glyph glyph-name="one.dnom" horiz-adv-x="373" 
d="M141 92v156h-128v82l60 2c30 1 52 6 67 17c14 10 23 26 27 49h85v-306h114v-92h-353v92h128z" />
    <glyph glyph-name="two.dnom" horiz-adv-x="444" 
d="M27 0v79l169 92c47 24 77 42 90 54c12 11 18 24 18 38c0 15 -7 27 -20 36s-31 14 -54 14c-29 0 -54 -8 -74 -24c-21 -16 -33 -37 -38 -63l-100 21c7 47 30 85 69 114s89 43 148 43c54 0 98 -12 132 -36c33 -24 50 -56 50 -96c0 -29 -9 -55 -27 -77
c-19 -22 -49 -43 -90 -62l-83 -42h209v-91h-399z" />
    <glyph glyph-name="three.dnom" horiz-adv-x="464" 
d="M447 114c0 -35 -20 -63 -59 -86s-91 -34 -154 -34c-56 0 -104 10 -143 29s-68 47 -87 83l97 44c10 -21 27 -37 52 -49c24 -13 51 -19 81 -19c27 0 50 4 67 12c17 7 25 17 25 30s-7 22 -22 28s-37 9 -66 9h-74v82h69c29 0 50 3 64 9c14 5 21 14 21 26c0 11 -7 20 -22 27
s-36 10 -62 10c-29 0 -54 -6 -76 -17s-37 -26 -46 -44l-92 43c16 33 44 59 84 78s86 29 138 29c59 0 107 -11 143 -32c35 -21 53 -49 53 -84c0 -19 -6 -37 -19 -52s-30 -26 -51 -33c27 -8 47 -19 60 -34s19 -33 19 -55z" />
    <glyph glyph-name="four.dnom" horiz-adv-x="471" 
d="M369 87v-87h-106v87h-252v81l217 230h141v-225h91v-86h-91zM263 310l-130 -137h130v137z" />
    <glyph glyph-name="five.dnom" horiz-adv-x="443" 
d="M219 189c-19 0 -36 -2 -53 -7s-32 -11 -45 -19l-96 14l29 221h346v-90h-262l-8 -60c15 7 32 13 51 17s38 6 59 6c57 0 103 -12 137 -36c34 -25 51 -58 51 -99c0 -42 -19 -76 -58 -102c-39 -27 -89 -40 -150 -40c-54 0 -101 10 -140 30s-66 47 -80 82l100 39
c9 -19 25 -35 47 -46c21 -11 46 -17 74 -17c29 0 52 5 70 15c17 9 26 22 26 38c0 17 -9 30 -26 40c-18 9 -42 14 -72 14z" />
    <glyph glyph-name="six.dnom" horiz-adv-x="489" 
d="M268 404c44 0 83 -6 116 -19s60 -31 79 -55l-68 -64c-14 17 -32 30 -55 39s-47 13 -74 13c-39 0 -72 -9 -97 -26c-25 -18 -38 -39 -38 -64c16 13 36 24 61 31c24 7 50 10 79 10c57 0 104 -12 141 -37s55 -57 55 -96c0 -43 -20 -77 -60 -103s-92 -39 -157 -39
c-69 0 -124 18 -165 54c-41 35 -61 83 -61 143c0 64 22 116 67 155s104 58 177 58zM249 78c31 0 57 5 77 15c19 10 29 23 29 39c0 17 -10 30 -29 40s-45 15 -78 15c-32 0 -58 -5 -77 -15s-29 -23 -29 -40s10 -30 30 -39c19 -10 45 -15 77 -15z" />
    <glyph glyph-name="seven.dnom" horiz-adv-x="443" 
d="M310 308h-206v-74h-93v164h421v-96c-51 -42 -89 -87 -113 -136c-25 -49 -37 -105 -37 -166h-116c0 61 12 117 37 169c24 51 60 98 107 139z" />
    <glyph glyph-name="eight.dnom" horiz-adv-x="474" 
d="M39 287c0 36 18 65 55 86s84 31 143 31s106 -10 143 -31s55 -50 55 -86c0 -18 -5 -33 -15 -46s-26 -25 -47 -35c28 -9 49 -22 64 -37c14 -16 21 -35 21 -56c0 -37 -20 -66 -60 -87s-94 -32 -161 -32s-121 11 -161 32s-60 50 -60 87c0 21 7 40 22 56c15 15 36 28 64 37
c-21 9 -37 21 -47 34c-11 13 -16 29 -16 47zM150 286c0 -13 8 -22 23 -29s36 -10 64 -10s50 3 65 10s23 16 23 29s-7 22 -22 29s-37 10 -66 10s-50 -3 -65 -10s-22 -16 -22 -29zM347 121c0 15 -10 26 -29 34c-19 7 -46 11 -81 11s-61 -4 -80 -11c-19 -8 -29 -19 -29 -34
s9 -26 28 -34s46 -12 81 -12s63 4 82 12s28 19 28 34z" />
    <glyph glyph-name="nine.dnom" horiz-adv-x="489" 
d="M221 -6c-44 0 -83 7 -116 20s-60 31 -79 55l68 63c14 -17 32 -29 55 -38c22 -9 47 -14 74 -14c39 0 71 9 96 27c25 17 38 38 38 62c-17 -13 -37 -22 -61 -29s-50 -10 -78 -10c-57 0 -104 13 -141 38s-56 56 -56 94c0 43 20 77 60 103s92 39 157 39c70 0 125 -18 166 -53
c40 -35 60 -83 60 -143c0 -65 -22 -116 -66 -155c-45 -39 -104 -59 -177 -59zM240 320c-32 0 -58 -5 -77 -15c-20 -10 -30 -23 -30 -39c0 -17 10 -30 30 -40c19 -10 45 -15 77 -15s58 5 78 15c19 10 29 23 29 40c0 16 -10 29 -29 39c-20 10 -46 15 -78 15z" />
    <glyph glyph-name="colon.mid" horiz-adv-x="401" 
d="M283 110h-164v162h164v-162zM283 449h-164v162h164v-162z" />
    <glyph glyph-name="commaturncmb" horiz-adv-x="0" 
d="M18 658h52v-85h-140v57c0 37 12 66 37 86s59 30 103 30v-56c-17 0 -29 -2 -37 -7s-13 -14 -15 -25z" />
    <glyph glyph-name="commaaccentcmb" horiz-adv-x="0" 
d="M-18 -119h-52v85h140v-57c0 -37 -12 -66 -37 -86s-59 -30 -103 -30v56c17 0 29 3 37 8s13 13 15 24z" />
    <glyph glyph-name="space.tab" horiz-adv-x="400" 
 />
    <glyph glyph-name="period.tab" horiz-adv-x="400" 
d="M283 0h-164v162h164v-162z" />
    <glyph glyph-name="comma.tab" horiz-adv-x="400" 
d="M188 0h-69v162h164v-159c0 -46 -15 -82 -44 -109s-69 -41 -120 -41v74c23 1 41 8 52 19s17 26 17 47v7z" />
    <glyph glyph-name="colon.tab" horiz-adv-x="400" 
d="M283 0h-164v162h164v-162zM283 339h-164v162h164v-162z" />
    <glyph glyph-name="semicolon.tab" horiz-adv-x="400" 
d="M188 0h-69v162h164v-159c0 -46 -15 -82 -44 -109s-69 -41 -120 -41v74c23 1 41 8 52 19s17 26 17 47v7zM283 339h-164v162h164v-162z" />
    <glyph glyph-name="florin.lt" horiz-adv-x="799" 
d="M468 332l-22 -122c-13 -74 -41 -129 -84 -166s-102 -55 -176 -55c-38 0 -73 5 -106 15c-33 9 -61 23 -83 41l60 103c17 -13 36 -24 57 -31c20 -7 41 -11 62 -11c34 0 61 9 82 28s35 46 42 83l21 115h-144v98h162l14 78c13 74 42 129 85 166s101 55 174 55
c39 0 75 -5 108 -14c33 -10 60 -24 82 -42l-61 -103c-17 13 -35 24 -56 31s-42 11 -63 11c-34 0 -61 -9 -82 -28s-34 -46 -41 -83l-13 -71h157v-98h-175z" />
    <glyph glyph-name="Euro.lt" horiz-adv-x="800" 
d="M92 236h-67v96h49c-1 3 -1 7 -1 11v16v20c0 4 0 8 1 11h-49v95h68c25 75 69 134 132 178s137 66 220 66c81 0 151 -19 208 -57s98 -93 124 -164l-122 -59c-19 50 -47 88 -83 114s-79 39 -130 39c-46 0 -87 -10 -122 -30c-35 -21 -62 -50 -81 -87h265l-20 -95h-273v-6v-9
c-1 -4 -1 -7 -1 -9v-7v-16c0 -4 0 -8 1 -11h260l-19 -96h-215c19 -38 46 -67 82 -88s77 -32 123 -32c51 0 94 13 130 39s64 64 83 114l122 -59c-26 -71 -67 -126 -124 -164s-127 -57 -208 -57c-85 0 -159 22 -222 67c-63 44 -107 104 -131 180z" />
    <glyph glyph-name="dollar.lt" horiz-adv-x="800" 
d="M-1 164l99 96c29 -37 66 -67 111 -90s94 -39 147 -46v185c-117 14 -198 36 -242 65s-66 72 -66 127c0 61 28 111 83 150s130 61 225 66v103h117v-106c66 -7 126 -22 179 -46c53 -25 93 -55 120 -90l-98 -91c-20 26 -47 48 -82 66s-74 31 -119 38v-169
c123 -15 207 -37 251 -67c43 -30 65 -73 65 -130c0 -65 -27 -116 -82 -155s-133 -61 -234 -68v-106h-117v106c-78 7 -149 25 -214 54s-112 65 -143 108zM186 514c0 -23 12 -39 35 -50s68 -20 135 -29v163c-57 -2 -100 -10 -128 -23c-28 -14 -42 -34 -42 -61zM646 210
c0 25 -11 44 -33 56c-22 11 -69 21 -140 30v-174c56 3 99 13 129 28c29 15 44 35 44 60z" />
    <glyph glyph-name="cent.lt" horiz-adv-x="800" 
d="M478 -103h-111v95c-81 10 -147 41 -198 92s-76 113 -76 186s25 136 76 187s117 81 198 91v107h111v-107c57 -7 106 -26 149 -55c43 -30 73 -66 90 -108l-103 -60c-12 28 -30 51 -53 70s-51 31 -83 38v-327c32 7 60 21 84 40s41 43 52 70l102 -63
c-17 -42 -47 -77 -89 -106c-43 -29 -92 -48 -149 -55v-95zM221 270c0 -41 13 -77 40 -106c26 -29 61 -49 106 -58v328c-45 -9 -80 -29 -106 -58c-27 -29 -40 -65 -40 -106z" />
    <glyph glyph-name="sterling.lt" horiz-adv-x="800" 
d="M264 282h-159v100h91c-14 21 -24 42 -30 62c-6 19 -9 40 -9 61c0 64 28 117 84 160c55 43 126 64 211 64c88 0 158 -22 210 -66c52 -45 78 -105 78 -181c0 -12 0 -23 -1 -32c-1 -10 -2 -19 -4 -28h-130c1 5 1 11 2 17s1 12 1 17c0 48 -14 85 -41 111
c-27 25 -67 38 -118 38c-45 0 -82 -11 -109 -33s-41 -51 -41 -87c0 -15 3 -30 8 -45s16 -35 31 -58h211v-100h-159c3 -7 5 -15 6 -24s1 -18 1 -28c0 -11 -1 -21 -2 -32s-4 -23 -7 -34c30 -18 56 -30 77 -37s42 -11 62 -11c37 0 67 11 90 32s36 50 38 85h130
c1 -71 -22 -130 -67 -175c-45 -46 -103 -69 -173 -69c-33 0 -66 6 -97 18s-67 33 -106 63c-21 -26 -45 -46 -73 -60s-58 -21 -90 -21c-43 0 -79 12 -106 36c-28 24 -42 56 -42 95c0 37 14 67 42 90s65 34 110 34c17 0 33 -2 50 -5s33 -9 49 -16c-1 9 -2 19 -5 29
c-3 9 -8 19 -13 30zM187 158c-16 0 -29 -3 -38 -10s-14 -17 -14 -28s5 -20 14 -26c9 -7 21 -10 37 -10s31 4 44 12s23 20 32 35c-15 9 -28 16 -40 21c-12 4 -24 6 -35 6z" />
    <glyph glyph-name="yen.lt" horiz-adv-x="799" 
d="M329 176h-215v97h215v52l-6 7h-209v97h133l-228 289h182l201 -277l200 277h178l-228 -289h134v-97h-210l-6 -7v-52h216v-97h-216v-176h-141v176z" />
    <glyph glyph-name="zero.lt" horiz-adv-x="800" 
d="M400 -11c-104 0 -191 35 -260 106c-69 70 -104 158 -104 264s35 194 104 265c69 70 156 105 260 105s191 -35 260 -105c69 -71 104 -159 104 -265s-35 -194 -104 -264c-69 -71 -156 -106 -260 -106zM400 600c-63 0 -115 -22 -154 -66c-40 -45 -60 -103 -60 -175
s20 -130 60 -174c39 -45 91 -67 154 -67s115 22 154 67c39 44 59 102 59 174s-20 130 -59 175c-39 44 -91 66 -154 66z" />
    <glyph glyph-name="one.lt" horiz-adv-x="800" 
d="M394 722h112v-599h254v-123h-688v123h287v358h-283v112l174 6c47 2 82 12 104 31s35 49 40 92z" />
    <glyph glyph-name="two.lt" horiz-adv-x="800" 
d="M56 0v117l333 182c38 21 65 36 82 46c16 9 30 18 41 26c27 19 46 37 58 55c11 17 17 37 17 59c0 35 -16 64 -48 86c-32 21 -74 32 -126 32c-62 0 -114 -16 -156 -49s-68 -78 -79 -134l-134 34c16 83 58 149 126 200c68 50 151 75 250 75c93 0 168 -22 227 -66
c58 -45 87 -102 87 -173c0 -50 -16 -95 -49 -134s-91 -80 -173 -123l-197 -106h437v-127h-696z" />
    <glyph glyph-name="three.lt" horiz-adv-x="800" 
d="M764 206c0 -62 -33 -114 -100 -155s-154 -62 -259 -62c-96 0 -178 19 -246 58c-69 39 -114 91 -136 156l132 57c17 -45 48 -80 93 -107s97 -41 157 -41c62 0 112 10 150 29c37 19 56 44 56 76c0 29 -16 52 -49 68c-33 15 -80 23 -141 23h-124v120h121c55 0 98 7 127 22
s44 36 44 64s-16 50 -49 67c-33 16 -76 24 -131 24c-57 0 -106 -12 -148 -37c-43 -25 -71 -57 -86 -98l-129 49c22 63 66 114 133 153c67 38 146 57 237 57c99 0 178 -19 237 -56c59 -38 89 -87 89 -148c0 -35 -12 -67 -37 -95s-57 -48 -98 -59c51 -13 90 -33 117 -61
s40 -63 40 -104z" />
    <glyph glyph-name="four.lt" horiz-adv-x="800" 
d="M628 172v-172h-141v172h-458v114l407 432h194v-426h149v-120h-151zM485 598l-286 -306h286v306z" />
    <glyph glyph-name="five.lt" horiz-adv-x="800" 
d="M407 369c-43 0 -83 -5 -120 -16s-70 -26 -98 -46l-114 29l47 382h597v-127h-486l-20 -151c26 15 59 27 98 36s80 13 124 12c99 -1 179 -24 241 -69s93 -104 93 -177c0 -74 -34 -135 -101 -182s-153 -71 -256 -71c-99 0 -183 19 -253 58c-71 39 -116 91 -136 157l133 55
c16 -44 47 -79 94 -106s101 -41 163 -41c61 0 111 12 150 35s58 54 58 93s-20 70 -59 94c-39 23 -91 35 -155 35z" />
    <glyph glyph-name="six.lt" horiz-adv-x="800" 
d="M435 729c71 0 135 -13 192 -40s101 -65 132 -113l-103 -89c-21 37 -51 67 -91 89c-41 21 -86 32 -135 32c-73 0 -133 -21 -180 -63s-71 -94 -71 -156c27 31 63 54 107 71s93 25 148 25c95 0 174 -23 236 -68c61 -46 92 -104 92 -174c0 -74 -32 -135 -97 -182
c-65 -48 -149 -72 -251 -72c-117 0 -208 32 -274 96s-99 151 -99 260c0 115 36 207 108 278c71 71 167 106 286 106zM409 108c61 0 111 12 150 36c38 23 57 54 57 92s-19 69 -57 93s-87 36 -148 36s-111 -12 -149 -36c-39 -24 -58 -55 -58 -93c0 -39 19 -70 57 -93
c37 -23 87 -35 148 -35z" />
    <glyph glyph-name="seven.lt" horiz-adv-x="800" 
d="M615 593h-452v-141h-126v266h735v-131c-99 -91 -170 -183 -214 -276s-66 -197 -66 -311h-150c0 113 23 218 68 316s113 190 205 277z" />
    <glyph glyph-name="eight.lt" horiz-adv-x="800" 
d="M75 527c0 62 30 111 89 148c59 36 138 54 236 54s177 -18 236 -54c59 -37 89 -86 89 -148c0 -35 -10 -65 -30 -89c-21 -25 -53 -46 -98 -63c53 -15 94 -37 123 -67s44 -66 44 -108c0 -66 -33 -118 -98 -155s-154 -56 -266 -56s-201 19 -266 56s-98 89 -98 155
c0 42 15 78 44 109c29 30 70 52 123 66c-45 17 -77 38 -97 63c-21 24 -31 54 -31 89zM219 525c0 -30 16 -53 47 -68c31 -16 76 -24 134 -24s103 8 134 24c31 15 47 38 47 68c0 29 -16 52 -47 68c-32 16 -77 24 -134 24s-102 -8 -133 -24c-32 -16 -48 -39 -48 -68zM615 211
c0 34 -19 60 -56 79c-37 18 -90 27 -159 27s-122 -9 -159 -27c-38 -19 -57 -45 -57 -79c0 -35 19 -61 56 -79c37 -19 90 -28 160 -28c69 0 123 9 160 28c37 18 55 44 55 79z" />
    <glyph glyph-name="nine.lt" horiz-adv-x="800" 
d="M365 -11c-71 0 -134 14 -191 41s-102 64 -133 112l103 89c21 -37 51 -67 92 -88c40 -22 85 -33 134 -33c73 0 133 21 180 63s71 94 71 156c-27 -31 -63 -54 -107 -71s-93 -25 -148 -25c-95 0 -174 23 -235 69c-62 45 -93 103 -93 173c0 74 33 135 98 183
c65 47 148 71 250 71c117 0 208 -32 274 -96s99 -151 99 -260c0 -115 -36 -207 -107 -278c-72 -71 -168 -106 -287 -106zM391 610c-61 0 -111 -12 -149 -35c-39 -24 -58 -55 -58 -93s19 -69 57 -93s87 -36 148 -36s111 12 150 36c38 24 57 55 57 93c0 39 -19 70 -56 93
c-38 23 -88 35 -149 35z" />
    <glyph glyph-name="percent.lt" horiz-adv-x="800" 
d="M195 375c-52 0 -95 17 -128 50c-34 33 -51 76 -51 127s17 94 51 127c33 33 76 50 128 50c51 0 94 -17 128 -50c33 -33 50 -76 50 -127s-17 -94 -50 -127c-34 -33 -77 -50 -128 -50zM203 0h-122l516 718h122zM195 463c23 0 41 8 55 25c14 16 21 37 21 64s-7 48 -21 65
c-14 16 -32 24 -55 24s-41 -8 -55 -24c-14 -17 -21 -38 -21 -65s7 -49 21 -65s32 -24 55 -24zM600 343c51 0 94 -17 128 -50c33 -33 50 -76 50 -127s-17 -94 -50 -127c-34 -33 -77 -50 -128 -50s-94 17 -128 50s-51 76 -51 127s17 94 51 127s77 50 128 50zM600 255
c-23 0 -41 -8 -55 -24c-14 -17 -21 -38 -21 -65s7 -48 21 -64c14 -17 32 -25 55 -25s41 8 55 25c14 16 21 37 21 64s-7 48 -21 65c-14 16 -32 24 -55 24z" />
    </font>
</defs>
</svg>
