<svg width="22" height="21" viewBox="0 0 22 21" fill="none" xmlns="http://www.w3.org/2000/svg">
<g clip-path="url(#clip0_1435_709)">
<path d="M0.902344 10.5C0.902344 4.8995 5.43148 0.359375 11.0184 0.359375C16.6053 0.359375 21.1345 4.8995 21.1345 10.5C21.1345 16.1005 16.6053 20.6406 11.0184 20.6406C5.43148 20.6406 0.902344 16.1005 0.902344 10.5Z" fill="#3B5998"/>
<path d="M11.9256 22.4844V14.1865H14.3741L14.6987 11.327H11.9256L11.9297 9.8958C11.9297 9.15002 12.0055 8.75042 13.1506 8.75042H14.6814V5.89062H12.2324C9.29078 5.89062 8.25548 7.27779 8.25548 9.61058V11.3274H6.42188V14.1869H8.25548V22.4844H11.9256Z" fill="white"/>
</g>
<defs>
<clipPath id="clip0_1435_709">
<rect width="20.2321" height="20.2812" fill="white" transform="translate(0.902344 0.359375)"/>
</clipPath>
</defs>
</svg>
