<svg width="20" height="21" viewBox="0 0 20 21" fill="none" xmlns="http://www.w3.org/2000/svg">
<g clip-path="url(#clip0_1435_914)">
<path d="M10.7002 4.54307C12.4962 4.54307 13.7077 5.32077 14.3985 5.9706L17.0977 3.32869C15.4399 1.784 13.2826 0.835938 10.7002 0.835938C6.95964 0.835938 3.72902 2.98777 2.15625 6.11966L5.24864 8.52724C6.02445 6.21554 8.17108 4.54307 10.7002 4.54307Z" fill="#EA4335"/>
<path d="M19.8809 10.6359C19.8809 9.84761 19.8172 9.27233 19.679 8.67578H10.6992V12.2338H15.9702C15.8639 13.118 15.2901 14.4496 14.0148 15.3444L17.0329 17.6881C18.8395 16.0155 19.8809 13.5547 19.8809 10.6359Z" fill="#4285F4"/>
<path d="M5.26003 12.3171C5.05807 11.7206 4.94119 11.0814 4.94119 10.4209C4.94119 9.7604 5.05808 9.1213 5.24936 8.52476L2.15688 6.11719C1.50871 7.41685 1.13672 8.87627 1.13672 10.4209C1.13672 11.9655 1.50871 13.425 2.15688 14.7246L5.26003 12.3171Z" fill="#FBBC05"/>
<path d="M10.7015 20.0077C13.2838 20.0077 15.4517 19.1555 17.0351 17.6854L14.0171 15.3418C13.2094 15.9064 12.1254 16.3006 10.7015 16.3006C8.17223 16.3006 6.0256 14.628 5.26045 12.3164L2.16797 14.7239C3.74074 17.8559 6.96069 20.0077 10.7015 20.0077Z" fill="#34A853"/>
</g>
<defs>
<clipPath id="clip0_1435_914">
<rect width="19.3125" height="20.2812" fill="white" transform="translate(0.582031 0.28125)"/>
</clipPath>
</defs>
</svg>
