<svg width="7" height="7" viewBox="0 0 7 7" fill="none" xmlns="http://www.w3.org/2000/svg">
<path d="M3.33026 5V2.27273H3.97301V5H3.33026ZM3.65341 1.88565C3.55161 1.88565 3.46402 1.85192 3.39062 1.78445C3.31723 1.71579 3.28054 1.63352 3.28054 1.53764C3.28054 1.44058 3.31723 1.35831 3.39062 1.29084C3.46402 1.22218 3.55161 1.18786 3.65341 1.18786C3.75639 1.18786 3.84399 1.22218 3.91619 1.29084C3.98958 1.35831 4.02628 1.44058 4.02628 1.53764C4.02628 1.63352 3.98958 1.71579 3.91619 1.78445C3.84399 1.85192 3.75639 1.88565 3.65341 1.88565Z" fill="#151515"/>
<circle cx="3.5" cy="3.5" r="3.25" stroke="black" stroke-width="0.5"/>
</svg>
