<svg width="14" height="17" viewBox="0 0 14 17" fill="none" xmlns="http://www.w3.org/2000/svg">
<path d="M13.4543 5.03229C13.0019 3.87327 12.1701 3.15642 10.9723 2.86834C10.6729 2.79465 10.3734 2.76785 10.0673 2.74775C9.45514 2.70755 8.84295 2.72765 8.23076 2.72095C8.2108 2.72095 8.18418 2.72095 8.16422 2.72095C8.15756 2.72095 8.15756 2.71425 8.1509 2.71425C8.16421 2.69415 8.17752 2.68076 8.19083 2.66066C8.49692 2.26538 8.80302 1.87011 9.10912 1.47484C9.29544 1.24035 9.30209 0.925475 9.13574 0.684292C9.02261 0.516803 8.86291 0.42301 8.66329 0.396211C8.64332 0.396211 8.63001 0.389512 8.61005 0.382812C8.59674 0.382812 8.58343 0.382812 8.57012 0.382812C8.5302 0.389512 8.49027 0.396212 8.457 0.402911C8.2973 0.436409 8.16422 0.523503 8.0644 0.650794C7.9047 0.85848 7.745 1.05947 7.58529 1.26715C7.38567 1.52173 7.19269 1.77632 6.99306 2.0309C6.97976 2.0443 6.96645 2.0644 6.95314 2.0845C6.93318 2.0644 6.91987 2.0443 6.90656 2.0242C6.57385 1.57533 6.24114 1.13316 5.90843 0.684292C5.82192 0.5637 5.7088 0.476606 5.56906 0.429709C5.14319 0.289019 4.70401 0.603897 4.70401 1.05947C4.70401 1.21356 4.75059 1.34755 4.84375 1.46814C5.13653 1.85671 5.42267 2.24528 5.71545 2.63386C5.73541 2.66066 5.74873 2.68076 5.77534 2.71425C5.73542 2.71425 5.71545 2.71425 5.68883 2.71425C5.28293 2.71425 4.87702 2.71425 4.47111 2.71425C4.10513 2.72095 3.73915 2.74105 3.37316 2.79465C2.72105 2.88174 2.12216 3.12292 1.60979 3.5383C0.990942 4.03406 0.604993 4.68392 0.425328 5.45437C0.338823 5.80944 0.312206 6.17792 0.292244 6.53969C0.285589 6.61339 0.285593 6.69378 0.278938 6.76748C0.278938 6.78088 0.272279 6.78758 0.265625 6.80097C0.265625 8.58975 0.265625 10.3852 0.265625 12.174C0.272279 12.2477 0.285589 12.3214 0.292244 12.3951C0.305552 12.6832 0.332166 12.9646 0.372091 13.2526C0.491868 14.0097 0.811275 14.6729 1.35692 15.2156C1.83603 15.6913 2.41495 15.9927 3.07372 16.1334C3.35985 16.1937 3.65264 16.2205 3.94543 16.2406C4.35133 16.2674 4.75724 16.2674 5.16981 16.2674C6.52727 16.2674 7.88474 16.2674 9.23555 16.2674C9.6348 16.2674 10.0341 16.2473 10.4333 16.2071C11.0255 16.1468 11.5845 15.986 12.0902 15.6645C12.6558 15.3027 13.075 14.8136 13.3545 14.204C13.5009 13.8824 13.5941 13.5474 13.6473 13.199C13.7072 12.7904 13.7272 12.3817 13.7272 11.9663C13.7272 10.3517 13.7272 8.73714 13.7272 7.12255C13.7272 6.82107 13.7205 6.51289 13.6939 6.21141C13.654 5.82284 13.6007 5.42087 13.4543 5.03229ZM10.786 9.80907C10.3535 9.92966 9.92759 10.0436 9.49507 10.1641C8.76975 10.3651 8.04444 10.5594 7.31247 10.7604C7.28585 10.7671 7.25258 10.7805 7.22596 10.7872C6.78013 10.948 6.32099 10.613 6.3343 10.1306C6.34095 9.83587 6.3343 9.54109 6.3343 9.25301C6.3343 9.23961 6.32764 9.23291 6.32764 9.21951C6.30102 9.22621 6.28106 9.22621 6.2611 9.23291C5.35612 9.48079 4.4578 9.72197 3.55282 9.96986C3.27334 10.0436 2.98721 9.93636 2.82751 9.70188C2.57465 9.3267 2.75431 8.81754 3.18684 8.69024C3.67925 8.54955 4.17167 8.41556 4.67074 8.28157C5.38274 8.08729 6.08809 7.8997 6.8001 7.69871C7.18604 7.59152 7.54537 7.826 7.62522 8.17438C7.63853 8.23468 7.64518 8.29497 7.64518 8.34857C7.64518 8.63665 7.64518 8.93143 7.64518 9.21951C7.64518 9.23291 7.64518 9.25301 7.64518 9.27311C7.6718 9.26641 7.69176 9.25971 7.71838 9.25301C8.6167 9.00512 9.51502 8.76394 10.42 8.51606C10.7793 8.42226 11.1387 8.62325 11.2318 8.97833C11.3449 9.3535 11.1453 9.70858 10.786 9.80907Z" fill="#E9E9E9"/>
</svg>
