<svg width="16" height="18" viewBox="0 0 16 18" fill="none" xmlns="http://www.w3.org/2000/svg">
<path fill-rule="evenodd" clip-rule="evenodd" d="M15.1392 4.28026L15.5176 4.30882V7.81367L15.1321 7.8565C14.1827 7.94216 13.2405 7.69232 12.4481 7.26403C12.0912 7.0713 11.7629 6.83574 11.4702 6.56448V12.1608C11.4702 15.116 9.06464 17.5287 6.10229 17.5287C3.13994 17.5287 0.734375 15.1232 0.734375 12.1608C0.734375 9.20562 3.13281 6.80005 6.08088 6.80005C6.19509 6.80005 6.31644 6.80718 6.43065 6.81432L6.81611 6.83574V10.1193L6.35927 10.0622C6.33072 10.0622 6.30216 10.0551 6.27361 10.0479C6.20937 10.0408 6.15226 10.0336 6.10229 10.0336C4.93163 10.0336 3.98225 10.983 3.98225 12.1537C3.98225 13.3244 4.93163 14.2737 6.10229 14.2737C6.67335 14.2737 7.2444 14.0524 7.66556 13.6598C8.09385 13.2601 8.32941 12.739 8.32941 12.1822L8.35797 0.382812H11.4702L11.5059 0.74686C11.7058 2.65989 13.2333 4.14464 15.1392 4.28026Z" fill="#E9E9E9"/>
</svg>
