<svg width="18" height="16" viewBox="0 0 18 16" fill="none" xmlns="http://www.w3.org/2000/svg">
<path d="M17.3502 3.30163C17.3727 4.15792 17.2 4.96116 16.9071 5.73409C16.3965 7.07536 15.6455 8.28022 14.8195 9.43962C13.678 11.0385 12.4915 12.5995 10.982 13.8726C10.2461 14.5016 9.45008 15.0169 8.48134 15.2215C7.80547 15.3654 7.24225 15.176 6.76163 14.7062C6.08576 14.0317 5.68776 13.183 5.43243 12.2737C4.95181 10.5763 4.50123 8.87129 4.03564 7.16629C3.88544 6.60554 3.69019 6.05236 3.41985 5.53707C3.35977 5.43098 3.29969 5.31732 3.23211 5.21881C2.82659 4.61258 2.55624 4.55196 1.94796 4.93843C1.73018 5.07483 1.51991 5.21881 1.30964 5.37036C1.197 5.45372 1.1219 5.46129 1.03179 5.33247C0.844047 5.07483 0.648796 4.83234 0.453546 4.58227C0.378449 4.48376 0.355922 4.40798 0.468566 4.31705C1.67011 3.29405 2.75149 2.13466 4.05066 1.2329C4.52376 0.907059 5.01189 0.626681 5.62017 0.649415C6.23596 0.672148 6.71657 0.922214 7.06952 1.42235C7.47504 1.99068 7.64777 2.64237 7.76041 3.31679C8.01574 4.87023 8.2185 6.43125 8.609 7.96196C8.73666 8.46967 8.88686 8.97738 9.14219 9.43962C9.45759 10.008 9.80303 10.0762 10.2386 9.61391C11.1773 8.59849 11.8832 7.43151 12.3413 6.11298C12.4464 5.81745 12.4539 5.51434 12.4389 5.20365C12.4089 4.62016 12.0709 4.27159 11.4927 4.22612C11.0872 4.19581 10.6967 4.25643 10.3212 4.38525C10.1485 4.44587 10.0584 4.41556 10.1335 4.20339C10.5089 3.09703 11.0196 2.08919 11.9583 1.35415C13.0547 0.49786 14.3088 0.285682 15.638 0.596371C16.6593 0.838859 17.0874 1.62695 17.2601 2.5969C17.3051 2.83181 17.3202 3.08188 17.3502 3.30163Z" fill="#E9E9E9"/>
</svg>
