<svg width="19" height="14" viewBox="0 0 19 14" fill="none" xmlns="http://www.w3.org/2000/svg">
<path fill-rule="evenodd" clip-rule="evenodd" d="M18.6652 2.84479C18.6652 2.84479 18.4846 1.55525 17.9189 0.984734C17.2041 0.234461 16.3949 0.234461 16.0336 0.187569C13.394 7.00355e-07 9.43474 0 9.43474 0H9.42689C9.42689 0 5.46759 7.00355e-07 2.82807 0.187569C2.45885 0.234461 1.65756 0.234461 0.942689 0.984734C0.377075 1.55525 0.196393 2.84479 0.196393 2.84479C0.196393 2.84479 0 4.36878 0 5.88496V7.30735C0 8.82353 0.188538 10.3397 0.188538 10.3397C0.188538 10.3397 0.36922 11.6292 0.934833 12.1998C1.64971 12.95 2.59239 12.9266 3.0166 13.0047C4.52491 13.1454 9.42689 13.1923 9.42689 13.1923C9.42689 13.1923 13.3862 13.1845 16.0257 12.9969C16.3949 12.95 17.1962 12.95 17.9111 12.1998C18.4767 11.6292 18.6574 10.3397 18.6574 10.3397C18.6574 10.3397 18.8459 8.82353 18.8459 7.30735V5.88496C18.8538 4.36878 18.6652 2.84479 18.6652 2.84479ZM7.47866 9.03454V3.767L12.5692 6.40859L7.47866 9.03454Z" fill="#E9E9E9"/>
</svg>
