<svg width="65" height="37" viewBox="0 0 65 37" fill="none" xmlns="http://www.w3.org/2000/svg">
<path d="M1.72132 19.8535C1.72132 19.8535 1.17939 15.3413 4.43419 15.3413C7.68898 15.3413 4.79583 30.6827 8.05062 30.6827C11.3054 30.6827 10.2205 13.5364 13.4753 13.5364C16.7301 13.5364 14.0178 32.4876 18.9 32.4876C23.7822 32.4876 21.2445 1.80469 26.1267 1.80469C31.0089 1.80469 27.5733 35.1949 31.5514 35.1949C35.5295 35.1949 33.9021 8.12176 38.7842 8.12176C43.6664 8.12176 40.2369 30.6827 45.1191 30.6827C50.0013 30.6827 47.2829 18.0486 50.5377 18.0486C53.7925 18.0486 51.6287 23.4632 53.2561 23.4632C54.8835 23.4632 63.0206 23.4632 63.0206 23.4632" stroke="url(#paint0_linear_721_8903)" stroke-width="2" stroke-linecap="round"/>
<defs>
<linearGradient id="paint0_linear_721_8903" x1="32.354" y1="1.80469" x2="32.354" y2="35.1949" gradientUnits="userSpaceOnUse">
<stop stop-color="#FF997D"/>
<stop offset="0.484375" stop-color="#FBBA7D"/>
<stop offset="1" stop-color="#6CD5C8"/>
</linearGradient>
</defs>
</svg>
