<svg width="16" height="15" viewBox="0 0 16 15" fill="none" xmlns="http://www.w3.org/2000/svg">
<path d="M13.5 1V0H12.5V1H13.5ZM0 2H7V0H0V2ZM0 6H9V4H0V6ZM4.5 14.5V7.5H2.5V14.5H4.5ZM14.5 11V1H12.5V11H14.5ZM13.5 2H15.5V0H13.5V2ZM12.5 11C12.5 12.1046 11.6046 13 10.5 13V15C12.7091 15 14.5 13.2091 14.5 11H12.5ZM10.5 13C9.39543 13 8.5 12.1046 8.5 11H6.5C6.5 13.2091 8.29086 15 10.5 15V13ZM8.5 11C8.5 9.89543 9.39543 9 10.5 9V7C8.29086 7 6.5 8.79086 6.5 11H8.5ZM10.5 9C11.6046 9 12.5 9.89543 12.5 11H14.5C14.5 8.79086 12.7091 7 10.5 7V9ZM0 12H3.5V10H0V12ZM3.5 12H7V10H3.5V12Z" fill="#B2B2B2"/>
</svg>
