<svg width="17" height="15" viewBox="0 0 17 15" fill="none" xmlns="http://www.w3.org/2000/svg">
<path fill-rule="evenodd" clip-rule="evenodd" d="M3.40912 7.04143C2.42636 6.08033 2.05471 5.1645 2.00579 4.4383C1.95689 3.71234 2.22143 3.09342 2.66905 2.66203C3.51927 1.84263 5.34569 1.49979 7.29642 3.36287L7.97987 4.0156L8.67013 3.37009C10.6726 1.49743 12.53 1.84167 13.3922 2.66516C13.8446 3.09716 14.1103 3.71545 14.0626 4.43975C14.0148 5.16558 13.643 6.08211 12.6578 7.04447L8.07671 11.4197L3.40912 7.04143ZM7.99314 1.32947C5.59667 -0.503817 2.90861 -0.346473 1.28119 1.22195C0.411443 2.06016 -0.0785069 3.25415 0.0103151 4.57272C0.0990089 5.88938 0.755708 7.24716 2.01939 8.47974L2.02638 8.48656L8.0891 14.1735L14.043 8.48705L14.0506 8.47974C15.3141 7.24732 15.9714 5.88907 16.0583 4.57126C16.1453 3.25104 15.6506 2.05642 14.7736 1.21882C13.1338 -0.347276 10.4273 -0.502002 7.99314 1.32947Z" fill="#B2B2B2"/>
</svg>
