<svg width="15" height="15" viewBox="0 0 15 15" fill="none" xmlns="http://www.w3.org/2000/svg">
<path fill-rule="evenodd" clip-rule="evenodd" d="M15 7.5C15 11.6421 11.6421 15 7.5 15C3.35786 15 0 11.6421 0 7.5C0 3.35786 3.35786 0 7.5 0C11.6421 0 15 3.35786 15 7.5ZM11.896 12.2881C10.7388 13.3511 9.1952 14 7.5 14C5.8048 14 4.26118 13.3511 3.10398 12.2881C3.18517 10.6362 4.50147 9.1428 6.4 8.71937V7.20568C5.74242 6.82529 5.3 6.11431 5.3 5.3C5.3 4.08497 6.28497 3.1 7.5 3.1C8.71503 3.1 9.7 4.08497 9.7 5.3C9.7 6.11431 9.25758 6.82529 8.6 7.20568V8.71937C10.4985 9.14279 11.8148 10.6362 11.896 12.2881ZM12.8295 11.2221C12.3963 9.69482 11.174 8.45156 9.5765 7.86493C10.3229 7.25992 10.8 6.33568 10.8 5.3C10.8 3.47746 9.32254 2 7.5 2C5.67746 2 4.2 3.47746 4.2 5.3C4.2 6.33568 4.6771 7.25992 5.4235 7.86493C3.82598 8.45156 2.60366 9.69482 2.17054 11.2221C1.43282 10.1678 1 8.88444 1 7.5C1 3.91015 3.91015 1 7.5 1C11.0899 1 14 3.91015 14 7.5C14 8.88444 13.5672 10.1678 12.8295 11.2221Z" fill="#A5A5A5"/>
</svg>
