<svg width="90" height="12" viewBox="0 0 90 12" fill="none" xmlns="http://www.w3.org/2000/svg">
<path d="M6.2214 12C5.30995 12 4.52448 11.8189 3.86497 11.4566C3.20918 11.0906 2.70343 10.5665 2.34775 9.88439C1.99576 9.19846 1.27386 8.13873 0 7.42197C1.09188 6.91705 1.99762 5.70328 2.3533 5.01734C2.70899 4.33141 3.21103 3.79769 3.85942 3.41619C4.50781 3.03468 5.2729 2.84393 6.15471 2.84393C6.7994 2.84393 7.38295 2.94798 7.90536 3.15607C8.42778 3.36416 8.87424 3.66667 9.24475 4.06358C9.61525 4.45665 9.90055 4.93449 10.1006 5.49711C10.3007 6.05973 10.4007 6.69364 10.4007 7.39884V8.13873H2.77568V6.3815H7.57746C7.57376 6.12717 7.51077 5.90366 7.3885 5.71098C7.26994 5.51445 7.10877 5.36224 6.90499 5.25434C6.70492 5.14258 6.47705 5.08671 6.2214 5.08671C5.97316 5.08671 5.7453 5.14258 5.53782 5.25434C5.33033 5.36224 5.1636 5.51252 5.03763 5.7052C4.91536 5.89788 4.85053 6.12331 4.84312 6.3815V8.27746C4.84312 8.56262 4.90054 8.81696 5.0154 9.04046C5.13026 9.26397 5.29513 9.43931 5.51003 9.56648C5.72492 9.69364 5.98428 9.75723 6.2881 9.75723C6.49929 9.75723 6.69195 9.7264 6.86609 9.66474C7.04393 9.60308 7.19584 9.51445 7.32181 9.39884C7.54588 9.18636 7.80577 8.9711 8.11457 8.9711H10.4007C10.3044 9.58767 10.0765 10.1233 9.71714 10.578C9.35775 11.0289 8.88165 11.3796 8.28884 11.6301C7.69973 11.8767 7.01058 12 6.2214 12Z" fill="#DDDDDD"/>
<path d="M14.3207 8.9711V9.9H9.48999L9.84805 8.9711H14.3207Z" fill="#DDDDDD"/>
<path d="M21.0281 5.84971H18.2048C18.19 5.66859 18.1289 5.51252 18.0214 5.3815C17.914 5.25048 17.775 5.15029 17.6046 5.08092C17.4379 5.00771 17.2526 4.9711 17.0488 4.9711C16.7858 4.9711 16.5598 5.0212 16.3708 5.12139C16.1818 5.22158 16.0892 5.36416 16.0929 5.54913C16.0892 5.68015 16.1429 5.80154 16.2541 5.9133C16.3689 6.02505 16.5894 6.11175 16.9154 6.17341L18.6494 6.49711C19.5238 6.66281 20.1741 6.9422 20.6001 7.33526C21.0299 7.72447 21.2467 8.24663 21.2504 8.90174C21.2467 9.53372 21.0651 10.0829 20.7057 10.5491C20.3501 11.0116 19.8628 11.3699 19.2441 11.6243C18.629 11.8748 17.9269 12 17.1378 12C15.8336 12 14.8128 11.7225 14.0755 11.1676C13.3419 10.6127 12.9325 9.88054 12.8473 8.9711H15.1029C15.5564 8.9711 15.9183 9.36875 16.293 9.62428C16.5227 9.77457 16.8117 9.84971 17.16 9.84971C17.4416 9.84971 17.6731 9.79962 17.8547 9.69942C18.0399 9.59923 18.1344 9.45665 18.1381 9.27168C18.1344 9.10212 18.0529 8.96725 17.8936 8.86705C17.738 8.76686 17.4934 8.68594 17.16 8.62428L15.6483 8.34682C14.7776 8.18883 14.1255 7.88825 13.692 7.44509C13.2585 7.00193 13.0436 6.4316 13.0473 5.7341C13.0436 5.11753 13.1993 4.59538 13.5142 4.16763C13.8328 3.73603 14.2867 3.40848 14.8758 3.18497C15.4686 2.95761 16.1707 2.84393 16.9821 2.84393C18.2159 2.84393 19.1885 3.10983 19.8999 3.64162C20.615 4.17341 20.991 4.90944 21.0281 5.84971Z" fill="#DDDDDD"/>
<path d="M26.1745 12C25.2482 12 24.4553 11.8092 23.7958 11.4277C23.1363 11.0424 22.6306 10.5067 22.2786 9.82081C21.9266 9.13102 21.7506 8.33141 21.7506 7.42197C21.7506 6.51253 21.9266 5.71484 22.2786 5.0289C22.6306 4.33911 23.1363 3.80347 23.7958 3.42197C24.4553 3.03661 25.2482 2.84393 26.1745 2.84393C27.1008 2.84393 27.8937 3.03661 28.5532 3.42197C29.2127 3.80347 29.7184 4.33911 30.0704 5.0289C30.4224 5.71484 30.5984 6.51253 30.5984 7.42197C30.5984 8.33141 30.4224 9.13102 30.0704 9.82081C29.7184 10.5067 29.2127 11.0424 28.5532 11.4277C27.8937 11.8092 27.1008 12 26.1745 12ZM26.1967 9.64162C26.4561 9.64162 26.6802 9.55106 26.8692 9.36994C27.0582 9.18883 27.2045 8.93064 27.3083 8.59538C27.412 8.26012 27.4639 7.86127 27.4639 7.39884C27.4639 6.93256 27.412 6.53372 27.3083 6.20231C27.2045 5.86705 27.0582 5.60886 26.8692 5.42775C26.6802 5.24663 26.4561 5.15607 26.1967 5.15607C25.9226 5.15607 25.6873 5.24663 25.4909 5.42775C25.2945 5.60886 25.1445 5.86705 25.0407 6.20231C24.937 6.53372 24.8851 6.93256 24.8851 7.39884C24.8851 7.86127 24.937 8.26012 25.0407 8.59538C25.1445 8.93064 25.2945 9.18883 25.4909 9.36994C25.6873 9.55106 25.9226 9.64162 26.1967 9.64162Z" fill="#DDDDDD"/>
<path d="M37.0147 7.95376V2.95954H40.0825V11.8382H37.1703V10.1503H37.0814C36.8961 10.7168 36.5719 11.1599 36.1088 11.4798C35.6457 11.7958 35.0955 11.9538 34.4582 11.9538C33.8617 11.9538 33.3393 11.8112 32.8909 11.526C32.4463 11.2408 32.0999 10.8478 31.8517 10.3468C31.6071 9.84586 31.483 9.27168 31.4793 8.62428V2.95954H34.5471V7.95376C34.5508 8.39306 34.6583 8.73796 34.8694 8.98844C35.0843 9.23892 35.3845 9.36416 35.7698 9.36416C36.0254 9.36416 36.2459 9.30829 36.4311 9.19653C36.6201 9.08092 36.7646 8.91908 36.8646 8.71098C36.9684 8.49904 37.0184 8.24663 37.0147 7.95376Z" fill="#DDDDDD"/>
<path d="M44.3466 6.84393V11.8382H41.2788V2.95954H44.191V4.6474H44.28C44.4652 4.08478 44.7913 3.64355 45.2581 3.3237C45.7286 3.00385 46.277 2.84393 46.9031 2.84393C47.5071 2.84393 48.0313 2.98844 48.476 3.27746C48.9243 3.56262 49.2707 3.95568 49.5152 4.45665C49.7635 4.95761 49.8857 5.52987 49.882 6.17341V11.8382H46.8142V6.84393C46.8179 6.40462 46.7105 6.05973 46.4919 5.80925C46.277 5.55877 45.9769 5.43353 45.5915 5.43353C45.3396 5.43353 45.1192 5.49133 44.9302 5.60694C44.7449 5.71869 44.6023 5.88054 44.5023 6.09249C44.4022 6.30058 44.3503 6.55106 44.3466 6.84393Z" fill="#DDDDDD"/>
<path d="M54.1226 11.9538C53.5149 11.9538 52.9555 11.7881 52.4442 11.4566C51.9366 11.1252 51.529 10.6224 51.2215 9.94798C50.9177 9.2736 50.7658 8.42389 50.7658 7.39884C50.7658 6.32755 50.9251 5.45665 51.2437 4.78613C51.5661 4.11561 51.981 3.62428 52.4886 3.31214C52.9999 3 53.5372 2.84393 54.1003 2.84393C54.5227 2.84393 54.8932 2.921 55.2118 3.07514C55.5305 3.22543 55.7973 3.42775 56.0121 3.68208C56.227 3.93256 56.3901 4.20809 56.5012 4.50867H56.5457V0H59.6135V11.8382H56.5679V10.3815H56.5012C56.3827 10.6821 56.2122 10.9518 55.9899 11.1908C55.7713 11.4258 55.5045 11.6127 55.1896 11.7514C54.8784 11.8863 54.5227 11.9538 54.1226 11.9538ZM55.2563 9.50289C55.5379 9.50289 55.7787 9.41811 55.9788 9.24856C56.1826 9.07515 56.3382 8.83237 56.4456 8.52023C56.5568 8.20424 56.6124 7.83044 56.6124 7.39884C56.6124 6.95954 56.5568 6.58382 56.4456 6.27168C56.3382 5.95569 56.1826 5.71484 55.9788 5.54913C55.7787 5.37958 55.5379 5.2948 55.2563 5.2948C54.9747 5.2948 54.7339 5.37958 54.5338 5.54913C54.3375 5.71484 54.1855 5.95569 54.0781 6.27168C53.9743 6.58382 53.9225 6.95954 53.9225 7.39884C53.9225 7.83815 53.9743 8.2158 54.0781 8.53179C54.1855 8.84393 54.3375 9.08478 54.5338 9.25434C54.7339 9.42004 54.9747 9.50289 55.2563 9.50289Z" fill="#DDDDDD"/>
<path d="M65.8464 2.95954V5.27168H60.2221V2.95954H65.8464ZM61.3114 0.83237H64.3792V8.98266C64.3792 9.10597 64.3996 9.21002 64.4403 9.2948C64.4811 9.37572 64.5441 9.43738 64.6293 9.47977C64.7145 9.51831 64.8238 9.53757 64.9572 9.53757C65.0498 9.53757 65.1573 9.52601 65.2795 9.50289C65.4055 9.47977 65.4981 9.4605 65.5574 9.44509L66.002 11.6879C65.8649 11.7303 65.6686 11.7823 65.4129 11.8439C65.161 11.9056 64.8609 11.9461 64.5126 11.9653C63.8086 12.0039 63.2177 11.9287 62.7397 11.7399C62.2617 11.5472 61.9024 11.2447 61.6615 10.8324C61.4207 10.42 61.304 9.90366 61.3114 9.28324V0.83237Z" fill="#DDDDDD"/>
<path d="M66.7343 11.8382V2.95954H69.7132V4.6474H69.8021C69.9577 4.02312 70.2041 3.56647 70.5413 3.27746C70.8821 2.98844 71.2804 2.84393 71.7362 2.84393C71.8695 2.84393 72.0011 2.85549 72.1307 2.87861C72.2641 2.89788 72.392 2.92678 72.5142 2.96532V5.68786C72.3623 5.63391 72.1752 5.59345 71.9529 5.56647C71.7306 5.5395 71.5398 5.52601 71.3805 5.52601C71.0804 5.52601 70.8099 5.5973 70.5691 5.73988C70.3319 5.87861 70.1448 6.07514 70.0077 6.32948C69.8707 6.57996 69.8021 6.87476 69.8021 7.21387V11.8382H66.7343Z" fill="#DDDDDD"/>
<path d="M75.1375 11.9769C74.5928 11.9769 74.1112 11.8844 73.6925 11.6994C73.2775 11.5106 72.9515 11.2254 72.7144 10.8439C72.4772 10.4624 72.3587 9.97688 72.3587 9.38728C72.3587 8.90173 72.4383 8.48748 72.5977 8.14451C72.757 7.79769 72.9793 7.51445 73.2646 7.2948C73.5499 7.07515 73.8815 6.90752 74.2594 6.79191C74.641 6.6763 75.0523 6.60116 75.4932 6.56647C75.9711 6.52794 76.3546 6.4817 76.6436 6.42775C76.9363 6.36994 77.1475 6.29094 77.2772 6.19075C77.4068 6.08671 77.4717 5.9499 77.4717 5.78035V5.75723C77.4717 5.52601 77.3865 5.34875 77.216 5.22543C77.0456 5.10212 76.827 5.04046 76.5602 5.04046C76.2675 5.04046 76.0285 5.1079 75.8433 5.24278C75.6618 5.3738 75.5525 5.57611 75.5154 5.84971H72.6921C72.7292 5.31021 72.8941 4.8131 73.1868 4.35838C73.4832 3.89981 73.9148 3.53372 74.4817 3.26012C75.0486 2.98266 75.7562 2.84393 76.6047 2.84393C77.216 2.84393 77.7644 2.91908 78.2497 3.06936C78.7351 3.2158 79.1482 3.42197 79.4891 3.68786C79.83 3.9499 80.0893 4.25819 80.2672 4.61272C80.4487 4.96339 80.5395 5.34489 80.5395 5.75723V11.8382H77.6718V10.5896H77.6051C77.4346 10.921 77.2271 11.1888 76.9826 11.3931C76.7418 11.5973 76.4658 11.7457 76.1545 11.8382C75.847 11.9306 75.508 11.9769 75.1375 11.9769ZM76.1379 9.96532C76.3713 9.96532 76.5899 9.91522 76.7936 9.81503C77.0011 9.71484 77.1697 9.57033 77.2994 9.38151C77.4291 9.19268 77.4939 8.96339 77.4939 8.69364V7.95376C77.4124 7.98844 77.3253 8.0212 77.2327 8.05202C77.1438 8.08285 77.0475 8.11175 76.9437 8.13873C76.8437 8.1657 76.7362 8.19075 76.6214 8.21387C76.5102 8.23699 76.3935 8.25819 76.2712 8.27746C76.0341 8.31599 75.8396 8.37958 75.6877 8.46821C75.5395 8.55299 75.4283 8.65896 75.3542 8.78613C75.2838 8.90944 75.2486 9.04817 75.2486 9.20231C75.2486 9.44894 75.332 9.63777 75.4987 9.76879C75.6655 9.89981 75.8785 9.96532 76.1379 9.96532Z" fill="#DDDDDD"/>
<path d="M84.2868 2.95954L85.5317 5.71098L86.8433 2.95954H89.8889L87.5991 7.39884L90 11.8382H86.9767L85.5317 9.01734L84.1312 11.8382H81.0634L83.4865 7.39884L81.219 2.95954H84.2868Z" fill="#DDDDDD"/>
</svg>
