<svg width="16" height="15" viewBox="0 0 16 15" fill="none" xmlns="http://www.w3.org/2000/svg">
<path fill-rule="evenodd" clip-rule="evenodd" d="M10.8448 6.20689C10.8448 8.4922 8.99222 10.3448 6.7069 10.3448C4.42159 10.3448 2.56897 8.4922 2.56897 6.20689C2.56897 3.92158 4.42159 2.06896 6.7069 2.06896C8.99222 2.06896 10.8448 3.92158 10.8448 6.20689ZM10.3033 11.2663C9.28867 11.9888 8.04742 12.4138 6.7069 12.4138C3.27893 12.4138 0.5 9.63486 0.5 6.20689C0.5 2.77892 3.27893 0 6.7069 0C10.1349 0 12.9138 2.77892 12.9138 6.20689C12.9138 7.54741 12.4888 8.78867 11.7663 9.80331L15.197 13.234C15.601 13.638 15.601 14.293 15.197 14.697C14.793 15.101 14.138 15.101 13.734 14.697L10.3033 11.2663Z" fill="#787878"/>
</svg>
