<svg width="40" height="40" viewBox="0 0 40 40" fill="none" xmlns="http://www.w3.org/2000/svg">
<path fill-rule="evenodd" clip-rule="evenodd" d="M27.5862 16.5517C27.5862 22.6459 22.6459 27.5862 16.5517 27.5862C10.4576 27.5862 5.51725 22.6459 5.51725 16.5517C5.51725 10.4575 10.4576 5.51724 16.5517 5.51724C22.6459 5.51724 27.5862 10.4575 27.5862 16.5517ZM26.1422 30.0434C23.4365 31.9702 20.1264 33.1034 16.5517 33.1034C7.41047 33.1034 0 25.693 0 16.5517C0 7.41045 7.41047 0 16.5517 0C25.693 0 33.1035 7.41045 33.1035 16.5517C33.1035 20.1264 31.9703 23.4365 30.0435 26.1422L39.192 35.2907C40.2693 36.3681 40.2693 38.1147 39.192 39.192C38.1147 40.2693 36.368 40.2693 35.2907 39.192L26.1422 30.0434Z" fill="black"/>
</svg>
