<svg width="11" height="11" viewBox="0 0 11 11" fill="none" xmlns="http://www.w3.org/2000/svg">
<path fill-rule="evenodd" clip-rule="evenodd" d="M4.09993 8.76565H0.457045C0.217694 8.76565 0.0234375 8.5714 0.0234375 8.33205C0.0234375 8.09269 0.217694 7.89844 0.457045 7.89844H4.09993C4.33928 7.89844 4.53354 8.09269 4.53354 8.33205C4.53354 8.5714 4.33928 8.76565 4.09993 8.76565Z" fill="#989898"/>
<path fill-rule="evenodd" clip-rule="evenodd" d="M9.36498 3.16018H5.72267C5.48332 3.16018 5.28906 2.96593 5.28906 2.72658C5.28906 2.48723 5.48332 2.29297 5.72267 2.29297H9.36498C9.60433 2.29297 9.79859 2.48723 9.79859 2.72658C9.79859 2.96593 9.60433 3.16018 9.36498 3.16018Z" fill="#989898"/>
<mask id="mask0_856_7553" style="mask-type:alpha" maskUnits="userSpaceOnUse" x="0" y="0" width="4" height="5">
<path fill-rule="evenodd" clip-rule="evenodd" d="M0 0.90625H3.59941V4.48589H0V0.90625Z" fill="white"/>
</mask>
<g mask="url(#mask0_856_7553)">
<path fill-rule="evenodd" clip-rule="evenodd" d="M1.79973 1.77344C1.28576 1.77344 0.867188 2.18739 0.867188 2.69673C0.867188 3.2055 1.28576 3.61887 1.79973 3.61887C2.31428 3.61887 2.73228 3.2055 2.73228 2.69673C2.73228 2.18739 2.31428 1.77344 1.79973 1.77344ZM1.79976 4.48612C0.807667 4.48612 0 3.68365 0 2.69676C0 1.70987 0.807667 0.90625 1.79976 0.90625C2.79244 0.90625 3.59952 1.70987 3.59952 2.69676C3.59952 3.68365 2.79244 4.48612 1.79976 4.48612Z" fill="#989898"/>
</g>
<path fill-rule="evenodd" clip-rule="evenodd" d="M8.31594 7.38672C7.80139 7.38672 7.38281 7.80067 7.38281 8.30944C7.38281 8.81878 7.80139 9.23215 8.31594 9.23215C8.82991 9.23215 9.24791 8.81878 9.24791 8.30944C9.24791 7.80067 8.82991 7.38672 8.31594 7.38672ZM8.31597 10.0994C7.32329 10.0994 6.51562 9.29636 6.51562 8.30946C6.51562 7.32257 7.32329 6.51953 8.31597 6.51953C9.30806 6.51953 10.1151 7.32257 10.1151 8.30946C10.1151 9.29636 9.30806 10.0994 8.31597 10.0994Z" fill="#989898"/>
</svg>
