<svg width="28" height="16" viewBox="0 0 28 16" fill="none" xmlns="http://www.w3.org/2000/svg">
<path d="M1.01434 8.56757C1.01434 8.56757 0.784606 6.67568 2.16436 6.67568C3.54412 6.67568 2.31767 13.1081 3.69742 13.1081C5.07718 13.1081 4.61726 5.91892 5.99702 5.91892C7.37677 5.91892 6.22699 13.8649 8.29662 13.8649C10.3663 13.8649 9.29051 1 11.3601 1C13.4298 1 11.9734 15 13.6597 15C15.3461 15 14.6562 3.64865 16.7259 3.64865C18.7955 3.64865 17.3417 13.1081 19.4113 13.1081C21.4809 13.1081 20.3286 7.81081 21.7083 7.81081C23.0881 7.81081 22.1708 10.0811 22.8607 10.0811C23.5506 10.0811 27 10.0811 27 10.0811" stroke="#A7A7A7" stroke-width="2" stroke-linecap="round"/>
</svg>
